<?xml version="1.0" encoding="UTF-8" standalone="no"?>
<!DOCTYPE svg PUBLIC "-//W3C//DTD SVG 1.1//EN" "http://www.w3.org/Graphics/SVG/1.1/DTD/svg11.dtd">
<svg width="100%" height="100%" viewBox="0 0 601 598" version="1.1" xmlns="http://www.w3.org/2000/svg" xmlns:xlink="http://www.w3.org/1999/xlink" xml:space="preserve" xmlns:serif="http://www.serif.com/" style="fill-rule:evenodd;clip-rule:evenodd;stroke-linecap:round;stroke-linejoin:round;">
    <g id="ArtBoard1" transform="matrix(0.928848,0,0,0.85064,-150.473,-80.8108)">
        <rect x="162" y="95" width="646.5" height="703" style="fill:none;"/>
        <clipPath id="_clip1">
            <rect x="162" y="95" width="646.5" height="703"/>
        </clipPath>
        <g clip-path="url(#_clip1)">
            <g transform="matrix(1.0766,0,0,1.17559,-65.1632,-97.796)">
                <rect x="0" y="0" width="1000" height="1000" style="fill:rgb(233,242,243);"/>
            </g>
            <g transform="matrix(1.0766,0,0,1.17559,-65.1632,-97.796)">
                <path d="M533.83,363.79C575.53,484 651.7,484 621.7,595.06L503.83,595.06C471.28,544 505.53,282.09 533.83,363.79Z" style="fill:rgb(182,47,47);fill-rule:nonzero;"/>
                <path d="M545.32,575.06C545.11,575.06 545.11,575.28 545.11,575.28C546.81,579.32 563.19,622.3 515.53,627.4C458.72,633.36 419.79,566.77 418.09,563.79L417.87,563.79C414.04,563.79 305.96,561.66 265.96,617.83L265.96,618.04C354.04,754.21 535.96,792.72 671.91,704.64C695.11,689.74 716.17,671.66 734.04,651.02L734.04,650.81C667.45,578.68 552.34,575.28 545.32,575.06Z" style="fill:rgb(5,61,55);fill-rule:nonzero;"/>
                <path d="M642.34,400.6C641.06,389.32 639.79,372.72 637.87,356.13C637.02,349.74 629.57,343.79 628.51,337.4C624.89,315.91 623.19,304.21 613.83,294C594.68,272.51 551.91,252.51 502.13,257.83C453.83,262.94 414.89,295.06 413.19,362.72C412.34,396.77 412.55,450.38 412.98,492.94C413.4,530.38 413.83,559.32 413.83,559.32C413.83,559.32 417.66,662.3 489.79,673.57C563.83,685.06 554.47,570.6 554.47,570.6L554.47,521.87C554.47,521.87 596.17,539.32 629.36,516.34C663.83,492.51 645.53,430.6 642.34,400.6Z" style="fill:rgb(244,158,115);fill-rule:nonzero;"/>
                <path d="M554.47,556.98L554.47,522.09C554.47,522.09 554.47,521.87 554.26,521.87C552.77,521.45 538.3,516.34 523.62,508.47C523.4,508.47 523.19,508.68 523.4,508.68L554.04,556.98C554.26,557.19 554.47,557.19 554.47,556.98Z" style="fill:rgb(23,23,23);fill-opacity:0.2;fill-rule:nonzero;"/>
                <path d="M635.11,337.62C631.49,316.13 626.38,299.32 617.02,289.11C597.87,267.62 551.91,245.49 502.13,250.81C453.83,255.91 418.3,275.28 390.21,356.77C348.51,476.98 271.7,476.98 301.7,587.83L301.91,588.04L473.62,588.04C505.11,538.26 485.96,482.09 485.11,479.53L484.89,479.32C482.34,478.26 419.36,450.38 434.04,409.96C449.79,367.4 511.06,402.94 514.68,405.28L514.89,405.28C529.57,381.66 514.89,344.43 512.77,339.11C512.77,338.89 512.98,338.68 513.19,338.89C517.45,341.87 544.47,359.74 565.74,364C615.53,374 636.38,357.62 637.87,356.34L637.87,356.13C637.02,348.89 636.17,343.57 635.11,337.62Z" style="fill:rgb(182,47,47);fill-rule:nonzero;"/>
                <path d="M475.32,425.91L493.4,437.4" style="fill:none;fill-rule:nonzero;stroke:rgb(23,23,23);stroke-width:4px;"/>
                <path d="M604.68,428.26C606.6,431.66 609.36,436.98 608.72,440.38C608.09,442.51 606.38,444.21 604.47,445.28" style="fill:none;fill-rule:nonzero;stroke:rgb(23,23,23);stroke-width:4px;"/>
                <path d="M585.96,455.28C586.38,461.66 591.91,466.34 598.3,465.7L598.72,465.7" style="fill:none;fill-rule:nonzero;stroke:rgb(23,23,23);stroke-width:4px;"/>
                <path d="M557.66,523.13C544.68,519.09 522.98,505.04 522.98,505.04" style="fill:none;fill-rule:nonzero;stroke:rgb(23,23,23);stroke-width:4px;"/>
                <path d="M571.7,413.36C575,413.36 577.66,410.68 577.66,407.4C577.66,404.11 575,401.45 571.7,401.45C568.4,401.45 565.74,404.11 565.74,407.4C565.74,410.68 568.4,413.36 571.7,413.36Z" style="fill:rgb(23,21,28);fill-rule:nonzero;"/>
                <path d="M626.38,407.38C629.68,407.38 632.34,404.72 632.34,401.43C632.34,398.15 629.68,395.47 626.38,395.47C623.11,395.47 620.43,398.15 620.43,401.43C620.43,404.72 623.11,407.38 626.38,407.38Z" style="fill:rgb(23,21,28);fill-rule:nonzero;"/>
                <path d="M480.43,507.19C493.23,507.19 503.62,496.81 503.62,484C503.62,471.19 493.23,460.81 480.43,460.81C467.62,460.81 457.23,471.19 457.23,484C457.23,496.81 467.62,507.19 480.43,507.19Z" style="fill:rgb(7,87,78);fill-rule:nonzero;"/>
            </g>
        </g>
    </g>
</svg>
