<?xml version="1.0" encoding="UTF-8" standalone="no"?>
<!DOCTYPE svg PUBLIC "-//W3C//DTD SVG 1.1//EN" "http://www.w3.org/Graphics/SVG/1.1/DTD/svg11.dtd">
<svg width="100%" height="100%" viewBox="0 0 621 173" version="1.1" xmlns="http://www.w3.org/2000/svg" xmlns:xlink="http://www.w3.org/1999/xlink" xml:space="preserve" xmlns:serif="http://www.serif.com/" style="fill-rule:evenodd;clip-rule:evenodd;stroke-linecap:round;stroke-linejoin:round;stroke-miterlimit:1.5;">
    <g transform="matrix(1,0,0,1,-522.188,0)">
        <g id="ArtBoard2" transform="matrix(1.06885,0,0,0.297762,-568.035,-5.06196)">
            <rect x="1020" y="17" width="581" height="581" style="fill:none;"/>
            <clipPath id="_clip1">
                <rect x="1020" y="17" width="581" height="581"/>
            </clipPath>
            <g clip-path="url(#_clip1)">
                <g transform="matrix(2.16747,0,0,1.36994,-1198.31,-113.757)">
                    <g transform="matrix(0.152169,0,0,0.839102,865.749,25.6098)">
                        <g transform="matrix(10.9827,0,0,11.3114,-10361.4,-314.465)">
                            <path d="M1044,60.5L1044,67.75C1044,73.407 1048.59,78 1054.25,78L1074.75,78C1080.03,78 1084.38,74 1084.94,68.867C1084.98,68.5 1085,68.128 1085,67.75L1085,66.109" style="fill:none;stroke:url(#_Linear2);stroke-width:3.1px;"/>
                        </g>
                        <g transform="matrix(10.9827,0,0,11.3114,-10361.4,-314.465)">
                            <path d="M1085,54.744L1085,47.25C1085,41.593 1080.41,37 1074.75,37L1054.25,37C1048.59,37 1044,41.593 1044,47.25L1044,48.525" style="fill:none;stroke:url(#_Linear3);stroke-width:3.1px;"/>
                        </g>
                        <g transform="matrix(7.4297,0,0,7.65209,-8512.35,-835.376)">
                            <path d="M1288,162L1294.24,155.76L1300.77,162.294" style="fill:none;stroke:url(#_Linear4);stroke-width:4.58px;stroke-linejoin:miter;stroke-miterlimit:3;"/>
                        </g>
                        <g transform="matrix(-7.4297,-9.37111e-16,9.09876e-16,-7.65209,11171.7,1512.07)">
                            <path d="M1288,162L1294.24,155.76L1300.77,162.294" style="fill:none;stroke:url(#_Linear5);stroke-width:4.58px;stroke-linejoin:miter;stroke-miterlimit:3;"/>
                        </g>
                    </g>
                    <g transform="matrix(0.871899,4.9518,-0.871899,4.9518,191.83,-5226.13)">
                        <path d="M1050,68L1066,68L1066,38" style="fill:none;stroke:url(#_Linear6);stroke-width:4.2px;"/>
                    </g>
                </g>
                <g transform="matrix(1.77731,0,0,6.37981,-250.45,-50.3346)">
                    <path d="M856.584,58C855.824,58 855.204,57.76 854.723,57.28C854.243,56.799 854.003,56.179 854.003,55.419L854.003,13.698C854.003,12.937 854.243,12.317 854.723,11.837C855.204,11.357 855.824,11.117 856.584,11.117C857.345,11.117 857.965,11.357 858.445,11.837C858.925,12.317 859.166,12.937 859.166,13.698L859.166,31.947L888.04,31.947L888.04,13.698C888.04,12.937 888.28,12.317 888.76,11.837C889.241,11.357 889.861,11.117 890.621,11.117C891.342,11.117 891.942,11.357 892.422,11.837C892.902,12.317 893.143,12.937 893.143,13.698L893.143,55.419C893.143,56.179 892.902,56.799 892.422,57.28C891.942,57.76 891.342,58 890.621,58C889.861,58 889.241,57.76 888.76,57.28C888.28,56.799 888.04,56.179 888.04,55.419L888.04,36.569L859.166,36.569L859.166,55.419C859.166,56.179 858.925,56.799 858.445,57.28C857.965,57.76 857.345,58 856.584,58Z" style="fill-rule:nonzero;"/>
                    <path d="M902.807,58C901.807,58 901.077,57.59 900.616,56.769C900.156,55.949 900.106,55.119 900.466,54.278L917.875,12.857C918.395,11.697 919.236,11.117 920.396,11.117C921.557,11.117 922.357,11.697 922.797,12.857L940.266,54.338C940.666,55.219 940.616,56.049 940.116,56.829C939.616,57.61 938.905,58 937.985,58C937.465,58 936.984,57.86 936.544,57.58C936.104,57.3 935.764,56.919 935.524,56.439L919.556,17.3L921.357,17.3L905.149,56.439C904.948,56.959 904.628,57.35 904.188,57.61C903.748,57.87 903.288,58 902.807,58ZM906.529,47.075L908.51,42.692L932.582,42.692L934.623,47.075L906.529,47.075Z" style="fill-rule:nonzero;"/>
                    <path d="M950.111,58C949.351,58 948.7,57.76 948.16,57.28C947.62,56.799 947.35,56.179 947.35,55.419L947.35,13.698C947.35,12.937 947.59,12.317 948.07,11.837C948.55,11.357 949.171,11.117 949.931,11.117L964.458,11.117C966.939,11.117 969.171,11.637 971.152,12.677C973.133,13.718 974.703,15.129 975.864,16.909C977.024,18.69 977.605,20.761 977.605,23.123C977.605,25.244 977.034,27.125 975.894,28.765C974.753,30.406 973.263,31.687 971.422,32.607C974.063,33.288 976.204,34.598 977.845,36.539C979.486,38.48 980.306,40.971 980.306,44.013C980.306,46.774 979.676,49.196 978.415,51.277C977.155,53.358 975.414,54.999 973.193,56.199C970.971,57.4 968.42,58 965.539,58L950.111,58ZM952.512,53.138L965.539,53.138C967.42,53.138 969.091,52.767 970.551,52.027C972.012,51.287 973.163,50.246 974.003,48.905C974.843,47.565 975.264,45.934 975.264,44.013C975.264,42.252 974.843,40.731 974.003,39.451C973.163,38.17 972.012,37.19 970.551,36.509C969.091,35.829 967.42,35.489 965.539,35.489L952.512,35.489L952.512,53.138ZM952.512,30.566L964.458,30.566C966.819,30.566 968.76,29.926 970.281,28.645C971.802,27.365 972.562,25.524 972.562,23.123C972.562,20.761 971.802,18.981 970.281,17.78C968.76,16.579 966.819,15.979 964.458,15.979L952.512,15.979L952.512,30.566Z" style="fill-rule:nonzero;"/>
                    <path d="M992.192,58C991.432,58 990.811,57.76 990.331,57.28C989.851,56.799 989.611,56.179 989.611,55.419L989.611,13.698C989.611,12.937 989.851,12.317 990.331,11.837C990.811,11.357 991.432,11.117 992.192,11.117C992.952,11.117 993.573,11.357 994.053,11.837C994.533,12.317 994.773,12.937 994.773,13.698L994.773,55.419C994.773,56.179 994.533,56.799 994.053,57.28C993.573,57.76 992.952,58 992.192,58Z" style="fill-rule:nonzero;"/>
                    <path d="M1020.47,58C1019.75,58 1019.14,57.75 1018.63,57.25C1018.13,56.749 1017.88,56.139 1017.88,55.419L1017.88,11.117L1023.05,11.117L1023.05,55.419C1023.05,56.139 1022.81,56.749 1022.33,57.25C1021.85,57.75 1021.23,58 1020.47,58ZM1004.08,15.859C1003.36,15.859 1002.78,15.629 1002.34,15.169C1001.9,14.708 1001.68,14.158 1001.68,13.518C1001.68,12.797 1001.9,12.217 1002.34,11.777C1002.78,11.337 1003.36,11.117 1004.08,11.117L1036.91,11.117C1037.63,11.117 1038.21,11.337 1038.65,11.777C1039.1,12.217 1039.32,12.797 1039.32,13.518C1039.32,14.158 1039.1,14.708 1038.65,15.169C1038.21,15.629 1037.63,15.859 1036.91,15.859L1004.08,15.859Z" style="fill-rule:nonzero;"/>
                </g>
                <g transform="matrix(4.01828,0,0,14.424,-2322,-634.758)">
                    <path d="M898.741,85C898.52,85 898.328,84.921 898.165,84.764C898.002,84.607 897.921,84.412 897.921,84.18L897.921,71.371L899.561,71.371L899.561,84.18C899.561,84.412 899.486,84.607 899.335,84.764C899.183,84.921 898.986,85 898.741,85ZM894.012,72.872C893.791,72.872 893.611,72.802 893.471,72.662C893.332,72.523 893.262,72.343 893.262,72.121C893.262,71.9 893.332,71.72 893.471,71.581C893.611,71.441 893.791,71.371 894.012,71.371L903.47,71.371C903.703,71.371 903.889,71.441 904.029,71.581C904.168,71.72 904.238,71.9 904.238,72.121C904.238,72.343 904.168,72.523 904.029,72.662C903.889,72.802 903.703,72.872 903.47,72.872L894.012,72.872Z" style="fill-rule:nonzero;"/>
                    <path d="M907.065,85C906.832,85 906.638,84.921 906.481,84.764C906.324,84.607 906.245,84.412 906.245,84.18L906.245,72.191C906.245,71.947 906.324,71.749 906.481,71.598C906.638,71.447 906.832,71.371 907.065,71.371L910.259,71.371C911.12,71.371 911.884,71.551 912.553,71.912C913.222,72.273 913.746,72.773 914.124,73.413C914.502,74.053 914.691,74.791 914.691,75.629C914.691,76.42 914.502,77.124 914.124,77.741C913.746,78.357 913.222,78.84 912.553,79.189C911.884,79.538 911.12,79.712 910.259,79.712L907.885,79.712L907.885,84.18C907.885,84.412 907.81,84.607 907.658,84.764C907.507,84.921 907.309,85 907.065,85ZM914.325,85C914.173,85 914.04,84.968 913.923,84.904C913.807,84.84 913.702,84.738 913.609,84.599L910.398,79.433L912.004,78.98L914.97,83.744C915.168,84.058 915.197,84.346 915.058,84.607C914.918,84.869 914.674,85 914.325,85ZM907.885,78.177L910.259,78.177C910.817,78.177 911.309,78.069 911.733,77.854C912.158,77.639 912.492,77.336 912.737,76.947C912.981,76.557 913.103,76.118 913.103,75.629C913.103,75.094 912.981,74.62 912.737,74.207C912.492,73.794 912.158,73.474 911.733,73.247C911.309,73.02 910.817,72.907 910.259,72.907L907.885,72.907L907.885,78.177Z" style="fill-rule:nonzero;"/>
                    <path d="M916.558,85C916.256,85 916.029,84.872 915.878,84.616C915.726,84.36 915.715,84.093 915.843,83.813L920.834,71.93C920.985,71.557 921.241,71.371 921.601,71.371C921.985,71.371 922.247,71.557 922.387,71.93L927.395,83.848C927.511,84.127 927.491,84.389 927.334,84.634C927.177,84.878 926.947,85 926.645,85C926.493,85 926.348,84.956 926.208,84.869C926.069,84.782 925.964,84.657 925.894,84.494L921.375,73.395L921.881,73.395L917.326,84.494C917.256,84.668 917.152,84.796 917.012,84.878C916.872,84.959 916.721,85 916.558,85ZM917.57,81.911L918.216,80.533L925.144,80.533L925.772,81.911L917.57,81.911Z" style="fill-rule:nonzero;"/>
                    <path d="M935.213,85.175C934.271,85.175 933.389,84.997 932.569,84.642C931.749,84.287 931.034,83.79 930.423,83.15C929.812,82.51 929.332,81.766 928.983,80.917C928.634,80.067 928.46,79.154 928.46,78.177C928.46,77.211 928.631,76.307 928.974,75.463C929.318,74.62 929.797,73.878 930.414,73.238C931.031,72.598 931.746,72.098 932.56,71.738C933.375,71.377 934.259,71.197 935.213,71.197C936.085,71.197 936.853,71.316 937.516,71.554C938.18,71.793 938.837,72.18 939.488,72.715C939.581,72.785 939.648,72.863 939.689,72.95C939.73,73.038 939.747,73.125 939.741,73.212C939.736,73.299 939.715,73.384 939.68,73.465C939.669,73.64 939.596,73.779 939.462,73.884C939.328,73.989 939.171,74.044 938.991,74.05C938.811,74.056 938.633,73.995 938.459,73.867C938.017,73.483 937.551,73.192 937.063,72.994C936.574,72.796 935.958,72.697 935.213,72.697C934.503,72.697 933.837,72.843 933.215,73.134C932.592,73.424 932.043,73.82 931.566,74.32C931.089,74.82 930.717,75.402 930.449,76.065C930.181,76.728 930.048,77.432 930.048,78.177C930.048,78.945 930.181,79.657 930.449,80.315C930.717,80.972 931.089,81.554 931.566,82.06C932.043,82.566 932.592,82.958 933.215,83.237C933.837,83.517 934.503,83.656 935.213,83.656C935.83,83.656 936.411,83.555 936.958,83.351C937.505,83.147 938.022,82.859 938.511,82.487C938.697,82.348 938.883,82.286 939.07,82.304C939.256,82.321 939.413,82.397 939.541,82.531C939.669,82.665 939.733,82.848 939.733,83.08C939.733,83.185 939.715,83.287 939.68,83.386C939.645,83.485 939.581,83.575 939.488,83.656C938.883,84.18 938.217,84.564 937.49,84.808C936.763,85.052 936.004,85.175 935.213,85.175Z" style="fill-rule:nonzero;"/>
                    <path d="M943.432,85C943.211,85 943.019,84.921 942.856,84.764C942.693,84.607 942.612,84.412 942.612,84.18L942.612,72.191C942.612,71.959 942.693,71.764 942.856,71.607C943.019,71.45 943.211,71.371 943.432,71.371C943.665,71.371 943.86,71.45 944.017,71.607C944.174,71.764 944.252,71.959 944.252,72.191L944.252,77.688L950.255,71.685C950.383,71.569 950.497,71.487 950.596,71.441C950.695,71.394 950.802,71.371 950.918,71.371C951.186,71.371 951.378,71.45 951.494,71.607C951.611,71.764 951.657,71.95 951.634,72.165C951.611,72.38 951.518,72.581 951.355,72.767L946.765,77.357L951.425,83.691C951.553,83.877 951.605,84.072 951.582,84.276C951.558,84.479 951.483,84.651 951.355,84.791C951.227,84.93 951.058,85 950.849,85C950.546,85 950.319,84.884 950.168,84.651L945.631,78.491L944.252,79.87L944.252,84.18C944.252,84.412 944.174,84.607 944.017,84.764C943.86,84.921 943.665,85 943.432,85Z" style="fill-rule:nonzero;"/>
                    <path d="M954.984,85C954.752,85 954.557,84.921 954.4,84.764C954.243,84.607 954.164,84.412 954.164,84.18L954.164,72.191C954.164,71.947 954.243,71.749 954.4,71.598C954.557,71.447 954.752,71.371 954.984,71.371L962.994,71.371C963.227,71.371 963.419,71.444 963.57,71.589C963.721,71.735 963.797,71.924 963.797,72.156C963.797,72.366 963.721,72.543 963.57,72.689C963.419,72.834 963.227,72.907 962.994,72.907L955.805,72.907L955.805,77.374L960.987,77.374C961.232,77.374 961.427,77.447 961.572,77.592C961.717,77.738 961.79,77.921 961.79,78.142C961.79,78.363 961.717,78.546 961.572,78.692C961.427,78.837 961.232,78.91 960.987,78.91L955.805,78.91L955.805,83.464L962.994,83.464C963.227,83.464 963.419,83.537 963.57,83.682C963.721,83.828 963.797,84.005 963.797,84.215C963.797,84.447 963.721,84.636 963.57,84.782C963.419,84.927 963.227,85 962.994,85L954.984,85Z" style="fill-rule:nonzero;"/>
                    <path d="M967.148,85C966.915,85 966.72,84.921 966.563,84.764C966.406,84.607 966.327,84.412 966.327,84.18L966.327,72.191C966.327,71.947 966.406,71.749 966.563,71.598C966.72,71.447 966.915,71.371 967.148,71.371L970.341,71.371C971.202,71.371 971.967,71.551 972.636,71.912C973.305,72.273 973.828,72.773 974.206,73.413C974.584,74.053 974.773,74.791 974.773,75.629C974.773,76.42 974.584,77.124 974.206,77.741C973.828,78.357 973.305,78.84 972.636,79.189C971.967,79.538 971.202,79.712 970.341,79.712L967.968,79.712L967.968,84.18C967.968,84.412 967.892,84.607 967.741,84.764C967.59,84.921 967.392,85 967.148,85ZM974.407,85C974.256,85 974.122,84.968 974.006,84.904C973.889,84.84 973.785,84.738 973.691,84.599L970.481,79.433L972.086,78.98L975.053,83.744C975.25,84.058 975.279,84.346 975.14,84.607C975,84.869 974.756,85 974.407,85ZM967.968,78.177L970.341,78.177C970.899,78.177 971.391,78.069 971.816,77.854C972.24,77.639 972.575,77.336 972.819,76.947C973.063,76.557 973.185,76.118 973.185,75.629C973.185,75.094 973.063,74.62 972.819,74.207C972.575,73.794 972.24,73.474 971.816,73.247C971.391,73.02 970.899,72.907 970.341,72.907L967.968,72.907L967.968,78.177Z" style="fill-rule:nonzero;"/>
                </g>
            </g>
        </g>
    </g>
    <defs>
        <linearGradient id="_Linear2" x1="0" y1="0" x2="1" y2="0" gradientUnits="userSpaceOnUse" gradientTransform="matrix(53.595,-51.6566,51.6566,53.595,1035.73,82.4243)"><stop offset="0" style="stop-color:rgb(126,53,89);stop-opacity:1"/><stop offset="1" style="stop-color:rgb(250,171,78);stop-opacity:1"/></linearGradient>
        <linearGradient id="_Linear3" x1="0" y1="0" x2="1" y2="0" gradientUnits="userSpaceOnUse" gradientTransform="matrix(53.595,-51.6566,51.6566,53.595,1035.73,82.4243)"><stop offset="0" style="stop-color:rgb(126,53,89);stop-opacity:1"/><stop offset="1" style="stop-color:rgb(250,171,78);stop-opacity:1"/></linearGradient>
        <linearGradient id="_Linear4" x1="0" y1="0" x2="1" y2="0" gradientUnits="userSpaceOnUse" gradientTransform="matrix(79.2249,-76.3595,76.3595,79.2249,1282.16,189.915)"><stop offset="0" style="stop-color:rgb(126,53,89);stop-opacity:1"/><stop offset="1" style="stop-color:rgb(250,171,78);stop-opacity:1"/></linearGradient>
        <linearGradient id="_Linear5" x1="0" y1="0" x2="1" y2="0" gradientUnits="userSpaceOnUse" gradientTransform="matrix(-79.2249,76.3595,-76.3595,-79.2249,1367.22,116.856)"><stop offset="0" style="stop-color:rgb(126,53,89);stop-opacity:1"/><stop offset="1" style="stop-color:rgb(250,171,78);stop-opacity:1"/></linearGradient>
        <linearGradient id="_Linear6" x1="0" y1="0" x2="1" y2="0" gradientUnits="userSpaceOnUse" gradientTransform="matrix(1.85774,-100.871,100.871,1.85774,1057.56,107.713)"><stop offset="0" style="stop-color:rgb(126,53,89);stop-opacity:1"/><stop offset="1" style="stop-color:rgb(250,171,78);stop-opacity:1"/></linearGradient>
    </defs>
</svg>
