<?xml version="1.0" encoding="UTF-8" standalone="no"?>
<!DOCTYPE svg PUBLIC "-//W3C//DTD SVG 1.1//EN" "http://www.w3.org/Graphics/SVG/1.1/DTD/svg11.dtd">
<svg width="100%" height="100%" viewBox="0 0 138 120" version="1.1" xmlns="http://www.w3.org/2000/svg" xmlns:xlink="http://www.w3.org/1999/xlink" xml:space="preserve" xmlns:serif="http://www.serif.com/" style="fill-rule:evenodd;clip-rule:evenodd;stroke-linejoin:round;stroke-miterlimit:2;">
    <g transform="matrix(1,0,0,1,-1444,-100)">
        <g id="ArtBoard3" transform="matrix(0.992806,0,0,0.952088,11.3813,10.5037)">
            <rect x="1443" y="94" width="139" height="125.23" style="fill:none;"/>
            <g transform="matrix(1.03974,0,0,1.05032,73.5021,-224.291)">
                <path d="M1384,319.372C1368.29,298.807 1342.28,300.126 1328.72,311.826C1314.21,324.352 1313.16,349.387 1327.66,374.438C1337.16,391.936 1361.37,409.634 1381.67,421.316C1383.12,422.149 1384.88,422.149 1386.33,421.316C1406.64,409.63 1430.86,391.923 1440.37,374.394C1454.84,349.371 1453.79,324.348 1439.28,311.826C1425.72,300.126 1399.71,298.807 1384,319.372L1384,319.372ZM1384,328.242C1397.05,304.352 1423.16,304.352 1436.21,315.616C1449.26,326.881 1449.26,349.411 1436.21,371.941C1427.07,388.838 1403.58,405.735 1384,417C1364.42,405.735 1340.93,388.838 1331.79,371.941C1318.74,349.411 1318.74,326.881 1331.79,315.616C1344.84,304.352 1370.95,304.352 1384,328.242Z" style="fill:url(#_Linear1);"/>
            </g>
        </g>
    </g>
    <defs>
        <linearGradient id="_Linear1" x1="0" y1="0" x2="1" y2="0" gradientUnits="userSpaceOnUse" gradientTransform="matrix(90.0938,-92.4964,89.6059,93,1344.48,400.808)"><stop offset="0" style="stop-color:rgb(234,161,34);stop-opacity:1"/><stop offset="1" style="stop-color:rgb(140,198,63);stop-opacity:1"/></linearGradient>
    </defs>
</svg>
