<?xml version="1.0" encoding="UTF-8" standalone="no"?>
<!DOCTYPE svg PUBLIC "-//W3C//DTD SVG 1.1//EN" "http://www.w3.org/Graphics/SVG/1.1/DTD/svg11.dtd">
<svg width="100%" height="100%" viewBox="0 0 888 678" version="1.1" xmlns="http://www.w3.org/2000/svg" xmlns:xlink="http://www.w3.org/1999/xlink" xml:space="preserve" xmlns:serif="http://www.serif.com/" style="fill-rule:evenodd;clip-rule:evenodd;stroke-linejoin:round;stroke-miterlimit:2;">
    <path d="M307.693,659.535L316.417,662.148L330.648,629.74L317.772,625.884L307.693,659.535Z" style="fill:rgb(255,184,184);fill-rule:nonzero;"/>
    <g transform="matrix(1,0,0,1,-156,-111.396)">
        <path d="M462.32,767.416L479.502,772.562L479.503,772.563C485.509,774.362 488.971,780.785 487.172,786.792L487.065,787.148L458.934,778.722L462.32,767.416Z" style="fill:rgb(47,46,65);fill-rule:nonzero;"/>
    </g>
    <path d="M390.602,666.663L399.153,663.528L391.13,629.055L378.51,633.682L390.602,666.663Z" style="fill:rgb(255,184,184);fill-rule:nonzero;"/>
    <g transform="matrix(1,0,0,1,-156,-111.396)">
        <path d="M543.398,776.067L560.237,769.893L560.238,769.893C566.125,767.735 572.745,770.803 574.904,776.69L575.031,777.039L547.46,787.148L543.398,776.067Z" style="fill:rgb(47,46,65);fill-rule:nonzero;"/>
    </g>
    <path d="M322.321,600.868L307.464,649.897L325.292,655.097L342.378,609.782L322.321,600.868Z" style="fill:rgb(47,46,65);fill-rule:nonzero;"/>
    <path d="M369.121,612.011L382.493,658.068L401.064,649.154L387.693,606.068L369.121,612.011Z" style="fill:rgb(47,46,65);fill-rule:nonzero;"/>
    <g transform="matrix(1,0,0,1,-156,-111.396)">
        <path d="M518.162,731.714C506.27,731.66 494.406,730.566 482.705,728.444L482.407,728.384L482.407,717.054L475.617,716.299L480.917,697.371C478.446,668.211 481.957,631.282 483.092,620.653C483.352,618.16 483.524,616.761 483.524,616.761L489.482,566.112L499.453,556.909L503.982,559.856L512.384,568.258C522.15,592.292 529.899,614.919 529.948,616.373L562.699,721.326L562.479,721.482C551.106,729.51 533.77,731.714 518.162,731.714Z" style="fill:rgb(63,61,86);fill-rule:nonzero;"/>
    </g>
    <path d="M337.708,477.181L335.418,491.475L350.921,497.87L337.708,477.181Z" style="fill-opacity:0.2;fill-rule:nonzero;"/>
    <g transform="matrix(1,0,0,1,-156,-111.396)">
        <path d="M524.128,556.834L488.284,556.834C486.759,556.832 485.505,555.578 485.503,554.053L485.503,538.603C485.526,527.261 494.864,517.941 506.206,517.941C517.548,517.941 526.887,527.261 526.909,538.603L526.909,554.053C526.907,555.578 525.653,556.832 524.128,556.834Z" style="fill:rgb(47,46,65);fill-rule:nonzero;"/>
    </g>
    <circle cx="354.164" cy="429.328" r="15.179" style="fill:rgb(255,184,184);"/>
    <g transform="matrix(1,0,0,1,-156,-111.396)">
        <path d="M531.807,540.148L509.889,540.148L509.665,537.001L508.541,540.148L505.166,540.148L504.721,533.911L502.493,540.148L495.963,540.148L495.963,539.839C495.973,530.859 503.36,523.472 512.34,523.462L515.43,523.462C524.41,523.472 531.797,530.859 531.807,539.839L531.807,540.148Z" style="fill:rgb(47,46,65);fill-rule:nonzero;"/>
    </g>
    <g transform="matrix(1,0,0,1,-156,-111.396)">
        <path d="M509.71,559.718C509.545,559.718 509.38,559.703 509.218,559.675L493.169,556.843L493.169,530.318L510.836,530.318L510.398,530.828C504.313,537.926 508.897,549.434 512.172,555.662C512.664,556.592 512.579,557.726 511.954,558.571C511.434,559.291 510.598,559.718 509.71,559.718Z" style="fill:rgb(47,46,65);fill-rule:nonzero;"/>
    </g>
    <g transform="matrix(1,0,0,1,-156,-111.396)">
        <path d="M538.029,623.83L529.231,623.83C528.649,623.832 528.156,623.384 528.101,622.805L526.34,604.756L540.919,604.756L539.159,622.805C539.104,623.384 538.611,623.832 538.029,623.83Z" style="fill:rgb(126,53,89);fill-rule:nonzero;"/>
    </g>
    <g transform="matrix(1,0,0,1,-156,-111.396)">
        <path d="M540.896,607.027L526.364,607.027C525.741,607.026 525.229,606.514 525.228,605.891L525.228,603.166C525.229,602.544 525.741,602.032 526.364,602.031L540.896,602.031C541.519,602.032 542.031,602.544 542.032,603.166L542.032,605.891C542.031,606.514 541.519,607.026 540.896,607.027Z" style="fill:rgb(47,46,65);fill-rule:nonzero;"/>
    </g>
    <g transform="matrix(1,0,0,1,-156,-111.396)">
        <path d="M483.892,616.064C492.175,625.654 506.003,628.449 517.36,622.828L520.664,621.193L483.892,616.064Z" style="fill-opacity:0.2;fill-rule:nonzero;"/>
    </g>
    <g transform="matrix(1,0,0,1,-156,-111.396)">
        <path d="M536.711,612.569C535.389,611.085 533.494,610.235 531.507,610.235C529.374,610.235 527.354,611.215 526.034,612.892L510.709,608.589L505.823,617.265L527.551,623.037C528.716,623.836 530.097,624.263 531.509,624.263C535.352,624.263 538.513,621.102 538.513,617.26C538.513,615.528 537.871,613.856 536.711,612.569L536.711,612.569Z" style="fill:rgb(255,184,184);fill-rule:nonzero;"/>
    </g>
    <g transform="matrix(1,0,0,1,-156,-111.396)">
        <path d="M500.139,622.197C492.852,622.198 482.993,617.926 471.29,609.651C469.972,608.738 469.095,607.312 468.876,605.724C468.013,600.254 473.348,592.861 473.871,592.152L479.479,576.751C479.544,576.501 481.351,569.838 485.888,567.467C487.82,566.476 490.092,566.379 492.102,567.202C500.744,570.349 493.996,594.65 493.069,597.837L504.52,603.227L511.791,607.862L521.748,608.903L519.045,621.415L503.922,621.755C502.684,622.058 501.413,622.207 500.139,622.197Z" style="fill:rgb(63,61,86);fill-rule:nonzero;"/>
    </g>
    <g transform="matrix(1,0,0,1,-156,-111.396)">
        <path d="M1043.67,508.056C1043.65,453.996 999.154,409.529 945.095,409.529C891.016,409.529 846.516,454.029 846.516,508.108C846.516,521.43 849.216,534.616 854.454,546.865C854.358,546.758 854.258,546.654 854.162,546.546C858.541,556.751 864.611,566.144 872.116,574.329C872.139,574.353 872.162,574.377 872.184,574.402C872.79,575.062 873.399,575.719 874.022,576.362C892.211,595.334 917.272,606.238 943.551,606.616L940.22,787.545L950.512,787.545L948.429,668.129L963.316,660.292L961.045,655.978L948.334,662.67L947.356,606.606C1000.57,605.387 1043.67,561.281 1043.67,508.056Z" style="fill:rgb(230,230,230);fill-rule:nonzero;"/>
    </g>
    <g transform="matrix(1,0,0,1,-156,-111.396)">
        <path d="M751.087,460.008C751.053,396.655 698.913,344.543 635.561,344.543C572.185,344.543 520.034,396.694 520.034,460.07C520.034,475.682 523.199,491.134 529.337,505.489C529.224,505.364 529.108,505.242 528.995,505.115C534.126,517.075 541.24,528.083 550.036,537.674C550.062,537.703 550.089,537.732 550.116,537.76C550.825,538.534 551.539,539.303 552.269,540.057C573.586,562.29 602.954,575.069 633.752,575.512L629.848,787.545L641.908,787.545L639.467,647.6L656.913,638.415L654.252,633.36L639.356,641.203L638.21,575.501C700.568,574.072 751.086,522.383 751.087,460.008Z" style="fill:rgb(230,230,230);fill-rule:nonzero;"/>
    </g>
    <g transform="matrix(1,0,0,1,-156,-111.396)">
        <path d="M419.259,414.815C419.221,342.721 359.886,283.418 287.792,283.418C215.672,283.418 156.325,342.764 156.325,414.885C156.325,432.651 159.927,450.235 166.912,466.571C166.783,466.428 166.651,466.289 166.523,466.146C172.362,479.756 180.457,492.283 190.467,503.197C190.497,503.23 190.527,503.262 190.557,503.295C191.365,504.175 192.177,505.051 193.008,505.909C217.266,531.21 250.686,545.752 285.733,546.255L281.291,787.545L295.016,787.545L292.238,628.291L312.091,617.839L309.062,612.086L292.111,621.011L290.807,546.243C361.77,544.617 419.258,485.796 419.259,414.815Z" style="fill:rgb(230,230,230);fill-rule:nonzero;"/>
    </g>
    <circle cx="756.685" cy="85.976" r="85.976" style="fill:rgb(255,101,132);"/>
    <circle cx="245.559" cy="187.616" r="172.312" style="fill:url(#_Linear1);"/>
    <g transform="matrix(1,0,0,1,-156,-111.396)">
        <path d="M274.329,183.922C265.177,205.332 260.457,228.377 260.457,251.661C260.457,346.196 338.248,423.986 432.783,423.986C481.913,423.986 528.77,402.975 561.452,366.292C534.386,429.611 471.855,470.887 402.994,470.887C308.458,470.887 230.667,393.096 230.667,298.56C230.667,256.297 246.215,215.477 274.329,183.922Z" style="fill-opacity:0.2;fill-rule:nonzero;"/>
    </g>
    <path d="M246.032,187.616L246.506,187.616L255.027,676.148L237.038,676.148L246.032,187.616Z" style="fill:rgb(63,61,86);fill-rule:nonzero;"/>
    <g transform="matrix(0.884859,-0.46586,0.46586,0.884859,-372.966,148.448)">
        <rect x="401.085" y="564.581" width="32.19" height="8.521" style="fill:rgb(63,61,86);"/>
    </g>
    <g transform="matrix(1,0,0,1,-156,-111.396)">
        <path d="M665.115,782.975C665.115,782.975 665.737,769.948 678.482,771.462" style="fill:rgb(63,61,86);fill-rule:nonzero;"/>
    </g>
    <circle cx="505.514" cy="652.803" r="6.379" style="fill:rgb(126,53,89);"/>
    <rect x="504.476" y="663.545" width="1.801" height="12.604" style="fill:rgb(63,61,86);"/>
    <g transform="matrix(1,0,0,1,-156,-111.396)">
        <path d="M223.083,781.174C223.083,781.174 223.705,768.148 236.449,769.662" style="fill:rgb(63,61,86);fill-rule:nonzero;"/>
    </g>
    <circle cx="63.482" cy="651.003" r="6.379" style="fill:rgb(126,53,89);"/>
    <rect x="62.444" y="661.744" width="1.801" height="12.604" style="fill:rgb(63,61,86);"/>
    <g transform="matrix(1,0,0,1,-156,-111.396)">
        <path d="M327.514,782.075C327.514,782.075 328.136,769.048 340.881,770.562" style="fill:rgb(63,61,86);fill-rule:nonzero;"/>
    </g>
    <circle cx="167.913" cy="651.903" r="6.379" style="fill:rgb(126,53,89);"/>
    <rect x="166.875" y="662.644" width="1.801" height="12.604" style="fill:rgb(63,61,86);"/>
    <g transform="matrix(1,0,0,1,-156,-111.396)">
        <path d="M605.243,194.695L618.038,184.462C608.098,183.365 604.014,188.786 602.343,193.077C594.578,189.852 586.124,194.078 586.124,194.078L611.724,203.372C610.433,199.922 608.184,196.912 605.243,194.695Z" style="fill:rgb(63,61,86);fill-rule:nonzero;"/>
    </g>
    <g transform="matrix(1,0,0,1,-156,-111.396)">
        <path d="M799.827,298.936L812.622,288.703C802.682,287.606 798.598,293.027 796.927,297.318C789.161,294.093 780.708,298.319 780.708,298.319L806.308,307.613C805.016,304.164 802.768,301.153 799.827,298.936Z" style="fill:rgb(63,61,86);fill-rule:nonzero;"/>
    </g>
    <g transform="matrix(1,0,0,1,-156,-111.396)">
        <path d="M589.955,387.889L602.749,377.655C592.81,376.559 588.726,381.98 587.054,386.27C579.289,383.046 570.835,387.272 570.835,387.272L596.435,396.566C595.144,393.116 592.896,390.106 589.955,387.889Z" style="fill:rgb(63,61,86);fill-rule:nonzero;"/>
    </g>
    <g transform="matrix(1,0,0,1,-156,-111.396)">
        <path d="M839.655,787.703C839.655,787.703 840.277,774.677 853.022,776.191" style="fill:rgb(63,61,86);fill-rule:nonzero;"/>
    </g>
    <g transform="matrix(1,0,0,1,-156,-111.396)">
        <path d="M719.919,787.703C719.919,787.703 720.541,774.677 733.286,776.191" style="fill:rgb(63,61,86);fill-rule:nonzero;"/>
    </g>
    <g transform="matrix(1,0,0,1,-156,-111.396)">
        <path d="M283.289,787.703C283.289,787.703 283.91,774.677 296.655,776.191" style="fill:rgb(63,61,86);fill-rule:nonzero;"/>
    </g>
    <g transform="matrix(1,0,0,1,-156,-111.396)">
        <path d="M893.671,787.703C893.671,787.703 894.293,774.677 907.038,776.191" style="fill:rgb(63,61,86);fill-rule:nonzero;"/>
    </g>
    <g transform="matrix(1,0,0,1,-156,-111.396)">
        <path d="M868.464,787.703C868.464,787.703 869.086,774.677 881.83,776.191" style="fill:rgb(63,61,86);fill-rule:nonzero;"/>
    </g>
    <g transform="matrix(1,0,0,1,-156,-111.396)">
        <path d="M816.465,787.703C816.465,787.703 815.843,774.677 803.099,776.191" style="fill:rgb(63,61,86);fill-rule:nonzero;"/>
    </g>
    <g transform="matrix(1,0,0,1,-156,-111.396)">
        <path d="M609.403,787.703C609.403,787.703 608.781,774.677 596.037,776.191" style="fill:rgb(63,61,86);fill-rule:nonzero;"/>
    </g>
    <g transform="matrix(1,0,0,1,-156,-111.396)">
        <path d="M437.452,787.703C437.452,787.703 436.83,774.677 424.085,776.191" style="fill:rgb(63,61,86);fill-rule:nonzero;"/>
    </g>
    <g transform="matrix(1,0,0,1,-156,-111.396)">
        <path d="M254.697,787.703C254.697,787.703 254.075,774.677 241.33,776.191" style="fill:rgb(63,61,86);fill-rule:nonzero;"/>
    </g>
    <g transform="matrix(1,0,0,1,-156,-111.396)">
        <path d="M947.904,787.703C947.904,787.703 947.283,774.677 934.538,776.191" style="fill:rgb(63,61,86);fill-rule:nonzero;"/>
    </g>
    <g transform="matrix(1,0,0,1,-156,-111.396)">
        <path d="M870.481,788.604C870.481,788.604 869.859,775.577 857.115,777.091" style="fill:rgb(63,61,86);fill-rule:nonzero;"/>
    </g>
    <rect x="0" y="674.604" width="888" height="2" style="fill:rgb(63,61,86);"/>
    <defs>
        <linearGradient id="_Linear1" x1="0" y1="0" x2="1" y2="0" gradientUnits="userSpaceOnUse" gradientTransform="matrix(264,-248.474,248.474,264,131,321)"><stop offset="0" style="stop-color:rgb(126,53,89);stop-opacity:1"/><stop offset="0.4" style="stop-color:rgb(175,100,85);stop-opacity:1"/><stop offset="1" style="stop-color:rgb(250,171,78);stop-opacity:1"/></linearGradient>
    </defs>
</svg>
