<?xml version="1.0" encoding="UTF-8" standalone="no"?>
<!DOCTYPE svg PUBLIC "-//W3C//DTD SVG 1.1//EN" "http://www.w3.org/Graphics/SVG/1.1/DTD/svg11.dtd">
<svg width="100%" height="100%" viewBox="0 0 856 682" version="1.1" xmlns="http://www.w3.org/2000/svg" xmlns:xlink="http://www.w3.org/1999/xlink" xml:space="preserve" xmlns:serif="http://www.serif.com/" style="fill-rule:evenodd;clip-rule:evenodd;stroke-linejoin:round;stroke-miterlimit:2;">
    <path d="M571.598,149.332C571.472,149.354 571.285,149.386 571.057,149.423C566.605,150.16 539.691,154.313 512.556,143.976C501.061,139.597 504.982,138.506 479.38,123.282C449.364,105.433 441.661,105.558 439.426,97.236C434.963,80.617 458.795,54.492 474.57,56.212C478.723,56.665 483.17,59.141 490.088,57.462C491.608,57.093 498.261,55.479 501.505,49.972C504.398,45.059 501.948,41.515 503.111,37.485C506.166,26.909 531.627,21.631 553.949,25.36C566.788,27.505 576.774,33.361 596.222,44.985C630.072,65.217 646.997,75.333 650.801,90.832C654.406,105.522 645.753,111.852 652.046,127.578C657.907,142.22 667.214,141.242 670.417,153.087C675.571,172.148 656.441,193.067 648.473,201.781C639.736,211.335 631.38,216.579 620.287,223.541C606.364,232.278 599.403,236.647 591.033,236.203C575.858,235.397 530.766,238.14 530.178,225.582C529.957,220.876 475.268,224.73 502.197,174.062C505.5,167.848 570.206,174.486 571.061,170.916" style="fill:rgb(47,46,65);fill-rule:nonzero;"/>
    <path d="M597.787,181.755L644.299,251.133L510.787,278.133L519.291,191.274L597.787,181.755Z" style="fill:rgb(255,182,182);fill-rule:nonzero;"/>
    <path d="M597.787,181.755L644.299,251.133L510.787,278.133L519.291,191.274L597.787,181.755Z" style="fill-opacity:0.1;fill-rule:nonzero;"/>
    <path d="M500.787,233.133L644.787,227.133L708.787,262.133L705.787,487.133L772.787,614.133L434.787,550.133L460.787,454.133L448.787,252.133L500.787,233.133Z" style="fill:url(#_Linear1);fill-rule:nonzero;"/>
    <path d="M3.878,670.236C-0.719,662.989 -1.262,654.035 2.426,646.285L57.233,531.129C61.323,522.535 70.117,516.982 79.635,516.982L771.889,516.982C781.142,516.982 789.56,522.072 793.858,530.266L852.604,642.248C856.664,649.989 856.397,659.08 851.889,666.569C847.381,674.058 839.472,678.549 830.732,678.583L24.925,681.755L24.824,681.755C16.282,681.755 8.457,677.454 3.878,670.236L3.878,670.236Z" style="fill:white;fill-rule:nonzero;"/>
    <path d="M3.878,670.236C-0.719,662.989 -1.262,654.035 2.426,646.285L57.233,531.129C61.323,522.535 70.117,516.982 79.635,516.982L771.889,516.982C781.142,516.982 789.56,522.072 793.858,530.266L852.604,642.248C856.664,649.989 856.397,659.08 851.889,666.569C847.381,674.058 839.472,678.549 830.732,678.583L24.925,681.755L24.824,681.755C16.282,681.755 8.457,677.454 3.878,670.236L3.878,670.236ZM79.635,519.586C71.116,519.586 63.245,524.556 59.584,532.248L4.777,647.404C1.476,654.34 1.962,662.354 6.077,668.841C10.175,675.302 17.178,679.151 24.825,679.151L24.915,679.151L830.722,675.979C838.544,675.949 845.623,671.928 849.658,665.226C853.693,658.523 853.932,650.386 850.298,643.459L791.552,531.475C787.705,524.142 780.171,519.586 771.889,519.586L79.635,519.586Z" style="fill:rgb(63,61,86);fill-rule:nonzero;"/>
    <path d="M707.438,637.732L421.764,618.092C417.546,617.802 414.182,614.958 413.195,610.848C412.206,606.737 413.91,602.676 417.535,600.501L480.706,562.598C482.31,561.635 484.15,561.167 486.015,561.257L733.121,572.489C736.389,572.637 739.306,574.421 740.927,577.262C742.548,580.101 742.599,583.521 741.065,586.409L716.463,632.721C714.811,635.829 711.574,637.755 708.089,637.755C707.873,637.755 707.656,637.747 707.438,637.732L707.438,637.732Z" style="fill:rgb(63,61,86);fill-rule:nonzero;"/>
    <path d="M419.287,606.633L703.787,626.133L726.287,577.633L482.34,568.066L419.287,606.633Z" style="fill:white;fill-rule:nonzero;"/>
    <circle cx="559.287" cy="119.633" r="85.492" style="fill:rgb(255,182,182);"/>
    <path d="M586.823,125.165C586.698,125.187 586.51,125.218 586.283,125.256C581.831,125.993 554.917,130.146 527.782,119.809C516.286,115.43 520.208,114.339 494.606,99.115C464.59,81.266 456.887,81.391 454.652,73.068C450.189,56.45 474.021,30.325 489.795,32.045C493.948,32.498 498.396,34.974 505.314,33.295C506.834,32.926 513.487,31.312 516.731,25.804C519.624,20.892 517.173,17.348 518.337,13.318C521.391,2.742 546.852,-2.536 569.175,1.193C582.014,3.338 592,9.194 611.448,20.818C645.298,41.05 662.223,51.166 666.027,66.665C669.632,81.355 660.979,87.685 667.272,103.41C673.132,118.053 682.44,117.075 685.643,128.92C690.797,147.98 671.667,168.9 663.698,177.614C654.961,187.168 646.606,192.412 635.513,199.373C621.59,208.111 614.628,212.48 606.259,212.035C591.084,211.23 575.99,197.477 575.402,184.92C575.182,180.214 577.145,178.802 582.004,162.624C584.028,155.883 585.432,150.319 586.286,146.749" style="fill:rgb(47,46,65);fill-rule:nonzero;"/>
    <path d="M645.42,583.21C650.92,583.428 655.105,588.356 655.409,593.695C655.724,599.237 651.87,604.342 647.241,606.98C641.819,610.071 635.05,610.567 628.944,610.035C623.451,609.557 617.476,607.848 613.941,603.313C610.968,599.497 609.873,593.731 612.403,589.4C614.91,585.105 620.244,583.919 624.704,585.642C629.426,587.466 632.394,591.76 632.424,596.834C632.457,602.458 629.209,607.655 624.65,610.765C619.734,614.119 613.546,615.197 607.695,615.184C601.319,615.169 594.97,613.831 589.105,611.346C583.609,609.018 578.118,605.66 574.189,601.099C570.505,596.822 568.3,590.888 570.345,585.34C572.022,580.791 576.259,578.002 581.111,578.387C585.554,578.74 590.048,581.318 592.02,585.423C594.245,590.054 593.246,595.611 590.414,599.752C587.145,604.533 581.977,607.22 576.239,607.608C570.131,608.022 564.083,605.851 559.059,602.496C554.407,599.39 550.318,595.413 545.323,592.828C542.92,591.585 540.304,590.794 537.583,590.797C534.117,590.802 530.786,591.94 527.416,592.6C524.559,593.16 521.615,593.486 518.797,592.573C516.384,591.792 514.127,590.36 512.608,588.307C511.17,586.365 510.666,583.932 511.48,581.627C512.119,579.818 515.018,580.597 514.373,582.424C512.884,586.64 517.991,589.738 521.566,590.125C524.279,590.419 527.077,589.635 529.693,589.023C532.42,588.385 535.209,587.733 538.028,587.802C548.018,588.048 554.621,596.587 562.675,601.219C571.143,606.09 583.543,606.429 588.728,596.751C590.611,593.235 591,588.563 588.413,585.278C586.258,582.542 582.429,580.905 578.958,581.436C574.6,582.102 572.429,586.252 572.588,590.379C572.781,595.43 576.301,599.533 580.056,602.558C588.413,609.291 599.494,612.721 610.183,612.119C615.198,611.836 620.528,610.531 624.423,607.192C627.789,604.307 630.087,599.615 629.278,595.121C628.578,591.232 625.317,588.282 621.375,587.89C617.343,587.49 614.193,590.352 614.013,594.38C613.81,598.91 616.502,602.69 620.402,604.753C624.82,607.09 630.173,607.38 635.069,607.125C640.267,606.855 645.684,605.485 649.321,601.527C652.424,598.151 653.6,593.141 650.741,589.235C649.479,587.511 647.581,586.296 645.42,586.21C643.496,586.134 643.486,583.134 645.42,583.21L645.42,583.21Z" style="fill:url(#_Linear2);fill-rule:nonzero;"/>
    <path d="M508.692,579.997L510.221,570.539L595.095,408.32C596.501,405.633 599.831,404.591 602.518,405.996C605.205,407.402 606.247,410.733 604.842,413.419L520.005,575.567L513.07,582.287C512.249,583.078 511.066,583.248 510.056,582.719C509.046,582.191 508.511,581.122 508.692,579.997L508.692,579.997Z" style="fill:rgb(63,61,86);fill-rule:nonzero;"/>
    <path d="M566.545,476.79C576.121,478.592 585.125,482.662 592.805,488.658L593.237,488.751L593.325,488.321L685.827,502.809L679.125,379.773L749.23,341.377L732.66,549.349C729.071,562.631 715.287,570.388 702.072,566.563L584.321,532.693L584.615,531.244L584.203,531.134C574.792,533.672 564.911,533.919 555.385,531.854C531.489,527.018 514.613,510.768 517.694,495.56C520.774,480.353 542.64,471.949 566.545,476.79L566.545,476.79Z" style="fill:rgb(255,182,182);fill-rule:nonzero;"/>
    <path d="M629.787,284.133L708.787,262.133C708.787,262.133 750.287,292.633 755.287,325.633C755.882,329.557 757.531,512.379 755.787,517.133C742.865,552.352 671.787,496.133 671.787,496.133L629.787,284.133Z" style="fill:url(#_Linear3);fill-rule:nonzero;"/>
    <path d="M287.122,612.722L278.932,605.702L278.932,605.702C277.713,604.656 276.23,603.964 274.645,603.699L92.162,573.285C87.997,572.591 84.92,569.583 84.132,565.434C83.345,561.286 85.104,557.359 88.725,555.186L153.827,516.126C156.003,514.82 158.563,514.409 161.04,514.969L392.414,567.242C396.912,568.258 399.914,571.892 400.061,576.502C400.209,581.111 397.445,584.931 393.02,586.232L296.28,614.685C295.362,614.956 294.426,615.088 293.497,615.088C291.188,615.088 288.929,614.27 287.122,612.722L287.122,612.722Z" style="fill:rgb(63,61,86);fill-rule:nonzero;"/>
    <path d="M199.243,385.882C208.288,389.505 216.334,395.241 222.708,402.61L223.114,402.785L223.283,402.38L311.23,434.502L405.133,282.46L457.045,314.634L348.167,489.229C342.075,501.564 327.05,506.506 314.825,500.195L205.859,444.17L206.428,442.805L206.046,442.617C196.322,443.285 186.579,441.614 177.634,437.744C155.125,428.373 141.715,409.164 147.682,394.84C153.647,380.517 176.727,376.505 199.243,385.882L199.243,385.882Z" style="fill:rgb(255,182,182);fill-rule:nonzero;"/>
    <path d="M505.866,309.909L464.332,247.799C464.332,247.799 414.908,257.582 394.548,284.029C392.003,287.335 304.585,414.119 304.022,419.652C300.079,458.383 400.551,476.53 400.551,476.53L505.866,309.909Z" style="fill:url(#_Linear4);fill-rule:nonzero;"/>
    <path d="M282.602,614.588L73.421,585.676C66.42,584.709 60.641,579.692 58.699,572.896L10.656,404.744C9.028,399.045 10.243,393.143 13.99,388.552C17.737,383.96 23.273,381.587 29.185,382.038L239.935,398.184C247.56,398.768 253.96,404.138 255.863,411.544L302.337,592.462C303.82,598.235 302.337,604.338 298.369,608.786C294.953,612.617 290.108,614.757 285.058,614.757C284.243,614.757 283.423,614.701 282.602,614.588Z" style="fill:rgb(63,61,86);fill-rule:nonzero;"/>
    <path d="M235.976,270.166C237.198,271.511 241.635,270.14 250.46,267.345C257.167,265.22 258.201,264.447 258.839,263.893C261.082,261.944 261.67,259.894 263.892,250.84C267.879,234.59 268.003,232.976 270.051,229.528C270.756,228.34 272.537,225.508 272.103,225.157C271.656,224.796 269.728,227.747 266.166,228.862C262.693,229.948 261.13,228.208 258.166,228.651C254.334,229.224 252.055,232.864 248.481,238.756C245.317,243.974 244.918,246.073 240.481,256.44C239.224,259.376 238.212,261.649 237.435,263.446C228.723,271.577 220.082,279.815 211.52,288.125C211.686,287.873 211.841,287.635 211.976,287.428C215.768,281.605 216.283,278.483 216.228,276.144C216.139,272.354 214.329,269.468 210.713,263.849C207.169,258.343 203.812,254.711 199.766,250.375C194.463,244.693 191.812,241.852 190.756,242.039C183.214,243.373 181.197,294.726 190.686,303.91C189.355,304.861 188.252,305.858 187.454,306.838C179.331,297.82 165.416,287.744 150.002,286.503C140.499,285.738 135.254,288.72 133.623,289.745C126.086,294.479 121.604,303.955 123.855,306.629C125.954,309.122 132.016,303.454 143.896,303.766C152.187,303.984 158.662,306.991 162.507,308.777C170.571,312.523 173.521,316.205 179.467,318.728C176.68,321.024 174.471,323.891 173.084,326.565C172.604,327.06 172.125,327.558 171.645,328.054C165.51,324.596 158.601,322.06 151.359,321.477C141.856,320.712 136.611,323.694 134.98,324.719C129.9,327.909 126.219,333.248 125.041,337.213C124.271,337.367 123.558,337.544 122.906,337.735C120.603,332.53 113.749,327.042 107.377,324.276C96.408,319.514 82.16,320.776 80.635,325.304C80.586,325.448 80.574,325.591 80.553,325.733C81.755,316.032 83.388,306.398 85.427,296.834C85.497,297.107 85.583,297.383 85.699,297.674C88.407,304.475 95.724,311.003 105.697,314.389C113.525,317.047 116.804,315.67 117.637,315.285C118.433,314.917 121.869,313.442 122.711,310.509C124.272,305.071 114.712,289 108.682,294.391C89.308,311.71 86.649,297.686 85.76,295.325C87.407,287.764 89.303,280.247 91.429,272.772C91.466,272.817 91.498,272.862 91.536,272.908C95.769,278.042 103.915,281.659 113.487,281.818C121,281.944 123.455,279.841 124.069,279.276C124.656,278.737 127.22,276.506 127.134,273.733C126.974,268.593 117.83,264.407 110.514,263.681C103.773,263.012 96.513,265.077 92.912,267.69C94.586,262.093 96.387,256.519 98.309,250.97C103.229,252.98 110.198,252.71 117.045,249.649C122.691,247.125 123.789,244.702 124.05,244.067C124.299,243.461 125.434,240.903 124.404,238.866C122.495,235.089 114.218,235.153 108.51,237.16C106.159,237.987 103.924,239.259 102.009,240.697C105.414,231.602 109.125,222.571 113.116,213.607L109.116,212.607C104.018,224.058 99.572,235.658 95.752,247.387C95.277,243.947 94.086,240.283 92.519,237.306C87.91,228.552 78.066,221.985 74.737,224.115C74.071,224.542 73.791,225.236 73.537,226.062C71.496,232.712 73.033,241.903 78.408,250.346C82.626,256.974 85.875,257.904 86.721,258.114C87.435,258.292 90.194,259.054 92.461,258.073C90.936,263.298 89.526,268.545 88.241,273.817C86.694,269.975 83.645,265.883 80.42,263.052C72.985,256.527 61.443,253.915 59.096,257.096C58.627,257.732 58.614,258.48 58.672,259.343C59.145,266.283 63.868,274.315 71.907,280.278C78.217,284.958 81.583,284.665 82.449,284.558C82.958,284.496 84.498,284.343 85.982,283.671C84.604,290.076 83.4,296.512 82.359,302.975C80.277,295.745 73.205,286.725 66.53,289.595C54.685,294.687 40.762,286.865 39.23,290.285C38.831,291.175 39.161,292.093 39.543,293.089C42.611,301.101 51.086,308.865 62.723,312.987C71.857,316.223 75.721,314.659 76.703,314.221C77.354,313.93 79.501,313.033 81.101,311.368C79.951,319.672 79.069,328.019 78.448,336.402C75.979,331.01 69.023,325.329 62.511,322.4C51.089,317.263 36.15,318.388 34.49,323.109C34.159,324.054 34.42,324.964 34.812,325.987C37.962,334.211 46.66,342.179 58.604,346.41C67.979,349.731 71.945,348.126 72.953,347.676C73.689,347.348 76.29,346.261 77.948,344.198C77.736,348.073 77.572,351.955 77.468,355.844C77.439,356.952 77.421,358.06 77.4,359.167C77.265,359.385 77.148,359.608 77.07,359.84C76.75,360.791 76.968,361.705 77.343,362.704C77.335,363.407 77.331,364.11 77.326,364.814C75.236,362.92 72.743,360.071 69.745,356.012C67.039,352.35 64.47,355.037 62.819,358.155C60.232,357.579 57.764,357.936 55.823,359.749C42.807,371.908 28.208,365.457 28.002,369.082C27.942,370.128 28.503,370.96 29.209,371.863C34.892,379.123 46.049,384.419 59.303,384.977C69.706,385.415 73.18,382.588 74.05,381.828C74.356,381.561 75.041,380.984 75.783,380.173C76.379,380.649 76.958,381.08 77.54,381.474C77.769,388.434 78.178,395.386 78.785,402.326C78.292,402.37 77.82,402.451 77.468,402.487C72.429,403 70.732,396.202 63.12,393.718C60.592,392.894 55.722,391.993 53.156,393.718C52.786,393.967 51.525,394.901 49.569,395.711C48.412,396.19 47.529,396.412 47.177,396.508C44.054,397.363 41.162,399.707 39.206,401.291C35.53,404.27 33.692,405.759 32.829,408.465C32.557,409.317 31.793,411.712 32.829,414.045C33.318,415.148 34.454,416.787 38.807,418.429C41.395,419.405 48.942,422.252 57.938,419.227C59.987,418.538 58.423,418.784 66.308,414.842C72.512,411.741 76.14,410.258 76.671,407.27C76.858,406.219 76.67,404.938 77.468,404.48C77.912,404.225 78.449,404.349 78.984,404.542C79.506,410.121 80.158,415.691 80.948,421.249L73.85,421.249C64.424,421.249 55.968,426.495 51.782,434.941L25.23,488.508C23.554,491.889 22.667,495.672 22.667,499.446L22.667,637.189C22.667,650.77 33.716,661.819 47.297,661.819L109.274,661.819C122.855,661.819 133.904,650.77 133.904,637.189L133.904,510.354C133.904,507.262 133.332,504.235 132.202,501.356L106.896,436.881C103.827,429.061 97.179,423.53 89.233,421.817C91.782,418.795 94.334,415.777 96.907,412.767C100.146,414.33 103.71,415.613 107.541,416.514C117.677,418.897 121.62,416.772 122.618,416.189C123.57,415.631 127.7,413.365 128.4,409.586C128.475,409.181 128.504,408.772 128.498,408.359C138.881,416.799 144.296,420.959 148.253,419.572C151.655,418.379 153.597,414.471 154.709,410.965C155.871,411.126 157.103,411.291 158.415,411.466C172.635,413.365 179.8,414.245 182.541,410.877C186.335,406.216 182.734,397.228 181.742,394.751C179.585,389.367 176.267,386.092 174.205,384.099C171.529,381.511 163.9,374.135 151.89,373.151C149.279,372.937 146.934,373.101 144.544,373.601C143.712,372.84 142.833,372.093 141.866,371.385C140.022,370.034 138.202,369.034 136.242,368.253C139.248,364.959 142.262,361.676 145.291,358.407C145.77,358.625 146.225,358.836 146.643,359.03C156.564,363.638 158.744,368.15 168.285,370.525C172.613,371.603 177.514,372.823 178.727,370.988C180.882,367.73 171.734,354.322 157.598,345.251C158.551,344.242 159.506,343.236 160.462,342.229C161.754,342.771 162.893,343.3 163.864,343.751C173.785,348.358 175.964,352.87 185.505,355.246C189.833,356.323 194.734,357.543 195.947,355.709C197.87,352.802 190.794,341.811 179.207,333.032C182.39,332.021 186.61,330.901 192.076,331.045C200.366,331.263 206.842,334.27 210.686,336.056C220.607,340.663 222.787,345.175 232.327,347.551C236.656,348.628 241.556,349.848 242.769,348.014C245.973,343.17 224.212,315.877 198.181,313.782C196.161,313.619 194.344,313.633 192.703,313.754C192.476,313.379 192.229,312.993 191.97,312.6C200.777,312.883 217.978,310.365 232.618,320.644C236.839,323.607 245.04,330.579 258.764,336.307C263.151,338.138 265.357,339.038 265.964,338.286C268.139,335.595 250.057,313.449 224.618,302.539C214.532,298.213 208.301,297.804 203.868,298.459C204.551,297.68 205.217,296.876 205.858,296.069C215.764,286.354 225.794,276.741 235.915,267.256C235.425,268.771 235.441,269.578 235.976,270.166L235.976,270.166ZM108.858,391.081C97.67,387.459 84.122,389.405 80.589,393.526C80.091,389.873 79.658,386.216 79.302,382.551C84.399,385.398 89.717,386.16 99.807,387.507C104.104,388.081 107.747,388.559 110.828,388.857C111.242,389.979 111.683,390.989 112.195,391.954C112.255,392.066 112.318,392.173 112.379,392.284L112.29,392.385C111.141,391.887 109.989,391.447 108.858,391.081L108.858,391.081ZM79.132,342.012C79.451,340.953 79.458,339.825 79.214,338.663C79.562,334.453 79.997,330.255 80.511,326.07C80.498,326.711 80.701,327.352 80.978,328.047C84.088,335.859 92.493,343.357 103.949,347.246C106.086,347.972 107.919,348.429 109.498,348.709C108.803,349.92 108.271,351.099 107.918,352.19C104.013,349.053 98.985,346.771 93.281,349.192C91.729,349.851 90.808,352.26 90.007,355.142C84.738,355.233 80.334,356.332 78.237,358.192C78.249,357.416 78.245,356.642 78.265,355.865C78.384,351.436 78.602,347.022 78.909,342.621C78.993,342.424 79.069,342.221 79.132,342.012L79.132,342.012ZM78.252,364.792C78.479,365.257 78.728,365.719 78.986,366.181C78.752,366.008 78.512,365.822 78.266,365.621C78.259,365.345 78.257,365.068 78.252,364.792ZM87.249,421.477C86.636,421.396 86.017,421.338 85.392,421.303C83.949,414.142 82.617,406.985 81.502,399.815C84.434,404.468 89.219,408.728 95.314,411.958C92.609,415.123 89.927,418.299 87.249,421.477L87.249,421.477ZM134.471,367.618C130.656,366.393 126.178,365.806 119.982,365.087C118.412,362.904 116.793,361.296 115.596,360.14C114.948,359.513 113.953,358.27 112.664,356.816C116.004,355.744 120.989,353.834 128.033,354.019C134.435,354.187 139.748,356.018 143.609,357.666C140.551,360.97 137.507,364.289 134.471,367.618ZM156.095,344.313C152.346,342.047 148.28,340.108 143.999,338.744C144.415,338.741 144.822,338.728 145.254,338.74C150.562,338.879 155.121,340.163 158.727,341.537C157.849,342.462 156.971,343.386 156.095,344.313L156.095,344.313Z" style="fill:rgb(204,204,204);fill-rule:nonzero;"/>
    <defs>
        <linearGradient id="_Linear1" x1="0" y1="0" x2="1" y2="0" gradientUnits="userSpaceOnUse" gradientTransform="matrix(357,-334.635,334.635,357,348,596.768)"><stop offset="0" style="stop-color:rgb(126,53,89);stop-opacity:1"/><stop offset="0.4" style="stop-color:rgb(175,100,85);stop-opacity:1"/><stop offset="1" style="stop-color:rgb(250,171,78);stop-opacity:1"/></linearGradient>
        <linearGradient id="_Linear2" x1="0" y1="0" x2="1" y2="0" gradientUnits="userSpaceOnUse" gradientTransform="matrix(357,-334.635,334.635,357,348,596.768)"><stop offset="0" style="stop-color:rgb(126,53,89);stop-opacity:1"/><stop offset="0.4" style="stop-color:rgb(175,100,85);stop-opacity:1"/><stop offset="1" style="stop-color:rgb(250,171,78);stop-opacity:1"/></linearGradient>
        <linearGradient id="_Linear3" x1="0" y1="0" x2="1" y2="0" gradientUnits="userSpaceOnUse" gradientTransform="matrix(357,-334.635,334.635,357,348,596.768)"><stop offset="0" style="stop-color:rgb(126,53,89);stop-opacity:1"/><stop offset="0.4" style="stop-color:rgb(175,100,85);stop-opacity:1"/><stop offset="1" style="stop-color:rgb(250,171,78);stop-opacity:1"/></linearGradient>
        <linearGradient id="_Linear4" x1="0" y1="0" x2="1" y2="0" gradientUnits="userSpaceOnUse" gradientTransform="matrix(357,-334.635,334.635,357,348,596.768)"><stop offset="0" style="stop-color:rgb(126,53,89);stop-opacity:1"/><stop offset="0.4" style="stop-color:rgb(175,100,85);stop-opacity:1"/><stop offset="1" style="stop-color:rgb(250,171,78);stop-opacity:1"/></linearGradient>
    </defs>
</svg>
