<?xml version="1.0" encoding="UTF-8" standalone="no"?>
<!DOCTYPE svg PUBLIC "-//W3C//DTD SVG 1.1//EN" "http://www.w3.org/Graphics/SVG/1.1/DTD/svg11.dtd">
<svg width="100%" height="100%" viewBox="0 0 785 261" version="1.1" xmlns="http://www.w3.org/2000/svg" xmlns:xlink="http://www.w3.org/1999/xlink" xml:space="preserve" xmlns:serif="http://www.serif.com/" style="fill-rule:evenodd;clip-rule:evenodd;stroke-linejoin:round;stroke-miterlimit:2;">
    <g transform="matrix(1,0,0,1,-207.473,-319.401)">
        <path d="M326.441,478.691C320.534,478.696 314.668,477.701 309.094,475.746L308.679,475.601L309.021,474.002C298.932,454.241 302.416,427.082 317.92,404.75C332.024,384.433 353.504,369.643 372.453,356.597C374.827,354.962 377.643,354.086 380.525,354.086C388.332,354.086 394.757,360.511 394.757,368.318C394.757,369.252 394.665,370.183 394.482,371.099L387.783,404.724C382.906,429.209 377.107,452.38 359.944,466.785C350.485,474.496 338.645,478.704 326.441,478.691Z" style="fill:url(#_Linear1);fill-rule:nonzero;"/>
    </g>
    <g id="ffbc6c51-bae4-4fa4-8657-d565cf4c059e-2219" transform="matrix(1,0,0,1,-207.473,-319.401)">
        <path d="M313.563,560.805C310.055,535.252 306.447,509.369 308.913,483.543C311.098,460.605 318.096,438.206 332.343,419.833C339.905,410.101 349.107,401.762 359.535,395.192C362.253,393.476 364.756,397.784 362.049,399.493C344.009,410.894 330.049,427.737 322.193,447.579C313.516,469.648 312.123,493.706 313.617,517.149C314.521,531.326 316.441,545.41 318.369,559.478C318.683,560.791 317.917,562.139 316.628,562.542C315.311,562.897 313.934,562.114 313.564,560.801L313.563,560.805Z" style="fill:rgb(63,61,86);fill-rule:nonzero;"/>
    </g>
    <g transform="matrix(1,0,0,1,-207.473,-319.401)">
        <path d="M370.916,537.599C357.838,537.565 345.612,530.979 338.39,520.077L338.147,519.708L339.12,518.883C342.047,502.79 356.225,488.42 375.296,482.238C392.627,476.621 411.825,477.539 428.757,478.353C434.379,478.621 438.859,483.32 438.859,488.948C438.859,491.989 437.551,494.888 435.271,496.9L416.352,513.606C402.558,525.789 388.808,536.79 372.285,537.573C371.828,537.59 371.37,537.599 370.916,537.599Z" style="fill:url(#_Linear2);fill-rule:nonzero;"/>
    </g>
    <g id="aeb1fa48-cf11-4fd0-bcf3-ed4f5186d710-2220" transform="matrix(1,0,0,1,-207.473,-319.401)">
        <path d="M303.649,575.494C320.534,545.617 340.118,512.412 375.115,501.798C384.845,498.858 395.048,497.804 405.173,498.694C408.365,498.97 407.568,503.889 404.383,503.615C387.413,502.206 370.466,506.69 356.413,516.306C342.887,525.513 332.355,538.313 323.442,551.886C317.982,560.201 313.091,568.868 308.2,577.523C306.638,580.289 302.068,578.292 303.649,575.494Z" style="fill:rgb(63,61,86);fill-rule:nonzero;"/>
    </g>
    <g transform="matrix(1,0,0,1,-207.473,-319.401)">
        <path d="M477.299,535.904C474.718,535.907 472.154,535.471 469.718,534.617L469.303,534.472L469.482,533.636C465.137,525.023 466.661,513.235 473.389,503.545C479.505,494.733 488.799,488.335 496.997,482.69C498.069,481.952 499.341,481.557 500.642,481.557C504.168,481.557 507.069,484.458 507.069,487.983C507.069,488.405 507.027,488.826 506.945,489.239L504.054,503.752C501.938,514.372 499.42,524.424 491.942,530.699C487.808,534.07 482.633,535.91 477.299,535.904Z" style="fill:url(#_Linear3);fill-rule:nonzero;"/>
    </g>
    <g id="befe610e-f590-49ec-bffb-7dad48495fb9-2221" transform="matrix(1,0,0,1,-207.473,-319.401)">
        <path d="M471.741,571.061C470.227,560.032 468.67,548.861 469.734,537.714C470.678,527.815 473.698,518.147 479.847,510.217C483.111,506.017 487.082,502.418 491.583,499.582C492.756,498.842 493.836,500.701 492.668,501.439C484.882,506.359 478.857,513.629 475.466,522.193C471.721,531.717 471.12,542.101 471.765,552.219C472.155,558.338 472.983,564.417 473.815,570.488C473.951,571.055 473.62,571.637 473.064,571.81C472.496,571.964 471.902,571.626 471.742,571.059L471.741,571.061Z" style="fill:rgb(63,61,86);fill-rule:nonzero;"/>
    </g>
    <g transform="matrix(1,0,0,1,-207.473,-319.401)">
        <path d="M496.496,561.329C490.756,561.315 485.389,558.424 482.219,553.639L481.976,553.27L482.511,552.815C483.833,545.809 490.009,539.567 498.298,536.881C505.828,534.44 514.138,534.838 521.473,535.19C524.05,535.314 526.103,537.467 526.103,540.047C526.103,541.441 525.504,542.77 524.459,543.692L516.293,550.902C510.3,556.195 504.323,560.976 497.1,561.317C496.898,561.325 496.697,561.329 496.496,561.329Z" style="fill:url(#_Linear4);fill-rule:nonzero;"/>
    </g>
    <g id="b53d741b-ef59-4c7c-affc-95472d9c2a68-2222" transform="matrix(1,0,0,1,-207.473,-319.401)">
        <path d="M467.462,577.4C474.75,564.505 483.203,550.174 498.307,545.594C502.507,544.324 506.91,543.87 511.28,544.254C512.658,544.373 512.314,546.496 510.939,546.378C503.615,545.77 496.301,547.705 490.235,551.855C484.397,555.829 479.852,561.353 476.005,567.211C473.648,570.8 471.538,574.541 469.427,578.276C468.752,579.47 466.78,578.608 467.462,577.4Z" style="fill:rgb(63,61,86);fill-rule:nonzero;"/>
    </g>
    <g transform="matrix(1,0,0,1,-207.473,-319.401)">
        <path d="M898.666,534.938C890.018,534.938 883.426,530.268 878.651,520.821C874.074,511.765 878.821,503.945 885.169,500.513C891.531,497.072 900.692,497.382 905.771,506.186C910.721,514.765 911.289,523.656 907.46,532.617L907.649,533.497L907.2,533.626C904.43,534.459 901.558,534.9 898.666,534.938Z" style="fill:url(#_Linear5);fill-rule:nonzero;"/>
    </g>
    <g id="e8eb6681-5211-4dd4-9f94-0d3c8ea84ba4-2223" transform="matrix(1,0,0,1,-207.473,-319.401)">
        <path d="M907.205,579.061C911.627,554.047 911.906,522.366 887.362,507.582C886.19,506.842 885.11,508.701 886.278,509.439C909.975,523.771 909.271,554.377 905.13,578.488C905.11,578.57 905.1,578.653 905.1,578.737C905.1,579.327 905.586,579.813 906.177,579.813C906.646,579.813 907.063,579.507 907.204,579.059L907.205,579.061Z" style="fill:rgb(63,61,86);fill-rule:nonzero;"/>
    </g>
    <g transform="matrix(1,0,0,1,-207.473,-319.401)">
        <path d="M794.383,559.358C791.293,559.275 788.26,558.511 785.499,557.121C778.541,553.856 777.785,546.997 780.026,542.006C782.243,537.07 787.814,533.125 794.808,536.128C801.156,538.658 805.874,544.148 807.421,550.804L807.991,551.286L807.71,551.663C803.881,556.803 799.477,559.358 794.383,559.358Z" style="fill:url(#_Linear6);fill-rule:nonzero;"/>
    </g>
    <g id="a29d0e9a-5ecc-4f87-bdab-d30ce58fe09b-2224" transform="matrix(1,0,0,1,-207.473,-319.401)">
        <path d="M827.484,577.4C818.775,560.728 804.867,541.874 783.665,544.255C782.288,544.373 782.632,546.496 784.007,546.378C804.146,544.294 817.249,562.406 825.519,578.277C826.194,579.47 828.166,578.608 827.484,577.4Z" style="fill:rgb(63,61,86);fill-rule:nonzero;"/>
    </g>
    <g transform="matrix(1,0,0,1,-207.473,-319.401)">
        <path d="M991.473,580.242L208.473,580.242C207.924,580.242 207.473,579.791 207.473,579.242C207.473,578.693 207.924,578.242 208.473,578.242L991.473,578.242C992.022,578.242 992.473,578.693 992.473,579.242C992.473,579.791 992.022,580.242 991.473,580.242Z" style="fill:rgb(202,202,202);fill-rule:nonzero;"/>
    </g>
    <g transform="matrix(1,0,0,1,-207.473,-319.401)">
        <path d="M803.473,514.242L542.473,514.242C541.924,514.242 541.473,513.791 541.473,513.242C541.473,512.693 541.924,512.242 542.473,512.242L803.473,512.242C804.022,512.242 804.473,512.693 804.473,513.242C804.473,513.791 804.022,514.242 803.473,514.242Z" style="fill:rgb(202,202,202);fill-rule:nonzero;"/>
    </g>
    <g transform="matrix(1,0,0,1,-207.473,-319.401)">
        <path d="M676.659,346.33L674.941,324.939C674.53,323.787 673.433,323.013 672.21,323.013C671.459,323.013 670.737,323.304 670.197,323.826C656.405,327.21 650.84,334.41 649.246,343.453C642.628,342.05 635.824,341.744 629.107,342.547C633.955,335.646 633.621,328.613 628.578,321.46C628.208,320.241 627.077,319.402 625.803,319.402C625.083,319.402 624.388,319.67 623.855,320.154C614.527,324.869 608.002,330.745 606.951,338.887C586.78,349.704 574.146,370.815 574.146,393.704C574.146,427.828 602.225,455.907 636.349,455.907C670.473,455.907 698.552,427.828 698.552,393.704C698.552,375.478 690.541,358.142 676.659,346.33L676.659,346.33Z" style="fill:rgb(63,61,86);fill-rule:nonzero;"/>
    </g>
    <g transform="matrix(1,0,0,1,-207.473,-319.401)">
        <path d="M684.426,433.14C734.841,426.673 763.201,508.907 681.869,513.488C676.879,518.963 637.766,523.542 604.619,515.983C574.866,517.175 541.044,478.257 582.752,425.177L684.426,433.14Z" style="fill:rgb(63,61,86);fill-rule:nonzero;"/>
    </g>
    <path d="M426.623,156.172L426.623,197.774L446.073,197.774L461.505,155.413" style="fill:rgb(63,61,86);fill-rule:nonzero;"/>
    <g transform="matrix(1,0,0,1,-207.473,-319.401)">
        <path d="M703.574,503.145C703.467,502.992 703.389,502.831 703.296,502.674C702.468,502.704 701.639,502.735 700.811,502.765L703.574,503.145Z" style="fill:rgb(63,61,86);fill-rule:nonzero;"/>
    </g>
    <g transform="matrix(1,0,0,1,-207.473,-319.401)">
        <path d="M780.209,479.107C774,469.183 758.808,466.426 749.508,473.535C745.311,476.743 742.482,481.38 738.897,485.259C732.867,491.743 724.819,496.002 716.067,497.342C709.973,498.256 703.528,497.76 697.9,500.269C692.443,502.702 688.326,509.648 691.296,514.674C712.244,513.902 733.191,513.13 754.138,512.358C760.164,512.136 766.405,511.861 771.794,509.154C782.254,503.899 786.418,489.031 780.209,479.107Z" style="fill:rgb(63,61,86);fill-rule:nonzero;"/>
    </g>
    <g transform="matrix(1,0,0,1,-207.473,-319.401)">
        <path d="M631.565,450.362C622.962,450.44 614.434,448.739 606.519,445.364C589.994,438.191 582.42,426.085 582.106,425.574C582.034,425.455 581.997,425.32 581.997,425.182C581.997,424.766 582.339,424.423 582.755,424.423C583.016,424.423 583.259,424.558 583.398,424.779C589.384,433.281 597.63,439.941 607.2,444.006C622.081,450.439 647.493,453.663 684.045,432.484C684.161,432.416 684.292,432.381 684.426,432.381C684.842,432.381 685.185,432.723 685.185,433.139C685.185,433.41 685.04,433.66 684.806,433.796C663.349,446.229 645.633,450.362 631.565,450.362Z" style="fill:white;fill-rule:nonzero;"/>
    </g>
    <g transform="matrix(1,0,0,1,-207.473,-319.401)">
        <path d="M634.854,411.875C631.943,411.872 629.549,409.477 629.546,406.567C629.548,406.152 629.89,405.812 630.304,405.812C630.719,405.812 631.06,406.152 631.063,406.567C631.066,408.644 632.776,410.352 634.854,410.352C636.932,410.352 638.642,408.644 638.646,406.567C638.648,406.152 638.989,405.812 639.404,405.812C639.818,405.812 640.16,406.152 640.162,406.567C640.159,409.477 637.765,411.872 634.854,411.875Z" style="fill:white;fill-rule:nonzero;"/>
    </g>
    <ellipse cx="427.76" cy="77.687" rx="6.066" ry="2.333" style="fill:white;"/>
    <g transform="matrix(1,0,0,1,-207.473,-319.401)">
        <path d="M594.442,397.259C597.955,393.054 603.159,390.62 608.638,390.62C614.117,390.62 619.321,393.054 622.834,397.259C626.895,393.381 629.196,388.004 629.196,382.389C629.196,371.111 619.916,361.831 608.638,361.831C597.36,361.831 588.08,371.111 588.08,382.389C588.08,387.674 590.118,392.761 593.768,396.584C593.987,396.814 594.212,397.039 594.442,397.259Z" style="fill:white;fill-rule:nonzero;"/>
    </g>
    <g transform="matrix(1,0,0,1,-207.473,-319.401)">
        <path d="M649.95,397.259C653.462,393.054 658.667,390.62 664.145,390.62C669.624,390.62 674.829,393.054 678.341,397.259C682.403,393.381 684.703,388.004 684.703,382.389C684.703,371.111 675.423,361.831 664.145,361.831C652.867,361.831 643.587,371.111 643.587,382.389C643.587,387.674 645.625,392.761 649.275,396.584C649.495,396.814 649.719,397.039 649.95,397.259Z" style="fill:white;fill-rule:nonzero;"/>
    </g>
    <circle cx="392.152" cy="64.988" r="7.072" style="fill:rgb(63,61,86);"/>
    <circle cx="447.657" cy="64.988" r="7.072" style="fill:rgb(63,61,86);"/>
    <circle cx="457.334" cy="86.627" r="6.197" style="fill:rgb(255,101,132);"/>
    <circle cx="401.334" cy="86.627" r="6.197" style="fill:rgb(255,101,132);"/>
    <g transform="matrix(0.848604,-0.529028,0.529028,0.848604,-390.806,38.7932)">
        <ellipse cx="534.159" cy="499.411" rx="5.308" ry="15.924" style="fill:rgb(63,61,86);"/>
    </g>
    <path d="M360.474,142.389L326.686,177.977L335.496,193.148L367.393,174.088" style="fill:rgb(63,61,86);fill-rule:nonzero;"/>
    <g transform="matrix(0.14644,-0.98922,0.98922,0.14644,-205.331,733.654)">
        <ellipse cx="611.283" cy="525.286" rx="5.308" ry="15.924" style="fill:rgb(63,61,86);"/>
    </g>
    <path d="M397.024,155.777L402.261,204.569L419.496,208.148L425.659,171.033" style="fill:rgb(63,61,86);fill-rule:nonzero;"/>
    <g transform="matrix(0.994199,-0.107552,0.107552,0.994199,-259.6,-243.244)">
        <ellipse cx="679.97" cy="521.336" rx="15.924" ry="5.308" style="fill:rgb(63,61,86);"/>
    </g>
    <path d="M453.303,155.154L470.666,201.051L488.247,200.172L484.859,162.701" style="fill:rgb(63,61,86);fill-rule:nonzero;"/>
    <defs>
        <linearGradient id="_Linear1" x1="0" y1="0" x2="1" y2="0" gradientUnits="userSpaceOnUse" gradientTransform="matrix(711.152,-185,185,711.152,303.321,652.401)"><stop offset="0" style="stop-color:rgb(126,53,89);stop-opacity:1"/><stop offset="0.4" style="stop-color:rgb(175,100,85);stop-opacity:1"/><stop offset="1" style="stop-color:rgb(250,171,78);stop-opacity:1"/></linearGradient>
        <linearGradient id="_Linear2" x1="0" y1="0" x2="1" y2="0" gradientUnits="userSpaceOnUse" gradientTransform="matrix(711.152,-185,185,711.152,303.321,652.401)"><stop offset="0" style="stop-color:rgb(126,53,89);stop-opacity:1"/><stop offset="0.4" style="stop-color:rgb(175,100,85);stop-opacity:1"/><stop offset="1" style="stop-color:rgb(250,171,78);stop-opacity:1"/></linearGradient>
        <linearGradient id="_Linear3" x1="0" y1="0" x2="1" y2="0" gradientUnits="userSpaceOnUse" gradientTransform="matrix(711.152,-185,185,711.152,303.321,652.401)"><stop offset="0" style="stop-color:rgb(126,53,89);stop-opacity:1"/><stop offset="0.4" style="stop-color:rgb(175,100,85);stop-opacity:1"/><stop offset="1" style="stop-color:rgb(250,171,78);stop-opacity:1"/></linearGradient>
        <linearGradient id="_Linear4" x1="0" y1="0" x2="1" y2="0" gradientUnits="userSpaceOnUse" gradientTransform="matrix(711.152,-185,185,711.152,303.321,652.401)"><stop offset="0" style="stop-color:rgb(126,53,89);stop-opacity:1"/><stop offset="0.4" style="stop-color:rgb(175,100,85);stop-opacity:1"/><stop offset="1" style="stop-color:rgb(250,171,78);stop-opacity:1"/></linearGradient>
        <linearGradient id="_Linear5" x1="0" y1="0" x2="1" y2="0" gradientUnits="userSpaceOnUse" gradientTransform="matrix(711.152,-185,185,711.152,303.321,652.401)"><stop offset="0" style="stop-color:rgb(126,53,89);stop-opacity:1"/><stop offset="0.4" style="stop-color:rgb(175,100,85);stop-opacity:1"/><stop offset="1" style="stop-color:rgb(250,171,78);stop-opacity:1"/></linearGradient>
        <linearGradient id="_Linear6" x1="0" y1="0" x2="1" y2="0" gradientUnits="userSpaceOnUse" gradientTransform="matrix(711.152,-185,185,711.152,303.321,652.401)"><stop offset="0" style="stop-color:rgb(126,53,89);stop-opacity:1"/><stop offset="0.4" style="stop-color:rgb(175,100,85);stop-opacity:1"/><stop offset="1" style="stop-color:rgb(250,171,78);stop-opacity:1"/></linearGradient>
    </defs>
</svg>
