<?xml version="1.0" encoding="UTF-8" standalone="no"?>
<!DOCTYPE svg PUBLIC "-//W3C//DTD SVG 1.1//EN" "http://www.w3.org/Graphics/SVG/1.1/DTD/svg11.dtd">
<svg width="100%" height="100%" viewBox="0 0 789 601" version="1.1" xmlns="http://www.w3.org/2000/svg" xmlns:xlink="http://www.w3.org/1999/xlink" xml:space="preserve" xmlns:serif="http://www.serif.com/" style="fill-rule:evenodd;clip-rule:evenodd;stroke-linejoin:round;stroke-miterlimit:2;">
    <path d="M0,544.596C0,545.256 0.53,545.786 1.19,545.786L787.48,545.786C788.14,545.786 788.67,545.256 788.67,544.596C788.67,543.936 788.14,543.406 787.48,543.406L1.19,543.406C0.53,543.406 0,543.936 0,544.596Z" style="fill:rgb(63,61,86);fill-rule:nonzero;"/>
    <path d="M432.063,207.906L440.176,157.198L385.411,134.887L377.298,211.963L432.063,207.906Z" style="fill:rgb(160,97,106);fill-rule:nonzero;"/>
    <g>
        <circle cx="418.223" cy="117.652" r="55.847" style="fill:rgb(160,97,106);"/>
        <path d="M413.766,42.57C415.382,43.513 417.547,42.086 418.065,40.288C418.583,38.49 417.98,36.581 417.381,34.808C416.377,31.833 415.372,28.858 414.368,25.883C412.231,19.553 409.963,13.003 405.334,8.185C398.349,0.913 387.247,-0.937 377.253,0.404C364.418,2.125 351.755,9.074 345.788,20.566C339.82,32.058 342.361,48.094 353.144,55.264C337.776,72.878 332.419,92.509 333.265,115.87C334.11,139.231 359.568,160.73 376.17,177.187C379.877,174.939 383.248,164.407 381.209,160.581C379.17,156.755 382.091,152.322 379.566,148.798C377.041,145.273 374.929,150.885 377.482,147.381C379.093,145.17 372.806,140.082 375.2,138.759C386.781,132.357 390.633,117.922 397.906,106.868C406.679,93.535 421.695,84.506 437.585,83.008C446.338,82.182 455.584,83.677 462.759,88.759C469.934,93.841 474.579,102.922 472.915,111.555C477.224,107.18 479.369,100.768 478.56,94.681C477.751,88.594 474.006,82.965 468.703,79.867C471.927,69.206 469.166,56.943 461.683,48.693C454.2,40.443 423.846,41.848 412.922,44.019" style="fill:rgb(47,46,65);fill-rule:nonzero;"/>
        <path d="M412.07,83.331C397.601,84.893 387.154,97.426 378.332,109.001C373.248,115.672 367.922,123.039 368.05,131.426C368.179,139.906 373.848,147.179 376.558,155.215C380.986,168.35 376.67,183.978 366.128,192.978C376.545,194.955 387.806,187.144 389.604,176.694C391.698,164.53 382.476,152.79 383.569,140.495C384.531,129.663 393.067,121.326 400.323,113.228C407.58,105.129 414.396,94.381 411.057,84.032" style="fill:rgb(47,46,65);fill-rule:nonzero;"/>
    </g>
    <path d="M414.839,594.837C414.839,594.837 293.839,606.837 284.839,592.837C275.839,578.837 407.63,564.837 407.63,564.837L414.839,594.837Z" style="fill:rgb(160,97,106);fill-rule:nonzero;"/>
    <path d="M337.689,370.5L335.189,383.772C341.998,393.821 342.65,404.445 338.689,415.5L476.689,416.5C475.206,401.547 473.582,385.532 479.264,370.837L337.689,370.5Z" style="fill:rgb(160,97,106);fill-rule:nonzero;"/>
    <path d="M563.726,469.17L513.677,429.131C507.027,423.811 502.722,415.9 501.864,407.427L494.152,331.152L540.097,315.837L551.174,391.36L578.784,454.112L563.726,469.17L563.726,469.17Z" style="fill:rgb(160,97,106);fill-rule:nonzero;"/>
    <path d="M372.189,203L439.189,200L510.189,233.819L481.189,372L334.189,383L314.189,230L372.189,203Z" style="fill:url(#_Linear1);fill-rule:nonzero;"/>
    <path d="M479.264,403.837C489.331,417.107 493.558,449.057 497.839,480.837C497.839,480.837 311.839,479.837 310.839,479.837C309.839,479.837 339.264,412.837 339.264,412.837L479.264,403.837L479.264,403.837Z" style="fill:rgb(47,46,65);fill-rule:nonzero;"/>
    <path d="M485.339,472.36L497.839,480.837C497.839,480.837 674.839,468.837 659.839,524.837C644.839,580.837 597.839,589.837 597.839,589.837L407.839,600.837L405.839,569.837C405.839,569.837 222.839,610.837 205.839,526.837C188.839,442.837 310.839,479.837 310.839,479.837L485.339,472.36L485.339,472.36L485.339,472.36Z" style="fill:rgb(47,46,65);fill-rule:nonzero;"/>
    <path d="M410.654,538.837C410.654,538.837 414.839,516.837 444.839,525.837C474.839,534.837 491.839,546.837 491.839,546.837L419.839,564.837L410.654,538.837Z" style="fill:rgb(160,97,106);fill-rule:nonzero;"/>
    <path d="M485.689,231.5C485.689,231.5 519.689,219.5 532.689,258.5C545.689,297.5 542.689,329.5 542.689,329.5L492.689,345.5L485.689,231.5L485.689,231.5L485.689,231.5Z" style="fill:url(#_Linear2);fill-rule:nonzero;"/>
    <path d="M252.544,475.257L241.635,456.037L265.203,397.369L276.281,321.837L322.227,337.152L314.421,414.349C313.623,422.236 309.615,429.6 303.425,434.552L252.544,475.257L252.544,475.257Z" style="fill:rgb(160,97,106);fill-rule:nonzero;"/>
    <path d="M330.689,231.5C330.689,231.5 296.689,219.5 283.689,258.5C270.689,297.5 273.689,329.5 273.689,329.5L323.689,345.5L330.689,231.5L330.689,231.5Z" style="fill:url(#_Linear3);fill-rule:nonzero;"/>
    <ellipse cx="578.189" cy="442.5" rx="24" ry="35.5" style="fill:rgb(160,97,106);"/>
    <ellipse cx="241.189" cy="448.5" rx="24" ry="35.5" style="fill:rgb(160,97,106);"/>
    <path d="M332.839,507.837L419.839,532.837L436.839,562.837L404.328,569.837" style="fill:rgb(47,46,65);fill-rule:nonzero;"/>
    <defs>
        <linearGradient id="_Linear1" x1="0" y1="0" x2="1" y2="0" gradientUnits="userSpaceOnUse" gradientTransform="matrix(155,-167,167,155,330.689,383)"><stop offset="0" style="stop-color:rgb(126,53,89);stop-opacity:1"/><stop offset="0.4" style="stop-color:rgb(175,100,85);stop-opacity:1"/><stop offset="1" style="stop-color:rgb(250,171,78);stop-opacity:1"/></linearGradient>
        <linearGradient id="_Linear2" x1="0" y1="0" x2="1" y2="0" gradientUnits="userSpaceOnUse" gradientTransform="matrix(155,-167,167,155,330.689,383)"><stop offset="0" style="stop-color:rgb(126,53,89);stop-opacity:1"/><stop offset="0.4" style="stop-color:rgb(175,100,85);stop-opacity:1"/><stop offset="1" style="stop-color:rgb(250,171,78);stop-opacity:1"/></linearGradient>
        <linearGradient id="_Linear3" x1="0" y1="0" x2="1" y2="0" gradientUnits="userSpaceOnUse" gradientTransform="matrix(155,-167,167,155,330.689,383)"><stop offset="0" style="stop-color:rgb(126,53,89);stop-opacity:1"/><stop offset="0.4" style="stop-color:rgb(175,100,85);stop-opacity:1"/><stop offset="1" style="stop-color:rgb(250,171,78);stop-opacity:1"/></linearGradient>
    </defs>
</svg>
