<?xml version="1.0" encoding="UTF-8" standalone="no"?>
<!DOCTYPE svg PUBLIC "-//W3C//DTD SVG 1.1//EN" "http://www.w3.org/Graphics/SVG/1.1/DTD/svg11.dtd">
<svg width="100%" height="100%" viewBox="0 0 560 583" version="1.1" xmlns="http://www.w3.org/2000/svg" xmlns:xlink="http://www.w3.org/1999/xlink" xml:space="preserve" xmlns:serif="http://www.serif.com/" style="fill-rule:evenodd;clip-rule:evenodd;stroke-linejoin:round;stroke-miterlimit:2;">
    <g transform="matrix(1,0,0,1,-320.413,-158.75)">
        <path d="M833.267,657.097L807.653,680.677L828.009,646.522C811.972,617.44 785.743,592.306 785.743,592.306C785.743,592.306 731.328,644.44 731.328,685.421C731.328,726.401 755.691,740.71 785.743,740.71C815.796,740.71 840.158,726.401 840.158,685.421C840.158,676.299 837.458,666.626 833.267,657.097Z" style="fill:rgb(242,242,242);fill-rule:nonzero;"/>
    </g>
    <g transform="matrix(1,0,0,1,-320.413,-158.75)">
        <path d="M801.066,681.954L801.066,683.974C800.946,707.454 796.986,725.774 789.216,738.674C789.106,738.864 788.986,739.044 788.876,739.234L788.006,738.704L787.176,738.184C795.796,724.254 798.846,704.564 798.956,684.084C798.966,683.424 798.976,682.754 798.966,682.084C798.936,673.414 798.406,664.644 797.556,656.124C797.496,655.464 797.426,654.794 797.356,654.124C796.176,642.884 794.476,632.144 792.736,622.814C792.616,622.154 792.486,621.494 792.356,620.844C789.346,605.064 786.276,593.634 785.576,591.104C785.496,590.794 785.446,590.624 785.436,590.584L786.386,590.314L786.396,590.304L787.356,590.034C787.366,590.074 787.536,590.644 787.816,591.704C788.886,595.664 791.666,606.414 794.396,620.594C794.516,621.234 794.646,621.894 794.766,622.554C796.186,630.124 797.576,638.584 798.676,647.464C798.956,649.694 799.206,651.894 799.426,654.064C799.506,654.734 799.576,655.404 799.636,656.064C800.556,665.274 801.033,673.904 801.066,681.954Z" style="fill:white;fill-rule:nonzero;"/>
    </g>
    <g transform="matrix(1,0,0,1,-320.413,-158.75)">
        <path d="M794.396,620.594C793.726,620.684 793.046,620.774 792.356,620.844C790.483,621.037 788.6,621.133 786.716,621.134C778.689,621.144 770.76,619.354 763.516,615.894C763.096,616.424 762.676,616.954 762.246,617.494C769.867,621.213 778.237,623.143 786.716,623.134C788.727,623.133 790.737,623.026 792.736,622.814C793.416,622.744 794.096,622.654 794.766,622.554C800.297,621.76 805.675,620.132 810.716,617.724C810.286,617.174 809.866,616.634 809.456,616.104C804.685,618.334 799.61,619.847 794.396,620.594Z" style="fill:white;fill-rule:nonzero;"/>
    </g>
    <g transform="matrix(1,0,0,1,-320.413,-158.75)">
        <path d="M799.426,654.064C798.736,654.104 798.046,654.124 797.356,654.124C797.146,654.134 796.926,654.134 796.716,654.134C779.076,654.134 762.513,645.482 752.436,631.004C752.036,631.594 751.636,632.184 751.247,632.784C761.746,647.428 778.697,656.133 796.717,656.134C796.997,656.134 797.276,656.134 797.557,656.124C798.256,656.114 798.946,656.094 799.636,656.064C810.312,655.517 820.608,651.906 829.286,645.664C828.966,645.074 828.646,644.484 828.316,643.894C819.882,650.022 809.84,653.557 799.426,654.064Z" style="fill:white;fill-rule:nonzero;"/>
    </g>
    <g transform="matrix(1,0,0,1,-320.413,-158.75)">
        <path d="M801.066,681.954C800.366,682.014 799.666,682.054 798.966,682.084C798.216,682.114 797.466,682.134 796.716,682.134C772.778,682.106 751.571,666.191 744.856,643.214C744.406,644.024 743.956,644.824 743.526,645.634C751.084,668.532 772.603,684.108 796.716,684.134C797.466,684.134 798.216,684.124 798.956,684.084C799.666,684.064 800.366,684.024 801.066,683.974C815.201,682.868 828.399,676.426 837.966,665.964C837.756,665.224 837.516,664.494 837.276,663.754C828.036,674.294 815.039,680.827 801.066,681.954Z" style="fill:white;fill-rule:nonzero;"/>
    </g>
    <g id="f3dd3be3-e3f2-4729-8854-c6cb5bd65852-1290" transform="matrix(1,0,0,1,-320.413,-158.75)">
        <path d="M741.16,284.699L462.571,249.181C461.821,249.085 461.065,249.036 460.308,249.034C459.562,249.033 458.817,249.08 458.078,249.175C457.339,249.27 456.608,249.413 455.888,249.604C455.16,249.798 454.445,250.039 453.748,250.326C453.065,250.606 452.4,250.928 451.756,251.289C451.103,251.652 450.472,252.054 449.867,252.493C449.248,252.942 448.654,253.426 448.09,253.943C447.508,254.475 446.954,255.037 446.431,255.628C445.895,256.237 445.391,256.872 444.919,257.533C444.444,258.201 443.997,258.897 443.58,259.619C443.162,260.343 442.775,261.097 442.418,261.879C442.061,262.662 441.735,263.471 441.441,264.306C441.136,265.17 440.868,266.052 440.639,266.954C440.409,267.856 440.218,268.774 440.064,269.707C439.913,270.64 439.797,271.588 439.717,272.551C439.637,273.514 439.597,274.488 439.597,275.475C439.6,276.46 439.64,277.442 439.717,278.421C439.794,279.4 439.91,280.371 440.064,281.334C440.219,282.301 440.412,283.259 440.641,284.207C440.871,285.154 441.138,286.091 441.443,287.017C441.738,287.912 442.063,288.786 442.42,289.64C442.778,290.495 443.165,291.326 443.582,292.134C443.999,292.943 444.446,293.727 444.922,294.489C445.397,295.254 445.901,295.99 446.434,296.697C446.967,297.404 447.52,298.078 448.093,298.72C448.666,299.358 449.258,299.96 449.869,300.526C450.481,301.092 451.11,301.62 451.758,302.111C452.398,302.597 453.063,303.051 453.75,303.469C454.442,303.891 455.156,304.274 455.89,304.616C456.603,304.948 457.334,305.238 458.08,305.484C458.811,305.725 459.556,305.922 460.311,306.073C461.058,306.222 461.814,306.324 462.574,306.38L741.162,326.758C741.972,326.817 742.787,326.735 743.569,326.517C743.968,326.406 744.356,326.263 744.731,326.089C745.122,325.906 745.499,325.695 745.859,325.457C746.223,325.215 746.572,324.949 746.901,324.662C747.248,324.361 747.576,324.039 747.884,323.699C748.209,323.34 748.516,322.964 748.802,322.572C749.098,322.17 749.383,321.74 749.656,321.284C749.929,320.829 750.187,320.353 750.43,319.858C750.673,319.363 750.9,318.848 751.112,318.315C751.325,317.782 751.521,317.231 751.702,316.661C751.883,316.091 752.047,315.504 752.196,314.901C752.352,314.277 752.487,313.641 752.6,312.994C752.713,312.347 752.81,311.691 752.89,311.025C752.968,310.359 753.026,309.684 753.065,309C753.103,308.316 753.122,307.625 753.122,306.926C753.12,306.228 753.101,305.533 753.065,304.841C753.029,304.149 752.97,303.463 752.89,302.782C752.812,302.1 752.716,301.425 752.6,300.754C752.484,300.084 752.35,299.422 752.196,298.766C752.047,298.132 751.883,297.512 751.702,296.907C751.523,296.31 751.326,295.722 751.112,295.143C750.898,294.563 750.67,294.001 750.43,293.457C750.187,292.914 749.929,292.387 749.656,291.876C749.382,291.364 749.098,290.878 748.802,290.417C748.507,289.955 748.201,289.518 747.884,289.105C747.567,288.691 747.239,288.304 746.901,287.944C746.572,287.591 746.224,287.256 745.859,286.94C745.501,286.631 745.125,286.344 744.731,286.082C744.36,285.834 743.972,285.613 743.569,285.42C743.185,285.235 742.786,285.081 742.378,284.958C741.979,284.838 741.572,284.752 741.16,284.699" style="fill:url(#_Linear1);fill-rule:nonzero;"/>
    </g>
    <g id="f1003c66-3f14-4be1-907c-7cdab0d8529f-1291" transform="matrix(1,0,0,1,-320.413,-158.75)">
        <path d="M741.16,364.805L462.571,358.132C461.06,358.095 459.55,358.249 458.078,358.591C457.335,358.764 456.604,358.983 455.888,359.247C455.156,359.517 454.442,359.83 453.748,360.186C453.063,360.537 452.397,360.926 451.756,361.351C451.101,361.784 450.471,362.253 449.867,362.753C449.247,363.268 448.654,363.813 448.09,364.388C447.516,364.972 446.963,365.594 446.431,366.252C445.899,366.911 445.395,367.599 444.919,368.314C444.444,369.029 443.997,369.77 443.58,370.538C443.162,371.306 442.775,372.1 442.418,372.919C442.061,373.738 441.735,374.581 441.441,375.447C441.136,376.343 440.868,377.254 440.639,378.179C440.409,379.105 440.218,380.042 440.064,380.991C439.913,381.941 439.797,382.901 439.717,383.872C439.637,384.843 439.596,385.822 439.596,386.808C439.6,387.794 439.64,388.773 439.717,389.743C439.794,390.713 439.909,391.672 440.064,392.621C440.219,393.565 440.412,394.498 440.641,395.422C440.871,396.346 441.138,397.255 441.443,398.15C441.737,399.018 442.063,399.861 442.42,400.678C442.778,401.495 443.165,402.286 443.582,403.051C443.999,403.817 444.446,404.556 444.922,405.267C445.397,405.977 445.901,406.659 446.434,407.314C446.967,407.969 447.52,408.586 448.093,409.166C448.656,409.738 449.249,410.28 449.869,410.79C450.473,411.287 451.104,411.752 451.758,412.181C452.4,412.602 453.065,412.986 453.75,413.333C454.444,413.684 455.159,413.993 455.89,414.258C456.606,414.518 457.337,414.732 458.08,414.9C458.815,415.067 459.56,415.188 460.311,415.261C461.063,415.333 461.818,415.357 462.574,415.334L741.16,406.859C741.569,406.846 741.976,406.799 742.378,406.718C742.784,406.636 743.182,406.52 743.569,406.373C743.97,406.219 744.358,406.036 744.731,405.824C745.124,405.6 745.501,405.35 745.859,405.075C746.224,404.795 746.572,404.493 746.901,404.172C747.247,403.835 747.575,403.48 747.884,403.108C748.2,402.729 748.506,402.322 748.802,401.886C749.098,401.45 749.383,400.992 749.656,400.51C749.928,400.026 750.186,399.523 750.43,399.003C750.673,398.483 750.9,397.945 751.112,397.39C751.325,396.826 751.521,396.252 751.702,395.668C751.883,395.083 752.047,394.482 752.195,393.862C752.352,393.228 752.487,392.582 752.6,391.923C752.713,391.264 752.81,390.597 752.89,389.923C752.968,389.247 753.026,388.565 753.065,387.877C753.103,387.189 753.122,386.496 753.122,385.797C753.12,385.104 753.101,384.413 753.065,383.722C753.028,383.031 752.97,382.349 752.89,381.675C752.812,381 752.716,380.334 752.6,379.678C752.484,379.023 752.35,378.374 752.195,377.732C752.046,377.112 751.881,376.509 751.701,375.921C751.52,375.334 751.324,374.763 751.112,374.21C750.901,373.656 750.674,373.119 750.431,372.6C750.188,372.081 749.93,371.581 749.657,371.099C749.383,370.617 749.099,370.159 748.803,369.727C748.508,369.294 748.202,368.889 747.885,368.51C747.577,368.14 747.249,367.787 746.903,367.452C746.573,367.133 746.225,366.834 745.86,366.556C745.502,366.283 745.125,366.036 744.732,365.815C744.359,365.605 743.97,365.425 743.569,365.275C743.182,365.13 742.784,365.017 742.378,364.937C741.976,364.859 741.569,364.814 741.16,364.805" style="fill:rgb(228,228,228);fill-rule:nonzero;"/>
    </g>
    <g id="e5b3fa8a-e15d-46b1-859f-01f7147e98c8-1292" transform="matrix(1,0,0,1,-320.413,-158.75)">
        <path d="M741.16,439.903L462.571,460.278C461.811,460.333 461.055,460.436 460.308,460.585C459.553,460.735 458.809,460.932 458.078,461.173C457.331,461.419 456.6,461.709 455.888,462.041C455.154,462.383 454.439,462.766 453.748,463.188C453.061,463.607 452.396,464.06 451.756,464.546C451.107,465.041 450.478,465.57 449.867,466.131C449.256,466.696 448.664,467.298 448.09,467.937C447.516,468.577 446.963,469.251 446.431,469.961C445.899,470.672 445.395,471.409 444.919,472.171C444.444,472.932 443.997,473.717 443.58,474.525C443.162,475.334 442.775,476.166 442.418,477.019C442.061,477.873 441.735,478.748 441.441,479.642C441.136,480.567 440.868,481.504 440.639,482.453C440.409,483.402 440.218,484.359 440.064,485.322C439.913,486.286 439.797,487.258 439.717,488.236C439.637,489.214 439.597,490.196 439.597,491.183C439.6,492.169 439.64,493.144 439.717,494.107C439.794,495.07 439.91,496.018 440.064,496.951C440.219,497.887 440.412,498.805 440.641,499.705C440.871,500.606 441.138,501.488 441.443,502.354C441.738,503.19 442.063,503.999 442.42,504.78C442.778,505.563 443.165,506.316 443.582,507.041C443.999,507.766 444.446,508.461 444.922,509.127C445.393,509.787 445.898,510.423 446.434,511.031C446.956,511.622 447.51,512.185 448.093,512.717C448.657,513.233 449.25,513.718 449.869,514.167C450.475,514.605 451.105,515.007 451.758,515.371C452.402,515.732 453.067,516.054 453.75,516.334C454.447,516.62 455.162,516.862 455.89,517.056C456.61,517.247 457.342,517.39 458.08,517.485C458.82,517.58 459.565,517.627 460.311,517.625C461.067,517.624 461.823,517.575 462.574,517.479L741.16,481.969C741.572,481.916 741.979,481.83 742.378,481.71C742.786,481.587 743.185,481.433 743.569,481.248C743.972,481.055 744.36,480.834 744.731,480.586C745.125,480.324 745.501,480.037 745.859,479.728C746.224,479.412 746.572,479.077 746.901,478.724C747.235,478.363 747.563,477.976 747.884,477.564C748.2,477.151 748.506,476.714 748.802,476.251C749.098,475.789 749.383,475.303 749.656,474.792C749.928,474.285 750.186,473.758 750.43,473.211C750.673,472.663 750.9,472.102 751.112,471.526C751.325,470.947 751.521,470.355 751.702,469.75C751.883,469.145 752.047,468.525 752.196,467.891C752.352,467.235 752.487,466.572 752.6,465.902C752.713,465.232 752.81,464.556 752.89,463.874C752.968,463.193 753.026,462.507 753.065,461.815C753.103,461.123 753.122,460.428 753.122,459.729C753.119,459.034 753.1,458.344 753.063,457.661C753.027,456.977 752.969,456.302 752.889,455.636C752.812,454.968 752.716,454.31 752.6,453.663C752.484,453.016 752.35,452.381 752.196,451.756C752.047,451.152 751.883,450.565 751.702,449.996C751.524,449.427 751.328,448.876 751.113,448.342C750.899,447.809 750.672,447.294 750.431,446.799C750.186,446.308 749.927,445.834 749.653,445.376C749.38,444.919 749.095,444.49 748.8,444.088C748.514,443.697 748.207,443.321 747.881,442.962C747.573,442.622 747.245,442.3 746.899,441.999C746.569,441.711 746.221,441.446 745.857,441.204C745.497,440.966 745.12,440.754 744.729,440.572C744.354,440.398 743.965,440.255 743.567,440.144C742.784,439.925 741.97,439.844 741.16,439.903" style="fill:rgb(228,228,228);fill-rule:nonzero;"/>
    </g>
    <g id="bafb1f3d-b2ca-45c8-ab7e-ed03dda6d8fc-1293" transform="matrix(1,0,0,1,-320.413,-158.75)">
        <path d="M589.314,443.636C591.837,447.832 596.39,450.406 601.286,450.406C608.951,450.406 615.258,444.099 615.258,436.434C615.258,434.996 615.036,433.567 614.6,432.197L668.593,321.271L642.749,305.604L596.119,423.429C595.941,423.498 595.766,423.571 595.593,423.647C595.42,423.723 595.248,423.802 595.076,423.885C594.905,423.967 594.734,424.054 594.565,424.146C594.397,424.237 594.229,424.333 594.062,424.433C587.494,428.398 585.35,437.065 589.313,443.635L589.314,443.636Z" style="fill:rgb(158,97,106);fill-rule:nonzero;"/>
    </g>
    <g id="a23fb8c4-4f70-46f7-bb51-5893ecfd1d6a-1294" transform="matrix(1,0,0,1,-320.413,-158.75)">
        <path d="M658.287,364.045L619.929,354.214C619.929,354.214 621.182,351.383 623.217,346.692C625.253,342.002 628.096,335.462 631.295,328.037C634.494,320.611 638.044,312.315 641.511,304.114C644.977,295.912 648.349,287.81 651.189,280.786C654.028,273.763 657.254,269.557 660.496,267.199C663.179,265.16 666.561,264.261 669.901,264.699C672.499,265.086 674.981,266.031 677.179,267.469C678.219,268.116 679.197,268.859 680.1,269.686L688.993,285.859L658.287,364.045Z" style="fill:rgb(204,204,204);fill-rule:nonzero;"/>
    </g>
    <g id="bf4ad07a-caea-45f0-95a0-f5e060234fe8-1295" transform="matrix(1,0,0,1,-320.413,-158.75)">
        <path d="M351.315,355.26C350.386,355.329 349.462,355.449 348.546,355.621C347.625,355.794 346.714,356.017 345.817,356.291C344.907,356.569 344.013,356.896 343.138,357.27C342.242,357.654 341.368,358.084 340.517,358.558C339.685,359.026 338.872,359.535 338.077,360.085C337.283,360.635 336.511,361.225 335.762,361.857C335.014,362.487 334.289,363.158 333.585,363.872C332.881,364.585 332.203,365.338 331.55,366.129C330.898,366.92 330.28,367.74 329.695,368.588C329.111,369.436 328.563,370.31 328.051,371.21C327.544,372.111 327.07,373.037 326.628,373.987C326.187,374.937 325.786,375.909 325.424,376.904C325.048,377.935 324.719,378.977 324.436,380.03C324.154,381.083 323.918,382.144 323.73,383.215C323.54,384.285 323.398,385.363 323.303,386.448C323.209,387.533 323.161,388.622 323.161,389.716C323.161,390.81 323.209,391.89 323.303,392.955C323.398,394.021 323.54,395.07 323.73,396.103C323.918,397.136 324.154,398.15 324.436,399.146C324.719,400.142 325.047,401.118 325.421,402.073C325.785,402.995 326.186,403.887 326.625,404.749C327.058,405.602 327.533,406.433 328.05,407.238C328.558,408.028 329.107,408.792 329.694,409.525C330.276,410.254 330.895,410.952 331.55,411.616C332.195,412.269 332.874,412.886 333.585,413.465C334.281,414.032 335.008,414.56 335.763,415.046C337.254,416.005 338.849,416.79 340.518,417.386C342.229,417.997 344.008,418.401 345.815,418.589C346.721,418.683 347.632,418.723 348.544,418.71C349.47,418.697 350.394,418.631 351.312,418.514C352.239,418.395 353.158,418.226 354.066,418.007C354.977,417.786 355.875,417.517 356.757,417.199C357.648,416.877 358.522,416.509 359.375,416.095C360.244,415.674 361.091,415.208 361.913,414.701C362.713,414.202 363.492,413.667 364.25,413.095C365.009,412.524 365.743,411.915 366.454,411.268C367.165,410.621 367.852,409.939 368.514,409.222C369.176,408.504 369.812,407.752 370.423,406.964C371.038,406.176 371.616,405.365 372.159,404.531C372.701,403.696 373.209,402.84 373.683,401.961C374.156,401.082 374.594,400.183 374.997,399.263C375.4,398.344 375.767,397.405 376.099,396.446C376.442,395.455 376.743,394.454 377,393.445C377.258,392.437 377.473,391.421 377.646,390.398C377.817,389.374 377.947,388.344 378.033,387.31C378.12,386.276 378.163,385.237 378.163,384.193C378.162,383.15 378.119,382.12 378.033,381.102C377.947,380.085 377.818,379.082 377.646,378.093C377.474,377.106 377.259,376.133 377,375.175C376.742,374.217 376.441,373.277 376.099,372.355C375.766,371.462 375.399,370.597 374.997,369.758C374.59,368.922 374.15,368.111 373.677,367.324C372.739,365.77 371.65,364.313 370.423,362.975C369.821,362.317 369.186,361.691 368.519,361.098C367.862,360.517 367.175,359.972 366.459,359.465C365.751,358.963 365.015,358.5 364.255,358.079C363.496,357.659 362.714,357.281 361.913,356.948C360.258,356.259 358.528,355.768 356.758,355.485C355.867,355.343 354.969,355.254 354.068,355.217C353.15,355.18 352.23,355.195 351.314,355.263" style="fill:rgb(228,228,228);fill-rule:nonzero;"/>
    </g>
    <g id="b68b3c2d-1cd9-4a2b-b264-66241f72f014-1296" transform="matrix(1,0,0,1,-320.413,-158.75)">
        <path d="M351.315,468.413C350.386,468.481 349.462,468.602 348.546,468.774C347.625,468.946 346.714,469.17 345.817,469.443C344.907,469.721 344.013,470.048 343.138,470.423C342.242,470.806 341.368,471.236 340.517,471.711C339.685,472.179 338.872,472.687 338.077,473.237C337.283,473.787 336.511,474.378 335.762,475.009C335.014,475.639 334.289,476.311 333.585,477.024C332.881,477.738 332.203,478.49 331.55,479.281C330.898,480.072 330.28,480.892 329.695,481.74C329.111,482.589 328.563,483.463 328.051,484.362C327.544,485.263 327.07,486.189 326.628,487.139C326.187,488.089 325.786,489.062 325.424,490.056C325.048,491.087 324.719,492.129 324.436,493.182C324.154,494.235 323.918,495.297 323.73,496.367C323.54,497.438 323.398,498.515 323.303,499.6C323.209,500.685 323.161,501.775 323.161,502.869C323.161,503.962 323.209,505.042 323.303,506.108C323.398,507.174 323.54,508.223 323.73,509.256C323.918,510.288 324.154,511.303 324.436,512.299C324.719,513.295 325.047,514.27 325.421,515.225C325.785,516.147 326.186,517.039 326.625,517.901C327.058,518.754 327.533,519.585 328.05,520.39C328.558,521.18 329.107,521.944 329.694,522.677C330.276,523.407 330.895,524.105 331.55,524.768C332.195,525.421 332.874,526.038 333.585,526.617C334.281,527.184 335.008,527.712 335.763,528.198C337.254,529.157 338.849,529.942 340.518,530.538C342.229,531.149 344.008,531.553 345.815,531.742C346.721,531.835 347.632,531.875 348.544,531.862C349.47,531.849 350.394,531.784 351.312,531.666C352.239,531.548 353.158,531.379 354.066,531.159C354.977,530.939 355.875,530.669 356.757,530.351C357.648,530.03 358.522,529.661 359.375,529.248C360.244,528.826 361.091,528.361 361.913,527.854C362.713,527.354 363.492,526.819 364.25,526.248C365.009,525.676 365.743,525.067 366.454,524.421C367.165,523.774 367.852,523.092 368.514,522.374C369.176,521.657 369.812,520.904 370.423,520.116C371.038,519.329 371.616,518.518 372.159,517.683C372.701,516.849 373.209,515.992 373.683,515.113C374.156,514.234 374.594,513.335 374.997,512.416C375.4,511.496 375.767,510.557 376.099,509.599C376.442,508.607 376.743,507.607 377,506.598C377.258,505.589 377.473,504.573 377.646,503.55C377.817,502.526 377.947,501.497 378.033,500.462C378.12,499.428 378.163,498.389 378.163,497.346C378.162,496.303 378.119,495.272 378.033,494.255C377.947,493.237 377.818,492.234 377.646,491.245C377.474,490.258 377.259,489.286 377,488.327C376.742,487.369 376.441,486.429 376.099,485.507C375.766,484.615 375.399,483.749 374.997,482.91C374.59,482.074 374.15,481.263 373.677,480.476C372.739,478.922 371.65,477.465 370.423,476.127C369.821,475.469 369.186,474.843 368.519,474.251C367.862,473.67 367.175,473.124 366.459,472.617C365.751,472.115 365.015,471.653 364.255,471.232C363.496,470.811 362.714,470.433 361.913,470.1C360.258,469.411 358.528,468.92 356.758,468.638C355.867,468.496 354.969,468.406 354.068,468.369C353.15,468.332 352.23,468.347 351.314,468.415" style="fill:rgb(228,228,228);fill-rule:nonzero;"/>
    </g>
    <g id="a5644fa4-417a-45bc-a470-f5aa82f96b47-1297" transform="matrix(1,0,0,1,-320.413,-158.75)">
        <path d="M351.32,232.68C350.396,232.658 349.471,232.688 348.551,232.77C347.634,232.853 346.723,232.988 345.822,233.175C344.916,233.364 344.021,233.605 343.143,233.897C342.25,234.192 341.375,234.538 340.522,234.931C339.687,235.316 338.872,235.745 338.082,236.215C337.284,236.691 336.511,237.208 335.767,237.763C335.011,238.328 334.284,238.931 333.588,239.569C332.881,240.218 332.202,240.906 331.55,241.634C330.898,242.361 330.28,243.121 329.695,243.913C329.111,244.705 328.563,245.526 328.051,246.376C327.541,247.237 327.066,248.12 326.625,249.023C326.183,249.927 325.782,250.86 325.421,251.823C325.047,252.816 324.719,253.825 324.436,254.851C324.154,255.876 323.918,256.915 323.73,257.967C323.54,259.022 323.398,260.087 323.303,261.159C323.209,262.232 323.161,263.316 323.161,264.41C323.161,265.502 323.209,266.585 323.303,267.66C323.398,268.734 323.54,269.797 323.73,270.848C323.918,271.9 324.154,272.937 324.436,273.96C324.719,274.983 325.047,275.99 325.421,276.982C325.785,277.939 326.186,278.87 326.625,279.774C327.066,280.675 327.543,281.55 328.055,282.397C328.567,283.245 329.115,284.062 329.699,284.849C330.282,285.639 330.901,286.395 331.554,287.117C332.207,287.839 332.885,288.521 333.588,289.163C334.28,289.799 335.004,290.4 335.756,290.962C336.501,291.513 337.273,292.024 338.071,292.494C338.861,292.96 339.676,293.384 340.511,293.763C341.365,294.151 342.24,294.491 343.132,294.78C344.887,295.348 346.702,295.712 348.54,295.864C350.381,296.016 352.233,295.96 354.062,295.696C354.968,295.565 355.866,295.383 356.752,295.15C357.64,294.916 358.514,294.632 359.37,294.3C360.236,293.964 361.083,293.581 361.908,293.153C362.711,292.735 363.493,292.277 364.25,291.779C365.011,291.278 365.747,290.74 366.454,290.165C367.165,289.587 367.852,288.972 368.514,288.318C369.176,287.665 369.812,286.974 370.423,286.246C371.038,285.517 371.616,284.762 372.159,283.98C372.701,283.198 373.209,282.391 373.683,281.558C374.158,280.725 374.596,279.869 374.997,278.988C375.399,278.108 375.766,277.206 376.099,276.283C376.442,275.325 376.743,274.354 377,273.37C377.258,272.386 377.473,271.391 377.646,270.385C377.817,269.375 377.946,268.356 378.033,267.33C378.12,266.303 378.163,265.269 378.163,264.225C378.162,263.183 378.119,262.149 378.033,261.122C377.947,260.096 377.818,259.08 377.646,258.075C377.474,257.07 377.259,256.076 377,255.093C376.742,254.11 376.441,253.14 376.099,252.184C375.766,251.261 375.399,250.36 374.997,249.482C374.596,248.604 374.156,247.749 373.677,246.917C373.203,246.092 372.695,245.289 372.153,244.509C371.61,243.729 371.034,242.978 370.423,242.256C369.816,241.534 369.182,240.849 368.519,240.199C367.856,239.549 367.169,238.937 366.459,238.365C365.752,237.794 365.017,237.259 364.256,236.762C363.499,236.269 362.717,235.815 361.914,235.403C361.089,234.979 360.242,234.602 359.376,234.271C358.52,233.945 357.646,233.667 356.758,233.438C355.872,233.211 354.974,233.034 354.068,232.909C353.155,232.783 352.235,232.709 351.313,232.687M351.313,229.675C355.357,229.786 359.323,230.813 362.913,232.678C366.48,234.543 369.642,237.097 372.215,240.193C374.905,243.418 377.001,247.097 378.403,251.056C381.405,259.577 381.405,268.873 378.403,277.393C376.999,281.364 374.904,285.055 372.215,288.297C369.642,291.407 366.48,293.979 362.912,295.867C359.327,297.754 355.361,298.807 351.312,298.945C347.238,299.079 343.188,298.271 339.477,296.586C335.73,294.87 332.378,292.398 329.632,289.326C326.715,286.073 324.432,282.303 322.9,278.211C319.584,269.304 319.584,259.495 322.9,250.588C324.433,246.484 326.716,242.7 329.632,239.429C332.378,236.34 335.729,233.848 339.477,232.106C343.185,230.397 347.238,229.563 351.32,229.671L351.313,229.675Z" style="fill:url(#_Linear2);fill-rule:nonzero;"/>
    </g>
    <g id="aeea3032-7d6f-43a2-9023-7da5e46a69d9-1298" transform="matrix(1,0,0,1,-320.413,-158.75)">
        <path d="M351.317,272.824L341.835,253.07L344.086,251.604L351.896,267.832L384.689,229.288L386.674,231.403L351.317,272.824Z" style="fill:url(#_Linear3);fill-rule:nonzero;"/>
    </g>
    <g id="b65364ff-7d92-487e-8061-939b37583c0d">
        <g id="efb13e16-1633-4e88-9f48-a8cd4f1f0a11-1299" transform="matrix(1,0,0,1,-320.413,-158.75)">
            <path d="M696.403,662.811L672.93,662.719L680.499,724.054L696.403,724.133L696.403,662.811Z" style="fill:rgb(158,97,106);fill-rule:nonzero;"/>
        </g>
        <g id="b5b13dc0-906f-47cb-af24-0252d232cfd5-1300" transform="matrix(1,0,0,1,-320.413,-158.75)">
            <path d="M700.458,739.567L649.205,739.296L649.205,738.648C649.204,737.333 649.332,736.02 649.588,734.73C650.092,732.184 651.096,729.764 652.543,727.61C654.012,725.426 655.896,723.552 658.086,722.094C660.248,720.657 662.673,719.663 665.221,719.17C666.513,718.922 667.826,718.801 669.142,718.809L700.458,718.963L700.458,739.567Z" style="fill:rgb(47,46,65);fill-rule:nonzero;"/>
        </g>
    </g>
    <g id="b7f9c824-5877-4162-b4d5-ccd00fd098dd">
        <g id="a1d436e5-b88b-4a37-a10d-47f639496f81-1301" transform="matrix(1,0,0,1,-320.413,-158.75)">
            <path d="M621.245,662.519L597.839,662.428L605.384,723.679L621.245,723.759L621.245,662.519Z" style="fill:rgb(158,97,106);fill-rule:nonzero;"/>
        </g>
        <g id="aa34d611-dd92-4168-ad92-5f109db8b699-1302" transform="matrix(1,0,0,1,-320.413,-158.75)">
            <path d="M625.289,739.168L574.171,738.9L574.171,738.252C574.17,736.939 574.299,735.628 574.554,734.34C575.056,731.798 576.058,729.381 577.5,727.229C578.965,725.048 580.844,723.176 583.03,721.719C585.186,720.284 587.605,719.293 590.147,718.802C591.436,718.554 592.746,718.433 594.058,718.441L625.289,718.594L625.289,739.168Z" style="fill:rgb(47,46,65);fill-rule:nonzero;"/>
        </g>
    </g>
    <g id="a2716e79-bed1-4374-9a2b-fced6059ca2b-1303" transform="matrix(1,0,0,1,-320.413,-158.75)">
        <path d="M620.25,411.829L580.891,558.713L595.298,699.512L627.197,700.392L620.251,573.258L660.046,509.813L668.677,701.257L697.613,699.211L713.709,534.608C719.176,521.755 723.186,508.33 725.662,494.584C727.609,483.795 728.555,472.848 728.49,461.885C728.457,454.504 727.89,447.135 726.793,439.836C726.401,437.115 725.87,434.417 725.203,431.751L713.467,419.855L620.25,411.829Z" style="fill:rgb(47,46,65);fill-rule:nonzero;"/>
    </g>
    <g transform="matrix(1,0,0,1,-320.413,-158.75)">
        <path d="M672.398,436.396C665.779,436.396 659.568,436.183 653.936,435.764C648.183,435.369 642.461,434.616 636.802,433.508C631.984,432.608 627.292,431.131 622.827,429.108C619.233,427.556 616.107,425.089 613.762,421.955L613.494,421.564L624.252,351.551L635.853,272.83C637.426,262.098 646.902,254.162 657.744,254.497L694.077,255.61C705.007,255.945 713.816,265.028 713.816,275.964C713.816,276.377 713.803,276.79 713.778,277.202L709.009,355.491L726.602,432.715L725.356,432.889C724.855,432.956 722.924,433.21 719.899,433.551C715.946,433.995 711.91,434.396 707.902,434.741C702.232,435.23 696.684,435.614 691.411,435.884C684.725,436.225 678.316,436.39 672.398,436.396Z" style="fill:rgb(204,204,204);fill-rule:nonzero;"/>
    </g>
    <g id="ad5d6a80-02ce-46d1-bab9-e92b7dd0c553-1304" transform="matrix(1,0,0,1,-320.413,-158.75)">
        <path d="M652.236,240.585C652.227,240.585 652.217,240.585 652.207,240.585C649.024,240.583 646.406,237.963 646.406,234.781C646.406,234.779 646.406,234.778 646.406,234.777L646.406,202.384C646.401,196.581 647.562,190.835 649.821,185.49C654.244,175.061 662.528,166.734 672.933,162.257C678.328,159.943 684.137,158.75 690.007,158.75C713.743,158.75 733.285,178.261 733.322,201.997L733.322,234.439C733.323,235.219 733.166,235.992 732.862,236.711C732.266,238.114 731.15,239.232 729.749,239.832C729.03,240.138 728.257,240.298 727.475,240.3L652.231,240.585L652.236,240.585Z" style="fill:rgb(47,46,65);fill-rule:nonzero;"/>
    </g>
    <g id="b726e025-86c8-4394-a2c8-021cc2286f1b-1305" transform="matrix(1,0,0,1,-320.413,-158.75)">
        <path d="M709.487,191.275C712.06,195.976 713.41,201.25 713.41,206.609C713.41,224.126 698.996,238.54 681.479,238.54C678.462,238.54 675.461,238.112 672.564,237.27C664.462,234.942 657.621,229.461 653.581,222.062C651.015,217.367 649.67,212.101 649.67,206.75C649.67,189.234 664.084,174.82 681.601,174.82C684.604,174.82 687.593,175.244 690.478,176.079C698.588,178.398 705.439,183.876 709.487,191.276L709.487,191.275Z" style="fill:rgb(158,97,106);fill-rule:nonzero;"/>
    </g>
    <g id="f57fd208-21ef-4a3c-a796-e350b3c4ef74-1306" transform="matrix(1,0,0,1,-320.413,-158.75)">
        <path d="M636.132,205.02C636.128,200.431 637.047,195.886 638.834,191.659C642.331,183.413 648.882,176.828 657.11,173.29C661.333,171.48 665.877,170.539 670.472,170.521L676.955,170.488C677.028,170.488 677.101,170.488 677.174,170.488C695.92,170.499 711.339,185.928 711.339,204.674C711.339,204.681 711.339,204.688 711.339,204.695L711.339,205.344L697.624,205.4L692.947,192.334L692.012,205.425L684.928,205.456L682.569,198.864L682.096,205.464L636.138,205.67L636.132,205.02Z" style="fill:rgb(47,46,65);fill-rule:nonzero;"/>
    </g>
    <g id="a4aedf3a-b803-468c-96e6-3db664c8a6b9-1307" transform="matrix(1,0,0,1,-320.413,-158.75)">
        <path d="M580.916,273.165C578.806,273.681 576.832,274.648 575.131,276C573.802,277.052 572.665,278.326 571.772,279.767C570.01,282.617 569.233,285.969 569.562,289.304C569.728,290.989 570.185,292.632 570.913,294.161C573.365,299.369 578.627,302.707 584.383,302.707C587.181,302.707 589.924,301.918 592.294,300.431C592.425,300.347 592.556,300.26 592.685,300.173C592.814,300.086 592.94,299.996 593.065,299.906C593.19,299.814 593.313,299.722 593.433,299.628C593.554,299.534 593.674,299.438 593.793,299.342L669.476,326.278C674.246,327.974 679.601,326.302 682.557,322.192L700.5,297.349L678.807,282.741L667.423,295.673L598.16,281.895C598.085,281.716 598.006,281.537 597.926,281.36C597.845,281.182 597.76,281.005 597.672,280.829C597.583,280.653 597.49,280.479 597.395,280.305C597.301,280.131 597.2,279.959 597.094,279.788C593.713,274.325 587.158,271.641 580.916,273.165Z" style="fill:rgb(158,97,106);fill-rule:nonzero;"/>
    </g>
    <g id="f92404ba-5ab9-4b2c-8e33-361dae08dca6-1308" transform="matrix(1,0,0,1,-320.413,-158.75)">
        <path d="M668.644,287.518C670.908,284.692 674.073,281.024 677.289,277.385C680.505,273.747 683.769,270.141 686.231,267.443C688.693,264.745 690.349,262.957 690.349,262.957C693.648,257.969 699.245,254.961 705.225,254.961C715.009,254.961 723.06,263.011 723.06,272.795C723.06,273.909 722.955,275.02 722.748,276.114C722.31,278.444 721.405,280.661 720.088,282.632C718.771,284.603 717.619,285.863 713.892,290.686C710.165,295.509 705.178,301.928 700.148,308.311C695.119,314.693 690.04,321.043 686.123,325.729C682.207,330.416 679.451,333.444 679.063,333.185L665.403,292.58C665.015,292.32 666.38,290.343 668.644,287.518Z" style="fill:rgb(204,204,204);fill-rule:nonzero;"/>
    </g>
    <g id="ed7e3964-87ca-4ccc-8578-c3f29353ddd2-1309" transform="matrix(1,0,0,1,-320.413,-158.75)">
        <path d="M676.752,239.564C676.537,240.611 676.62,241.698 676.993,242.7C677.179,243.213 677.437,243.697 677.758,244.139C678.033,244.515 678.351,244.857 678.707,245.158C679.759,246.047 681.094,246.533 682.472,246.527C682.558,246.526 682.644,246.524 682.73,246.52C682.815,246.516 682.901,246.51 682.987,246.502C683.074,246.494 683.16,246.485 683.246,246.473C683.332,246.461 683.418,246.447 683.505,246.432L688.373,245.547L695.078,231.222L695.078,244.343L717.21,240.359L717.21,184.679L680.107,184.858L681.024,185.923C684.068,189.497 686.068,193.843 686.802,198.48C687.522,203.178 687.431,207.964 686.535,212.63C685.663,217.353 684.34,221.98 682.584,226.449C681.049,230.409 679.287,234.276 677.307,238.033C677.051,238.515 676.864,239.03 676.752,239.564Z" style="fill:rgb(47,46,65);fill-rule:nonzero;"/>
    </g>
    <g transform="matrix(1,0,0,1,-320.413,-158.75)">
        <path d="M419.755,741.25L878.384,741.25C879.044,741.25 879.587,740.707 879.587,740.046C879.587,739.386 879.044,738.843 878.384,738.843L419.755,738.843C419.095,738.843 418.552,739.386 418.552,740.046C418.552,740.707 419.095,741.25 419.755,741.25Z" style="fill:rgb(202,202,202);fill-rule:nonzero;"/>
    </g>
    <defs>
        <linearGradient id="_Linear1" x1="0" y1="0" x2="1" y2="0" gradientUnits="userSpaceOnUse" gradientTransform="matrix(410.71,-130,130,410.71,342.413,358.75)"><stop offset="0" style="stop-color:rgb(126,53,89);stop-opacity:1"/><stop offset="0.4" style="stop-color:rgb(175,100,85);stop-opacity:1"/><stop offset="1" style="stop-color:rgb(250,171,78);stop-opacity:1"/></linearGradient>
        <linearGradient id="_Linear2" x1="0" y1="0" x2="1" y2="0" gradientUnits="userSpaceOnUse" gradientTransform="matrix(410.71,-130,130,410.71,342.413,358.75)"><stop offset="0" style="stop-color:rgb(126,53,89);stop-opacity:1"/><stop offset="0.4" style="stop-color:rgb(175,100,85);stop-opacity:1"/><stop offset="1" style="stop-color:rgb(250,171,78);stop-opacity:1"/></linearGradient>
        <linearGradient id="_Linear3" x1="0" y1="0" x2="1" y2="0" gradientUnits="userSpaceOnUse" gradientTransform="matrix(410.71,-130,130,410.71,342.413,358.75)"><stop offset="0" style="stop-color:rgb(126,53,89);stop-opacity:1"/><stop offset="0.4" style="stop-color:rgb(175,100,85);stop-opacity:1"/><stop offset="1" style="stop-color:rgb(250,171,78);stop-opacity:1"/></linearGradient>
    </defs>
</svg>
