<?xml version="1.0" encoding="UTF-8" standalone="no"?>
<!DOCTYPE svg PUBLIC "-//W3C//DTD SVG 1.1//EN" "http://www.w3.org/Graphics/SVG/1.1/DTD/svg11.dtd">
<svg width="100%" height="100%" viewBox="0 0 642 627" version="1.1" xmlns="http://www.w3.org/2000/svg" xmlns:xlink="http://www.w3.org/1999/xlink" xml:space="preserve" xmlns:serif="http://www.serif.com/" style="fill-rule:evenodd;clip-rule:evenodd;stroke-linejoin:round;stroke-miterlimit:2;">
    <g>
        <path d="M198.101,459.506L117.744,459.506C115.718,459.506 114.07,457.857 114.07,455.832C114.07,453.806 115.718,452.158 117.744,452.158L198.101,452.158C200.127,452.158 201.775,453.806 201.775,455.832C201.775,457.857 200.127,459.506 198.101,459.506L198.101,459.506L198.101,459.506Z" style="fill:url(#_Linear1);fill-rule:nonzero;"/>
        <path d="M54.588,479.173C54.588,479.833 55.118,480.363 55.778,480.363L260.068,480.363C260.728,480.363 261.258,479.833 261.258,479.173C261.258,478.513 260.728,477.983 260.068,477.983L55.778,477.983C55.118,477.983 54.588,478.513 54.588,479.173Z" style="fill:rgb(63,61,86);fill-rule:nonzero;"/>
    </g>
    <circle cx="485.607" cy="174.403" r="65" style="fill:rgb(255,104,132);"/>
    <path d="M0,561.308C0,561.968 0.53,562.498 1.19,562.498L523.48,562.498C524.14,562.498 524.67,561.968 524.67,561.308C524.67,560.648 524.14,560.118 523.48,560.118L1.19,560.118C0.53,560.118 0,560.648 0,561.308Z" style="fill:rgb(63,61,86);fill-rule:nonzero;"/>
    <g>
        <path d="M7.555,480.947L5.884,479.116L168.948,330.32L227.697,356.656L291.137,247.862L343.259,222.738L391.552,303.226C417.624,235.727 483.011,165.108 561.362,93.46L563.289,95.02C489.804,165.375 426.931,236.048 391.249,307.541L346.58,232.874C344.47,229.346 340.035,227.984 336.309,229.718L336.309,229.718C307.818,242.974 284.054,264.613 268.194,291.741L228.455,359.712L219.383,355.645C189.045,342.046 153.529,347.746 128.97,370.156L7.555,480.947Z" style="fill:rgb(63,61,86);fill-rule:nonzero;"/>
        <path d="M565.038,107.006L562.563,107.178L558.568,98.52L549.624,96.704L549.276,94.247L564.02,92.151L565.038,107.006Z" style="fill:rgb(63,61,86);fill-rule:nonzero;"/>
    </g>
    <path d="M310.684,159.98L319.45,126.283L353.597,124.64L363.813,171.091L310.684,159.98Z" style="fill:rgb(255,182,182);fill-rule:nonzero;"/>
    <path d="M310.684,159.98L319.45,126.283L353.597,124.64L363.813,171.091L310.684,159.98Z" style="fill-opacity:0.1;fill-rule:nonzero;"/>
    <circle cx="333.154" cy="103.924" r="41.216" style="fill:rgb(255,182,182);"/>
    <path d="M355.894,112.649L355.894,112.649C355.894,112.649 340.237,81.626 321.892,83.417C303.546,85.208 293.882,87.387 293.882,87.387C293.882,87.387 288.436,63.225 314.074,53.931C314.074,53.931 281.476,21.797 320.287,6.034C359.098,-9.729 380.816,10.375 380.816,10.375C380.816,10.375 409.544,39.054 373.362,60.489C373.362,60.489 400.228,96.628 367.7,126.415C367.7,126.415 374.975,102.311 367.384,106.756C359.792,111.201 355.894,112.649 355.894,112.649L355.894,112.649L355.894,112.649L355.894,112.649Z" style="fill:rgb(47,46,65);fill-rule:nonzero;"/>
    <path d="M287.679,330.412L282.196,335.666L242.589,420.591L238.253,561.063L304.799,561.063L336.015,491.5L357.047,560.392L416.882,560.392L430.752,435.332L393.466,346.887L287.679,330.412Z" style="fill:rgb(47,46,65);fill-rule:nonzero;"/>
    <path d="M356.614,156.556L312.173,156.556L263.833,182.569L275.105,232.862C275.105,232.862 272.504,263.21 278.574,285.755C284.644,308.3 282.042,337.782 282.042,337.782L393.466,346.887L396.935,244.568L395.2,176.066L356.614,156.556L356.614,156.556L356.614,156.556Z" style="fill:rgb(230,230,230);fill-rule:nonzero;"/>
    <path d="M271.203,183.003C271.203,183.003 244.323,183.87 239.987,201.212C235.652,218.554 232.183,307.867 232.183,307.867C232.183,307.867 234.785,360.863 263.833,335.665C292.881,310.468 290.28,234.162 290.28,234.162L271.203,183.003L271.203,183.003Z" style="fill:rgb(230,230,230);fill-rule:nonzero;"/>
    <path d="M531.927,625.392L373.518,625.392C368.154,625.392 363.789,621.027 363.789,615.662L363.789,451.904C363.789,446.539 368.154,442.174 373.518,442.174L531.927,442.174C537.292,442.174 541.657,446.539 541.657,451.904L541.657,615.662C541.657,621.027 537.292,625.392 531.927,625.392Z" style="fill:white;fill-rule:nonzero;"/>
    <path d="M531.927,626.392L373.518,626.392C367.602,626.392 362.788,621.579 362.788,615.662L362.788,451.904C362.788,445.988 367.602,441.174 373.518,441.174L531.927,441.174C537.843,441.174 542.657,445.988 542.657,451.904L542.657,615.662C542.657,621.579 537.843,626.392 531.927,626.392ZM373.518,443.174C368.704,443.174 364.788,447.09 364.788,451.904L364.788,615.662C364.788,620.476 368.704,624.392 373.518,624.392L531.927,624.392C536.741,624.392 540.657,620.476 540.657,615.662L540.657,451.904C540.657,447.09 536.741,443.174 531.927,443.174L373.518,443.174Z" style="fill:rgb(63,61,86);fill-rule:nonzero;"/>
    <g>
        <path d="M458.974,582.371L445.918,582.371C444.328,582.371 443.035,581.372 443.035,580.145L443.035,523.934C443.035,522.707 444.328,521.709 445.918,521.709L458.974,521.709C460.564,521.709 461.857,522.707 461.857,523.934L461.857,580.145C461.857,581.372 460.564,582.371 458.974,582.371Z" style="fill:url(#_Linear2);fill-rule:nonzero;"/>
        <path d="M415.809,549.245C414.525,549.245 413.48,550.051 413.48,551.043L413.48,580.083C413.48,581.074 414.525,581.881 415.809,581.881L428.866,581.881C430.15,581.881 431.195,581.074 431.195,580.083L431.195,551.043C431.195,550.051 430.15,549.245 428.866,549.245L415.809,549.245Z" style="fill:url(#_Linear3);fill-rule:nonzero;"/>
        <path d="M489.082,582.371L476.026,582.371C474.437,582.371 473.144,581.372 473.144,580.145L473.144,488.025C473.144,486.798 474.437,485.8 476.026,485.8L489.082,485.8C490.672,485.8 491.965,486.798 491.965,488.025L491.965,580.145C491.965,581.372 490.672,582.371 489.082,582.371Z" style="fill:url(#_Linear4);fill-rule:nonzero;"/>
    </g>
    <g>
        <path d="M208.125,178.572L193.211,178.572C191.395,178.572 189.918,177.432 189.918,176.03L189.918,111.821C189.918,110.419 191.395,109.279 193.211,109.279L208.125,109.279C209.941,109.279 211.418,110.419 211.418,111.821L211.418,176.03C211.418,177.432 209.941,178.572 208.125,178.572L208.125,178.572L208.125,178.572Z" style="fill:url(#_Linear5);fill-rule:nonzero;"/>
        <path d="M158.819,140.733C157.352,140.733 156.158,141.654 156.158,142.786L156.158,175.958C156.158,177.091 157.352,178.012 158.819,178.012L173.732,178.012C175.199,178.012 176.393,177.091 176.393,175.958L176.393,142.786C176.393,141.654 175.199,140.733 173.732,140.733L158.819,140.733Z" style="fill:url(#_Linear6);fill-rule:nonzero;"/>
        <path d="M242.517,178.572L227.603,178.572C225.788,178.572 224.311,177.432 224.311,176.03L224.311,70.802C224.311,69.401 225.788,68.26 227.603,68.26L242.517,68.26C244.333,68.26 245.81,69.4 245.81,70.802L245.81,176.03C245.81,177.432 244.333,178.572 242.517,178.572L242.517,178.572L242.517,178.572Z" style="fill:url(#_Linear7);fill-rule:nonzero;"/>
    </g>
    <path d="M428.438,466.001C436.162,465.261 441.481,454.823 440.319,442.681C439.922,437.824 438.366,433.133 435.784,429.001L434.295,415.259L434.523,415.19L438.266,350.032C439.136,334.882 433.139,319.995 421.584,310.158C414.711,304.305 407.379,301.342 402.664,308.737C394.84,321.006 404.974,371.583 411.629,400.338L414.209,431.066C412.456,435.615 411.819,440.517 412.349,445.362C413.51,457.5 420.713,466.74 428.437,466.001L428.438,466.001Z" style="fill:rgb(255,182,182);fill-rule:nonzero;"/>
    <path d="M385.662,177.8C385.662,177.8 408.207,169.129 418.612,195.142C429.018,221.156 440.29,349.488 440.29,349.488L387.396,339.95L385.662,177.8L385.662,177.8L385.662,177.8Z" style="fill:rgb(230,230,230);fill-rule:nonzero;"/>
    <g>
        <path d="M76.092,165.076L45.735,165.076C43.709,165.076 42.06,163.428 42.06,161.402C42.06,159.376 43.709,157.729 45.735,157.729L76.092,157.729C78.118,157.729 79.765,159.376 79.765,161.402C79.765,163.428 78.118,165.076 76.092,165.076Z" style="fill:rgb(230,230,230);fill-rule:nonzero;"/>
        <path d="M76.092,112.997L45.735,112.997C43.709,112.997 42.06,111.349 42.06,109.323C42.06,107.297 43.709,105.649 45.735,105.649L76.092,105.649C78.118,105.649 79.765,107.297 79.765,109.323C79.765,111.349 78.118,112.997 76.092,112.997Z" style="fill:rgb(230,230,230);fill-rule:nonzero;"/>
        <path d="M76.092,75.44L45.735,75.44C43.709,75.44 42.06,73.792 42.06,71.766C42.06,69.74 43.709,68.092 45.735,68.092L76.092,68.092C78.118,68.092 79.765,69.74 79.765,71.766C79.765,73.792 78.118,75.44 76.092,75.44Z" style="fill:rgb(230,230,230);fill-rule:nonzero;"/>
        <path d="M40.843,178.754C40.843,179.414 41.373,179.944 42.033,179.944L246.323,179.944C246.983,179.944 247.513,179.414 247.513,178.754C247.513,178.094 246.983,177.564 246.323,177.564L42.033,177.564C41.373,177.564 40.843,178.094 40.843,178.754Z" style="fill:rgb(63,61,86);fill-rule:nonzero;"/>
    </g>
    <path d="M434.843,486.754C434.843,487.414 435.373,487.944 436.033,487.944L640.323,487.944C640.983,487.944 641.513,487.414 641.513,486.754C641.513,486.094 640.983,485.564 640.323,485.564L436.033,485.564C435.373,485.564 434.843,486.094 434.843,486.754Z" style="fill:rgb(63,61,86);fill-rule:nonzero;"/>
    <path d="M374.843,583.754C374.843,584.414 375.373,584.944 376.033,584.944L580.323,584.944C580.983,584.944 581.513,584.414 581.513,583.754C581.513,583.094 580.983,582.564 580.323,582.564L376.033,582.564C375.373,582.564 374.843,583.094 374.843,583.754Z" style="fill:rgb(63,61,86);fill-rule:nonzero;"/>
    <path d="M237.467,172.738C229.743,173.477 224.423,183.916 225.585,196.058C225.983,200.914 227.538,205.605 230.12,209.738L231.609,223.48L231.381,223.548L227.639,288.706C226.769,303.856 232.766,318.743 244.32,328.581C251.194,334.433 258.526,337.396 263.241,330.002C271.065,317.732 260.931,267.155 254.276,238.4L251.695,207.672C253.448,203.124 254.086,198.222 253.555,193.376C252.395,181.238 245.192,171.998 237.467,172.738L237.467,172.738L237.467,172.738Z" style="fill:rgb(255,182,182);fill-rule:nonzero;"/>
    <defs>
        <linearGradient id="_Linear1" x1="0" y1="0" x2="1" y2="0" gradientUnits="userSpaceOnUse" gradientTransform="matrix(297,-313.597,313.597,297,114,488)"><stop offset="0" style="stop-color:rgb(126,53,89);stop-opacity:1"/><stop offset="0.4" style="stop-color:rgb(175,100,85);stop-opacity:1"/><stop offset="1" style="stop-color:rgb(250,171,78);stop-opacity:1"/></linearGradient>
        <linearGradient id="_Linear2" x1="0" y1="0" x2="1" y2="0" gradientUnits="userSpaceOnUse" gradientTransform="matrix(297,-313.597,313.597,297,114,488)"><stop offset="0" style="stop-color:rgb(126,53,89);stop-opacity:1"/><stop offset="0.4" style="stop-color:rgb(175,100,85);stop-opacity:1"/><stop offset="1" style="stop-color:rgb(250,171,78);stop-opacity:1"/></linearGradient>
        <linearGradient id="_Linear3" x1="0" y1="0" x2="1" y2="0" gradientUnits="userSpaceOnUse" gradientTransform="matrix(297,-313.597,313.597,297,114,488)"><stop offset="0" style="stop-color:rgb(126,53,89);stop-opacity:1"/><stop offset="0.4" style="stop-color:rgb(175,100,85);stop-opacity:1"/><stop offset="1" style="stop-color:rgb(250,171,78);stop-opacity:1"/></linearGradient>
        <linearGradient id="_Linear4" x1="0" y1="0" x2="1" y2="0" gradientUnits="userSpaceOnUse" gradientTransform="matrix(297,-313.597,313.597,297,114,488)"><stop offset="0" style="stop-color:rgb(126,53,89);stop-opacity:1"/><stop offset="0.4" style="stop-color:rgb(175,100,85);stop-opacity:1"/><stop offset="1" style="stop-color:rgb(250,171,78);stop-opacity:1"/></linearGradient>
        <linearGradient id="_Linear5" x1="0" y1="0" x2="1" y2="0" gradientUnits="userSpaceOnUse" gradientTransform="matrix(297,-313.597,313.597,297,114,488)"><stop offset="0" style="stop-color:rgb(126,53,89);stop-opacity:1"/><stop offset="0.4" style="stop-color:rgb(175,100,85);stop-opacity:1"/><stop offset="1" style="stop-color:rgb(250,171,78);stop-opacity:1"/></linearGradient>
        <linearGradient id="_Linear6" x1="0" y1="0" x2="1" y2="0" gradientUnits="userSpaceOnUse" gradientTransform="matrix(297,-313.597,313.597,297,114,488)"><stop offset="0" style="stop-color:rgb(126,53,89);stop-opacity:1"/><stop offset="0.4" style="stop-color:rgb(175,100,85);stop-opacity:1"/><stop offset="1" style="stop-color:rgb(250,171,78);stop-opacity:1"/></linearGradient>
        <linearGradient id="_Linear7" x1="0" y1="0" x2="1" y2="0" gradientUnits="userSpaceOnUse" gradientTransform="matrix(297,-313.597,313.597,297,114,488)"><stop offset="0" style="stop-color:rgb(126,53,89);stop-opacity:1"/><stop offset="0.4" style="stop-color:rgb(175,100,85);stop-opacity:1"/><stop offset="1" style="stop-color:rgb(250,171,78);stop-opacity:1"/></linearGradient>
    </defs>
</svg>
