<?xml version="1.0" encoding="UTF-8" standalone="no"?>
<!DOCTYPE svg PUBLIC "-//W3C//DTD SVG 1.1//EN" "http://www.w3.org/Graphics/SVG/1.1/DTD/svg11.dtd">
<svg width="100%" height="100%" viewBox="0 0 722 569" version="1.1" xmlns="http://www.w3.org/2000/svg" xmlns:xlink="http://www.w3.org/1999/xlink" xml:space="preserve" xmlns:serif="http://www.serif.com/" style="fill-rule:evenodd;clip-rule:evenodd;stroke-linejoin:round;stroke-miterlimit:2;">
    <g transform="matrix(1,0,0,1,-239,-165.859)">
        <path d="M682.382,670.593L663.113,688.332L678.426,662.637C666.362,640.759 646.63,621.851 646.63,621.851C646.63,621.851 605.693,661.071 605.693,691.901C605.693,722.731 624.021,733.495 646.63,733.495C669.238,733.495 687.566,722.731 687.566,691.901C687.566,685.039 685.535,677.761 682.382,670.593Z" style="fill:rgb(242,242,242);fill-rule:nonzero;"/>
    </g>
    <g transform="matrix(1,0,0,1,-239,-165.859)">
        <path d="M658.157,689.293L658.157,690.812C658.067,708.476 655.088,722.258 649.243,731.963C649.16,732.106 649.07,732.241 648.987,732.384L648.332,731.986L647.708,731.594C654.193,721.115 656.487,706.302 656.57,690.895C656.578,690.398 656.585,689.894 656.578,689.39C656.555,682.868 656.156,676.27 655.517,669.861C655.472,669.364 655.419,668.86 655.366,668.356C654.479,659.9 653.2,651.82 651.891,644.801C651.801,644.305 651.703,643.808 651.605,643.319C649.341,631.448 647.031,622.849 646.504,620.946C646.444,620.713 646.407,620.585 646.399,620.555L647.114,620.352L647.121,620.344L647.843,620.141C647.851,620.171 647.979,620.6 648.189,621.397C648.994,624.377 651.086,632.464 653.14,643.131C653.23,643.613 653.328,644.109 653.418,644.606C654.486,650.301 655.532,656.665 656.359,663.346C656.57,665.023 656.758,666.678 656.924,668.311C656.984,668.815 657.037,669.319 657.082,669.816C657.774,676.744 658.132,683.237 658.157,689.293Z" style="fill:white;fill-rule:nonzero;"/>
    </g>
    <g transform="matrix(1,0,0,1,-239,-165.859)">
        <path d="M653.14,643.131C652.636,643.199 652.124,643.267 651.605,643.319C650.195,643.465 648.779,643.537 647.362,643.538C641.323,643.546 635.358,642.198 629.909,639.596C629.593,639.994 629.277,640.393 628.953,640.799C634.686,643.598 640.983,645.049 647.362,645.042C648.875,645.042 650.387,644.962 651.891,644.802C652.402,644.749 652.914,644.681 653.418,644.606C657.579,644.009 661.624,642.784 665.417,640.972C665.094,640.559 664.778,640.152 664.469,639.754C660.88,641.431 657.062,642.569 653.14,643.131Z" style="fill:white;fill-rule:nonzero;"/>
    </g>
    <g transform="matrix(1,0,0,1,-239,-165.859)">
        <path d="M656.924,668.311C656.405,668.341 655.886,668.356 655.366,668.356C655.208,668.364 655.043,668.364 654.885,668.364C641.614,668.364 629.154,661.855 621.573,650.963C621.272,651.407 620.971,651.851 620.678,652.302C628.576,663.319 641.329,669.868 654.885,669.868C655.096,669.868 655.306,669.868 655.517,669.861C656.044,669.853 656.563,669.838 657.082,669.815C665.113,669.404 672.859,666.687 679.387,661.992C679.147,661.548 678.906,661.104 678.658,660.66C672.313,665.27 664.758,667.93 656.924,668.311Z" style="fill:white;fill-rule:nonzero;"/>
    </g>
    <g transform="matrix(1,0,0,1,-239,-165.859)">
        <path d="M658.157,689.293C657.631,689.338 657.104,689.368 656.578,689.39C656.013,689.413 655.449,689.428 654.885,689.428C636.876,689.407 620.922,677.434 615.871,660.148C615.532,660.758 615.194,661.36 614.87,661.969C620.556,679.195 636.745,690.913 654.885,690.933C655.449,690.933 656.013,690.925 656.57,690.895C657.104,690.88 657.631,690.85 658.157,690.812C668.791,689.98 678.72,685.134 685.917,677.263C685.759,676.707 685.579,676.157 685.398,675.601C678.446,683.53 668.669,688.445 658.157,689.293Z" style="fill:white;fill-rule:nonzero;"/>
    </g>
    <circle cx="98.754" cy="101.778" r="98.754" style="fill:rgb(228,228,228);"/>
    <circle cx="98.754" cy="101.778" r="82.295" style="fill:url(#_Linear1);"/>
    <circle cx="361" cy="101.778" r="98.754" style="fill:rgb(228,228,228);"/>
    <circle cx="361" cy="101.778" r="82.295" style="fill:white;"/>
    <circle cx="623.246" cy="101.778" r="98.754" style="fill:rgb(228,228,228);"/>
    <circle cx="623.246" cy="101.778" r="82.295" style="fill:white;"/>
    <g transform="matrix(1,0,0,1,-239,-165.859)">
        <path d="M330.761,297.397C330.614,297.397 330.466,297.393 330.319,297.386C327.687,297.259 325.237,295.987 323.62,293.906L310.996,277.675C307.956,273.757 308.672,268.034 312.582,264.984L313.037,264.631C316.955,261.591 322.679,262.306 325.728,266.217C327.251,268.175 329.597,269.322 332.078,269.322C334.286,269.322 336.399,268.414 337.917,266.811L363.55,239.753C365.257,237.951 367.633,236.929 370.115,236.929C372.429,236.929 374.656,237.817 376.335,239.408L376.754,239.805C380.355,243.217 380.511,248.988 377.099,252.589L337.324,294.573C335.618,296.375 333.243,297.398 330.761,297.397Z" style="fill:white;fill-rule:nonzero;"/>
    </g>
    <g transform="matrix(1,0,0,1,-239,-165.859)">
        <path d="M556.657,247.641L491.657,247.641L491.657,191.112C491.796,183.872 497.855,178.024 505.094,178.141L526.701,178.141C543.219,178.141 556.657,191.113 556.657,207.057L556.657,247.641Z" style="fill:rgb(47,46,65);fill-rule:nonzero;"/>
    </g>
    <path d="M341.722,554.819L329.383,554.818L323.512,507.223L341.724,507.224L341.722,554.819Z" style="fill:rgb(255,182,182);fill-rule:nonzero;"/>
    <g transform="matrix(1,0,0,1,-239,-165.859)">
        <path d="M583.869,732.639L544.081,732.638L544.081,732.134C544.082,723.639 551.072,716.649 559.568,716.648L583.87,716.649L583.869,732.639Z" style="fill:rgb(47,46,65);fill-rule:nonzero;"/>
    </g>
    <path d="M227.987,554.819L215.647,554.818L209.777,507.223L227.989,507.224L227.987,554.819Z" style="fill:rgb(255,182,182);fill-rule:nonzero;"/>
    <g transform="matrix(1,0,0,1,-239,-165.859)">
        <path d="M470.134,732.639L430.346,732.638L430.346,732.134C430.347,723.639 437.337,716.649 445.833,716.648L470.135,716.649L470.134,732.639Z" style="fill:rgb(47,46,65);fill-rule:nonzero;"/>
    </g>
    <path d="M242.886,172.448L234.834,223.78L311.328,224.786L301.263,175.468L242.886,172.448Z" style="fill:rgb(255,182,182);fill-rule:nonzero;"/>
    <g transform="matrix(1,0,0,1,-239,-165.859)">
        <path d="M476.054,377.105L451.691,441.977L448.671,710.817L469.305,710.817L518.623,494.819L563.916,705.179L584.046,705.179L569.955,468.65C569.955,468.65 574.11,421.176 552.844,393.162L547.668,378.207L476.054,377.105Z" style="fill:rgb(47,46,65);fill-rule:nonzero;"/>
    </g>
    <g transform="matrix(1,0,0,1,-239,-165.859)">
        <path d="M580.558,427.676C574.007,425.891 569.428,419.897 569.428,413.107C569.428,410.871 569.925,408.662 570.883,406.64L538.341,300.546L562.277,295.801L592.04,399.796C596.841,402.474 599.826,407.558 599.826,413.055C599.826,421.383 592.973,428.237 584.644,428.237C583.263,428.237 581.888,428.048 580.558,427.676L580.558,427.676Z" style="fill:rgb(255,182,182);fill-rule:nonzero;"/>
    </g>
    <g transform="matrix(1,0,0,1,-239,-165.859)">
        <path d="M537.492,366.656L484.763,365.638C481.675,365.572 478.99,363.438 478.229,360.445C475.402,349.253 469.183,320.085 472.481,291.035C474.942,269.767 493.156,253.538 514.566,253.538C516.597,253.538 518.625,253.684 520.634,253.974C541.415,256.95 557.012,274.938 557.012,295.931C557.012,299.564 556.545,303.182 555.622,306.696C548.985,331.902 545.235,349.935 544.479,360.294C544.249,363.363 541.987,365.922 538.969,366.526C538.531,366.613 538.085,366.657 537.639,366.657C537.59,366.657 537.541,366.657 537.492,366.656Z" style="fill:rgb(228,228,228);fill-rule:nonzero;"/>
    </g>
    <g transform="matrix(1,0,0,1,-239,-165.859)">
        <path d="M377.322,273.464C377.639,274.174 377.899,274.909 378.1,275.66L444.103,298.088L456.857,286.946L476.187,303.996L455.526,325.914C452.107,329.541 446.667,330.482 442.228,328.215L371.601,292.139C369.28,293.563 366.61,294.317 363.887,294.317C355.792,294.317 349.132,287.656 349.132,279.562C349.132,271.468 355.792,264.807 363.887,264.807C369.665,264.807 374.934,268.202 377.322,273.464L377.322,273.464Z" style="fill:rgb(255,182,182);fill-rule:nonzero;"/>
    </g>
    <g transform="matrix(1,0,0,1,-239,-165.859)">
        <path d="M444.24,294.511C444.25,292.673 445.062,290.928 446.462,289.736L470.629,269.15C473.963,265.329 478.794,263.133 483.865,263.133C493.502,263.133 501.431,271.063 501.431,280.7C501.431,284.916 499.914,288.994 497.158,292.184L479.948,318.983C478.785,320.793 476.776,321.89 474.625,321.89C473.096,321.89 471.617,321.335 470.465,320.329L446.404,299.314C445.018,298.105 444.227,296.35 444.24,294.511Z" style="fill:rgb(228,228,228);fill-rule:nonzero;"/>
    </g>
    <g transform="matrix(1,0,0,1,-239,-165.859)">
        <path d="M536.883,327.42C535.256,326.564 534.081,325.04 533.667,323.249L526.522,292.317C525.717,290.269 525.304,288.089 525.304,285.889C525.304,276.252 533.234,268.322 542.87,268.322C550.042,268.322 556.525,272.714 559.184,279.374L575.049,306.992C575.599,307.95 575.889,309.036 575.889,310.142C575.889,312.737 574.292,315.08 571.877,316.029L542.143,327.71C540.432,328.383 538.51,328.277 536.883,327.42Z" style="fill:rgb(228,228,228);fill-rule:nonzero;"/>
    </g>
    <g transform="matrix(0.392826,-0.919613,0.919613,0.392826,-69.3455,446.638)">
        <ellipse cx="548.664" cy="177.771" rx="11.254" ry="15.005" style="fill:rgb(47,46,65);"/>
    </g>
    <g transform="matrix(0.47966,-0.877455,0.877455,0.47966,-158.163,393.232)">
        <circle cx="511.819" cy="211.388" r="30.775" style="fill:rgb(255,182,182);"/>
    </g>
    <g transform="matrix(1,0,0,1,-239,-165.859)">
        <path d="M528.701,176.141L493.5,176.141C488.176,176.072 483.644,180.171 483.179,185.475C483.164,185.697 483.157,185.918 483.157,186.14C483.157,191.626 487.671,196.141 493.158,196.141C498.643,196.141 503.158,200.655 503.158,206.141L503.158,247.141L558.158,247.141L558.158,205.598C558.158,189.438 544.86,176.141 528.701,176.141Z" style="fill:rgb(47,46,65);fill-rule:nonzero;"/>
    </g>
    <g transform="matrix(1,0,0,1,-239,-165.859)">
        <path d="M702.224,734.141L321.224,734.141C320.676,734.141 320.224,733.69 320.224,733.141C320.224,732.592 320.676,732.141 321.224,732.141L702.224,732.141C702.773,732.141 703.224,732.592 703.224,733.141C703.224,733.69 702.773,734.141 702.224,734.141Z" style="fill:rgb(202,202,202);fill-rule:nonzero;"/>
    </g>
    <defs>
        <linearGradient id="_Linear1" x1="0" y1="0" x2="1" y2="0" gradientUnits="userSpaceOnUse" gradientTransform="matrix(135,-99,99,135,32,153)"><stop offset="0" style="stop-color:rgb(126,53,89);stop-opacity:1"/><stop offset="0.4" style="stop-color:rgb(175,100,85);stop-opacity:1"/><stop offset="1" style="stop-color:rgb(250,171,78);stop-opacity:1"/></linearGradient>
    </defs>
</svg>
