<?xml version="1.0" encoding="UTF-8" standalone="no"?>
<!DOCTYPE svg PUBLIC "-//W3C//DTD SVG 1.1//EN" "http://www.w3.org/Graphics/SVG/1.1/DTD/svg11.dtd">
<svg width="100%" height="100%" viewBox="0 0 472 536" version="1.1" xmlns="http://www.w3.org/2000/svg" xmlns:xlink="http://www.w3.org/1999/xlink" xml:space="preserve" xmlns:serif="http://www.serif.com/" style="fill-rule:evenodd;clip-rule:evenodd;stroke-linejoin:round;stroke-miterlimit:2;">
    <g transform="matrix(1,0,0,1,-364.178,-182.36)">
        <path d="M667.4,578.665C668.249,579.118 669.196,579.355 670.159,579.355C673.37,579.355 676.012,576.713 676.012,573.502C676.012,572.759 675.87,572.022 675.595,571.332C675.714,570.739 675.8,570.313 675.919,569.72C678.83,567.003 682.667,565.49 686.649,565.49C695.276,565.49 702.375,572.589 702.375,581.216C702.375,581.483 702.368,581.75 702.355,582.017C701.63,599.659 702.501,618.697 690.775,632.92C744.295,589.186 768.698,514.683 752.353,447.674C744.334,436.499 740.592,421.653 744.189,408.2C748.702,412.59 757.5,411.411 756.155,403.812C755.434,400.809 754.688,397.815 753.967,394.812C784.792,382.783 792.84,428.618 756.326,447.279C759.288,460.019 760.91,473.033 761.166,486.11C765.288,474.319 772.151,463.674 781.189,455.053C789.94,447.174 801.512,442.54 812.277,437.254C825.376,430.805 839.913,443.591 834.756,457.24C826.036,456.125 819.866,466.547 827.779,472.148C813.881,495.49 787.232,510.325 760.156,510.561C757.418,537.194 749.034,562.939 735.564,586.077C752.861,559.776 786.334,567.348 812.788,566.228C813.166,566.18 813.547,566.156 813.928,566.156C818.928,566.156 823.042,570.27 823.042,575.27C823.042,577.159 822.455,579.001 821.363,580.542C817.883,580.338 814.391,580.479 810.939,580.966C807.055,581.541 804.149,584.91 804.149,588.836C804.149,591.633 805.624,594.232 808.026,595.666C784.82,616.94 748.862,621.513 720.641,607.938C712.297,618.448 702.883,628.063 692.552,636.627L650.595,616.627C650.666,616.089 650.761,615.543 650.847,615.012C654.615,617.108 658.624,618.734 662.787,619.855C658.311,602.792 653.323,592.797 667.399,578.665L667.4,578.665Z" style="fill:rgb(242,242,242);fill-rule:nonzero;"/>
    </g>
    <g transform="matrix(1,0,0,1,-364.178,-182.36)">
        <path d="M593.262,538.301C592.15,539.638 590.499,540.413 588.76,540.413C585.564,540.413 582.929,537.796 582.906,534.601C582.572,534.096 582.332,533.734 581.998,533.23C580.209,532.548 578.311,532.199 576.397,532.199C567.77,532.199 560.671,539.297 560.671,547.924C560.671,550.228 561.177,552.504 562.154,554.59C569.48,570.656 575.854,588.616 592.079,597.365C526.016,577.049 475.313,517.255 465.174,449.031C468.386,435.656 466.251,420.496 457.846,409.393C455.322,415.161 446.729,417.387 445.108,409.843C444.643,406.79 444.205,403.735 443.74,400.682C410.654,401.169 420.49,446.654 461.346,450.164C463.408,463.079 466.814,475.744 471.51,487.952C463.245,478.587 452.873,471.316 441.251,466.741C430.174,462.745 417.71,462.819 405.747,461.984C391.183,460.952 382.542,478.277 392.467,488.973C400.122,484.65 409.768,491.976 404.552,500.148C426.228,516.523 456.504,520.21 481.669,510.215C494.251,533.848 511.727,554.529 532.929,570.877C506.989,553.043 478.844,572.683 453.922,581.623C449.948,582.686 447.163,586.314 447.163,590.428C447.163,593.539 448.756,596.442 451.38,598.114C454.526,596.612 457.814,595.427 461.194,594.575C461.812,594.424 462.446,594.347 463.082,594.347C467.447,594.347 471.038,597.939 471.038,602.303C471.038,604.03 470.476,605.711 469.437,607.091C498.953,618.04 533.98,608.711 554.996,585.494C566.688,592.08 579.033,597.434 591.832,601.468L623.145,567.119C622.876,566.648 622.583,566.178 622.302,565.72C619.604,569.081 616.504,572.1 613.071,574.708C610.78,557.217 611.63,546.079 593.263,538.3L593.262,538.301Z" style="fill:rgb(242,242,242);fill-rule:nonzero;"/>
    </g>
    <g transform="matrix(1,0,0,1,-364.178,-182.36)">
        <path d="M601.321,393.158C604.295,392.857 606.586,390.324 606.586,387.334C606.586,385.403 605.63,383.592 604.035,382.502C603.803,381.943 603.637,381.542 603.405,380.983C605.055,373.884 611.435,368.818 618.723,368.818C624.24,368.818 629.368,371.721 632.207,376.452C641.442,391.502 652.779,406.819 650.975,425.165C671.02,359.019 649.739,283.565 598.81,237.051C585.922,232.246 574.539,222.008 570.024,208.835C576.218,209.962 582.864,204.078 577.511,198.52C575.238,196.429 572.949,194.359 570.676,192.268C589.559,165.096 621.795,198.658 601.888,234.508C611.45,243.433 620.052,253.332 627.556,264.045C624.404,251.959 624.166,239.295 626.862,227.099C629.733,215.679 636.756,205.381 642.745,194.991C650.023,182.334 669.221,184.842 672.55,199.049C664.689,202.985 665.378,215.077 675.07,215.315C676.546,242.44 662.695,269.614 640.35,284.906C652.926,308.542 660.32,334.589 662.039,361.306C661.734,329.829 693.743,317.452 715.079,301.772C716.738,300.326 718.866,299.529 721.067,299.529C726.067,299.529 730.181,303.644 730.181,308.643C730.181,308.72 730.18,308.797 730.178,308.874C727.175,310.645 724.356,312.71 721.761,315.038C720.106,316.545 719.161,318.682 719.161,320.921C719.161,325.286 722.753,328.877 727.117,328.877C727.258,328.877 727.399,328.873 727.539,328.866C720.136,359.464 692.836,383.309 661.839,387.775C660.773,401.152 658.319,414.382 654.517,427.252L608.535,434.042C608.295,433.555 608.069,433.05 607.845,432.561C612.141,432.2 616.376,431.314 620.456,429.924C607.227,418.255 597.514,412.739 601.319,393.159L601.321,393.158Z" style="fill:rgb(242,242,242);fill-rule:nonzero;"/>
    </g>
    <g transform="matrix(1,0,0,1,-364.178,-182.36)">
        <path d="M647.567,378.415C626.633,378.415 615.279,375.856 611.313,370.396C607.814,365.578 610.16,359.221 612.876,351.861C614.828,346.57 617.041,340.574 617.041,334.64C617.041,305.775 631.676,291.14 660.541,291.14C674.902,291.14 690.322,298.769 701.789,311.547C712.214,323.165 717.407,337.068 716.038,349.693C714.914,360.047 710.095,366.856 700.871,371.123L700.331,371.373L700.178,370.798C699.381,367.827 698.033,365.031 696.204,362.558C696.026,366.44 695.047,370.245 693.329,373.731L693.231,373.93L693.018,373.991C682.578,376.964 670.188,377.77 660.56,378.139C655.874,378.322 651.543,378.414 647.567,378.415Z" style="fill:rgb(47,46,65);fill-rule:nonzero;"/>
    </g>
    <g transform="matrix(1,0,0,1,-364.178,-182.36)">
        <path d="M653.272,418.631C651.117,412.297 645.131,408.011 638.441,408.011C634.982,408.011 631.62,409.156 628.88,411.266L560.024,452.433L538.477,399.86C540.208,397.321 541.135,394.318 541.135,391.244C541.135,382.853 534.229,375.948 525.838,375.948C517.446,375.948 510.541,382.853 510.541,391.244C510.541,398.031 515.058,404.045 521.576,405.936C522.904,421.096 530.284,488.857 555.959,486.394C577.54,484.323 631.135,448.63 647.781,436.255C653.23,432.207 655.458,425.058 653.272,418.631Z" style="fill:rgb(255,182,182);fill-rule:nonzero;"/>
    </g>
    <g transform="matrix(1,0,0,1,-364.178,-182.36)">
        <path d="M705.161,717.64L645.231,717.64L635.181,667.95L631.921,717.64L576.251,717.64C576.272,678.618 578.305,639.622 582.341,600.81L583.031,598.46L584.121,594.7L584.811,592.34L596.331,552.78L597.241,549.64L666.611,549.64C670.603,553.389 674.285,557.456 677.621,561.8C678.751,563.24 679.931,564.8 681.141,566.48C681.981,567.67 682.851,568.92 683.721,570.23C691.45,581.737 697.228,594.441 700.821,607.83L700.821,607.84C701.431,610.13 701.971,612.473 702.441,614.87L702.441,614.88C702.861,617.01 703.231,619.17 703.521,621.38C703.741,622.99 703.931,624.62 704.071,626.27C704.904,635.411 704.612,644.62 703.201,653.69L705.161,717.64Z" style="fill:rgb(47,46,65);fill-rule:nonzero;"/>
    </g>
    <g transform="matrix(0.932567,-0.360996,0.360996,0.932567,-431.455,-25.7682)">
        <ellipse cx="385.514" cy="258.379" rx="7.557" ry="5.257" style="fill:rgb(230,230,230);"/>
    </g>
    <g transform="matrix(0.932567,-0.360996,0.360996,0.932567,-425.882,-8.50206)">
        <ellipse cx="434.518" cy="252.093" rx="7.557" ry="5.257" style="fill:rgb(63,61,86);"/>
    </g>
    <g transform="matrix(0.932567,-0.360996,0.360996,0.932567,-446.834,-24.4832)">
        <ellipse cx="381.264" cy="300.187" rx="7.557" ry="5.257" style="fill:rgb(255,101,132);"/>
    </g>
    <g transform="matrix(0.973113,-0.230328,0.230328,0.973113,-427.734,-89.0524)">
        <ellipse cx="367.885" cy="318.884" rx="3.322" ry="4.776" style="fill:rgb(230,230,230);"/>
    </g>
    <g transform="matrix(0.973113,-0.230328,0.230328,0.973113,-434.934,-88.2801)">
        <ellipse cx="367.594" cy="350.106" rx="3.322" ry="4.776" style="fill:rgb(63,61,86);"/>
    </g>
    <g transform="matrix(0.973113,-0.230328,0.230328,0.973113,-418.882,-80.1127)">
        <ellipse cx="410.603" cy="285.437" rx="3.322" ry="4.776" style="fill:rgb(230,230,230);"/>
    </g>
    <g transform="matrix(0.973113,-0.230328,0.230328,0.973113,-418.132,-86.2257)">
        <ellipse cx="384.794" cy="279.17" rx="3.322" ry="4.776" style="fill:rgb(255,101,132);"/>
    </g>
    <g transform="matrix(0.973113,-0.230328,0.230328,0.973113,-410.775,-80.698)">
        <ellipse cx="412.149" cy="250.419" rx="3.322" ry="4.776" style="fill:rgb(63,61,86);"/>
    </g>
    <g transform="matrix(0.648181,-0.761486,0.761486,0.648181,-571.392,301.67)">
        <ellipse cx="420.218" cy="466.266" rx="5.257" ry="7.557" style="fill:rgb(230,230,230);"/>
    </g>
    <g transform="matrix(0.648181,-0.761486,0.761486,0.648181,-551.011,265.586)">
        <ellipse cx="391.357" cy="426.167" rx="5.257" ry="7.557" style="fill:rgb(63,61,86);"/>
    </g>
    <g transform="matrix(0.648181,-0.761486,0.761486,0.648181,-545.433,325.518)">
        <ellipse cx="459.006" cy="450.096" rx="5.257" ry="7.557" style="fill:rgb(255,101,132);"/>
    </g>
    <g transform="matrix(0.746053,-0.665887,0.665887,0.746053,-543.441,253.503)">
        <ellipse cx="481.817" cy="452.958" rx="4.776" ry="3.322" style="fill:rgb(230,230,230);"/>
    </g>
    <g transform="matrix(0.746053,-0.665887,0.665887,0.746053,-526.704,268.168)">
        <ellipse cx="509.412" cy="438.348" rx="4.776" ry="3.322" style="fill:rgb(63,61,86);"/>
    </g>
    <g transform="matrix(0.746053,-0.665887,0.665887,0.746053,-541.666,214.879)">
        <ellipse cx="432.066" cy="431.32" rx="4.776" ry="3.322" style="fill:rgb(230,230,230);"/>
    </g>
    <g transform="matrix(0.746053,-0.665887,0.665887,0.746053,-557.045,225.913)">
        <ellipse cx="438.843" cy="456.999" rx="4.776" ry="3.322" style="fill:rgb(255,101,132);"/>
    </g>
    <g transform="matrix(0.746053,-0.665887,0.665887,0.746053,-559.87,197.772)">
        <ellipse cx="400.536" cy="446.633" rx="4.776" ry="3.322" style="fill:rgb(63,61,86);"/>
    </g>
    <g transform="matrix(0.897351,-0.441318,0.441318,0.897351,-392.334,110.992)">
        <ellipse cx="616.523" cy="207.202" rx="5.257" ry="7.557" style="fill:rgb(230,230,230);"/>
    </g>
    <g transform="matrix(0.897351,-0.441318,0.441318,0.897351,-412.551,120.604)">
        <ellipse cx="627.079" cy="255.467" rx="5.257" ry="7.557" style="fill:rgb(63,61,86);"/>
    </g>
    <g transform="matrix(0.897351,-0.441318,0.441318,0.897351,-396.396,92.3889)">
        <ellipse cx="574.504" cy="206.632" rx="5.257" ry="7.557" style="fill:rgb(255,101,132);"/>
    </g>
    <g transform="matrix(0.94919,-0.314705,0.314705,0.94919,-397.342,2.11352)">
        <ellipse cx="554.707" cy="194.943" rx="4.776" ry="3.322" style="fill:rgb(230,230,230);"/>
    </g>
    <g transform="matrix(0.94919,-0.314705,0.314705,0.94919,-399.694,-7.55838)">
        <ellipse cx="523.579" cy="197.388" rx="4.776" ry="3.322" style="fill:rgb(63,61,86);"/>
    </g>
    <g transform="matrix(0.94919,-0.314705,0.314705,0.94919,-407.929,15.79)">
        <ellipse cx="591.768" cy="234.565" rx="4.776" ry="3.322" style="fill:rgb(230,230,230);"/>
    </g>
    <g transform="matrix(0.94919,-0.314705,0.314705,0.94919,-399.463,15.7089)">
        <ellipse cx="595.749" cy="208.307" rx="4.776" ry="3.322" style="fill:rgb(255,101,132);"/>
    </g>
    <g transform="matrix(0.94919,-0.314705,0.314705,0.94919,-405.669,26.733)">
        <ellipse cx="626.787" cy="233.038" rx="4.776" ry="3.322" style="fill:rgb(63,61,86);"/>
    </g>
    <g transform="matrix(1,0,0,1,-364.178,-182.36)">
        <path d="M637.442,386.45L670.458,384.749L685.793,408.981C685.793,408.981 714.647,413.804 712.647,447.804C710.647,481.804 677.541,511.64 677.541,511.64L678.956,529.345L676.498,536.368L676.813,540.311L680.166,544.488L680.511,548.806L677.541,555.64L681.58,562.182L596.647,553.954L593.541,542.64L598.071,536.564L595.541,528.64L599.345,521.018L601.329,496.807C601.329,496.807 579.625,464.199 604.541,439.64L614.541,422.64L625.73,408.988L637.442,386.45Z" style="fill:url(#_Linear1);fill-rule:nonzero;"/>
    </g>
    <circle cx="289.678" cy="162.264" r="34.984" style="fill:rgb(255,182,182);"/>
    <g transform="matrix(1,0,0,1,-364.178,-182.36)">
        <path d="M649.172,342.503C646.157,342.503 643.144,342.418 640.133,342.249L639.594,342.218L639.665,341.684C640.109,338.345 639.859,334.95 638.932,331.711C637.357,335.399 635.014,338.708 632.059,341.418L631.892,341.571L631.667,341.547C623.489,340.652 615.385,339.174 607.417,337.124L607.112,337.046L607.051,336.737C606.455,333.815 606.147,330.842 606.131,327.859C606.131,318.543 609.508,310.703 615.641,305.781C622.317,300.424 631.886,298.777 642.595,301.14L676.841,301.14C684.627,301.148 691.032,307.553 691.041,315.34L691.041,337.026L690.667,337.123C677.122,340.683 663.177,342.491 649.172,342.503Z" style="fill:rgb(47,46,65);fill-rule:nonzero;"/>
    </g>
    <g transform="matrix(1,0,0,1,-364.178,-182.36)">
        <path d="M410.458,303.589C407.288,304.749 405.629,308.309 406.782,311.482L443.725,412.851C444.885,416.022 448.445,417.68 451.618,416.528L595.001,364.273C598.172,363.113 599.83,359.553 598.677,356.38L561.734,255.011C560.575,251.84 557.015,250.182 553.841,251.334L410.458,303.589Z" style="fill:rgb(204,204,204);fill-rule:nonzero;"/>
    </g>
    <g transform="matrix(1,0,0,1,-364.178,-182.36)">
        <path d="M541.637,378.132L453.872,410.118C450.456,411.358 446.625,409.573 445.377,406.161L411.87,314.22C410.629,310.805 412.414,306.973 415.826,305.725L551.107,256.423C554.523,255.183 558.354,256.967 559.602,260.38L575.793,304.805C586.499,334.286 571.094,367.359 541.637,378.132Z" style="fill:white;fill-rule:nonzero;"/>
    </g>
    <g transform="matrix(1,0,0,1,-364.178,-182.36)">
        <path d="M478.485,311.713L457.629,319.314C457.397,319.399 457.151,319.442 456.903,319.442C455.74,319.442 454.784,318.485 454.784,317.322C454.784,316.433 455.342,315.635 456.177,315.33L477.033,307.73C477.266,307.645 477.512,307.601 477.759,307.601C478.922,307.601 479.879,308.558 479.879,309.721C479.879,310.61 479.32,311.409 478.485,311.713L478.485,311.713Z" style="fill:url(#_Linear2);fill-rule:nonzero;"/>
    </g>
    <g transform="matrix(1,0,0,1,-364.178,-182.36)">
        <path d="M528.206,302.82L460.598,327.46C460.365,327.545 460.118,327.589 459.87,327.589C458.707,327.589 457.75,326.632 457.75,325.469C457.75,324.579 458.31,323.78 459.146,323.476L526.754,298.837C526.987,298.752 527.233,298.709 527.48,298.709C528.643,298.709 529.6,299.666 529.6,300.829C529.6,301.717 529.041,302.516 528.206,302.82Z" style="fill:url(#_Linear3);fill-rule:nonzero;"/>
    </g>
    <g transform="matrix(1,0,0,1,-364.178,-182.36)">
        <path d="M531.614,312.171L464.006,336.81C463.773,336.895 463.527,336.938 463.28,336.938C462.117,336.938 461.16,335.981 461.16,334.819C461.16,333.93 461.719,333.131 462.554,332.827L530.162,308.187C530.394,308.103 530.639,308.06 530.886,308.06C532.048,308.06 533.005,309.017 533.005,310.18C533.005,311.068 532.448,311.866 531.614,312.171Z" style="fill:url(#_Linear4);fill-rule:nonzero;"/>
    </g>
    <g transform="matrix(1,0,0,1,-364.178,-182.36)">
        <path d="M535.022,321.521L467.413,346.161C467.18,346.246 466.933,346.29 466.685,346.29C465.522,346.29 464.565,345.333 464.565,344.17C464.565,343.28 465.125,342.481 465.962,342.177L533.57,317.538C533.803,317.453 534.048,317.41 534.296,317.41C535.459,317.41 536.416,318.367 536.416,319.53C536.416,320.418 535.857,321.217 535.022,321.521Z" style="fill:url(#_Linear5);fill-rule:nonzero;"/>
    </g>
    <g transform="matrix(1,0,0,1,-364.178,-182.36)">
        <path d="M538.429,330.872L470.821,355.511C470.588,355.596 470.343,355.639 470.095,355.639C468.932,355.639 467.975,354.682 467.975,353.519C467.975,352.631 468.534,351.832 469.369,351.528L536.978,326.888C537.21,326.804 537.456,326.76 537.703,326.76C538.866,326.76 539.823,327.717 539.823,328.88C539.823,329.769 539.264,330.567 538.429,330.872L538.429,330.872Z" style="fill:url(#_Linear6);fill-rule:nonzero;"/>
    </g>
    <g transform="matrix(1,0,0,1,-364.178,-182.36)">
        <path d="M752.951,356.84L715.934,445.42C712.669,453.168 703.663,456.918 695.864,453.776C690.012,451.418 686.159,445.712 686.159,439.403C686.159,437.142 686.654,434.908 687.609,432.858L728.88,342.024L751.632,285.772C749.089,283.236 747.658,279.789 747.658,276.198C747.658,268.78 753.763,262.676 761.181,262.676C768.599,262.676 774.703,268.78 774.703,276.198C774.703,280.613 772.541,284.76 768.92,287.287L752.951,356.84Z" style="fill:rgb(255,182,182);fill-rule:nonzero;"/>
    </g>
    <defs>
        <linearGradient id="_Linear1" x1="0" y1="0" x2="1" y2="0" gradientUnits="userSpaceOnUse" gradientTransform="matrix(124.178,-155,155,124.178,600,548.36)"><stop offset="0" style="stop-color:rgb(126,53,89);stop-opacity:1"/><stop offset="0.4" style="stop-color:rgb(175,100,85);stop-opacity:1"/><stop offset="1" style="stop-color:rgb(250,171,78);stop-opacity:1"/></linearGradient>
        <linearGradient id="_Linear2" x1="0" y1="0" x2="1" y2="0" gradientUnits="userSpaceOnUse" gradientTransform="matrix(98,-102,102,98,437.178,391.36)"><stop offset="0" style="stop-color:rgb(126,53,89);stop-opacity:1"/><stop offset="0.4" style="stop-color:rgb(175,100,85);stop-opacity:1"/><stop offset="1" style="stop-color:rgb(250,171,78);stop-opacity:1"/></linearGradient>
        <linearGradient id="_Linear3" x1="0" y1="0" x2="1" y2="0" gradientUnits="userSpaceOnUse" gradientTransform="matrix(98,-102,102,98,437.178,391.36)"><stop offset="0" style="stop-color:rgb(126,53,89);stop-opacity:1"/><stop offset="0.4" style="stop-color:rgb(175,100,85);stop-opacity:1"/><stop offset="1" style="stop-color:rgb(250,171,78);stop-opacity:1"/></linearGradient>
        <linearGradient id="_Linear4" x1="0" y1="0" x2="1" y2="0" gradientUnits="userSpaceOnUse" gradientTransform="matrix(98,-102,102,98,437.178,391.36)"><stop offset="0" style="stop-color:rgb(126,53,89);stop-opacity:1"/><stop offset="0.4" style="stop-color:rgb(175,100,85);stop-opacity:1"/><stop offset="1" style="stop-color:rgb(250,171,78);stop-opacity:1"/></linearGradient>
        <linearGradient id="_Linear5" x1="0" y1="0" x2="1" y2="0" gradientUnits="userSpaceOnUse" gradientTransform="matrix(98,-102,102,98,437.178,391.36)"><stop offset="0" style="stop-color:rgb(126,53,89);stop-opacity:1"/><stop offset="0.4" style="stop-color:rgb(175,100,85);stop-opacity:1"/><stop offset="1" style="stop-color:rgb(250,171,78);stop-opacity:1"/></linearGradient>
        <linearGradient id="_Linear6" x1="0" y1="0" x2="1" y2="0" gradientUnits="userSpaceOnUse" gradientTransform="matrix(98,-102,102,98,437.178,391.36)"><stop offset="0" style="stop-color:rgb(126,53,89);stop-opacity:1"/><stop offset="0.4" style="stop-color:rgb(175,100,85);stop-opacity:1"/><stop offset="1" style="stop-color:rgb(250,171,78);stop-opacity:1"/></linearGradient>
    </defs>
</svg>
