<?xml version="1.0" encoding="UTF-8" standalone="no"?>
<!DOCTYPE svg PUBLIC "-//W3C//DTD SVG 1.1//EN" "http://www.w3.org/Graphics/SVG/1.1/DTD/svg11.dtd">
<svg width="100%" height="100%" viewBox="0 0 888 773" version="1.1" xmlns="http://www.w3.org/2000/svg" xmlns:xlink="http://www.w3.org/1999/xlink" xml:space="preserve" xmlns:serif="http://www.serif.com/" style="fill-rule:evenodd;clip-rule:evenodd;stroke-linejoin:round;stroke-miterlimit:2;">
    <path d="M887.772,763.25L252.263,772.831L0,728.121L393.817,728.121L887.772,763.25Z" style="fill:rgb(230,230,230);fill-rule:nonzero;"/>
    <circle cx="731.822" cy="101.66" r="101.66" style="fill:rgb(255,101,132);"/>
    <g transform="matrix(1,0,0,1,-156.114,-63.5847)">
        <path d="M335.954,797.02C335.954,797.02 337.441,765.861 367.925,769.483" style="fill:rgb(63,61,86);fill-rule:nonzero;"/>
    </g>
    <circle cx="171.227" cy="688.526" r="15.257" style="fill:url(#_Linear1);"/>
    <rect x="168.744" y="714.218" width="4.307" height="30.147" style="fill:rgb(63,61,86);"/>
    <g transform="matrix(1,0,0,1,-156.114,-63.5847)">
        <path d="M838.401,802.342C838.401,802.342 839.888,771.183 870.372,774.805" style="fill:rgb(63,61,86);fill-rule:nonzero;"/>
    </g>
    <circle cx="673.673" cy="693.849" r="15.257" style="fill:url(#_Linear2);"/>
    <rect x="671.191" y="719.541" width="4.307" height="30.147" style="fill:rgb(63,61,86);"/>
    <g transform="matrix(1,0,0,1,-156.114,-63.5847)">
        <path d="M911.851,807.665C911.851,807.665 913.338,776.506 943.823,780.128" style="fill:rgb(63,61,86);fill-rule:nonzero;"/>
    </g>
    <circle cx="747.124" cy="699.171" r="15.257" style="fill:url(#_Linear3);"/>
    <rect x="744.642" y="724.863" width="4.307" height="30.147" style="fill:rgb(63,61,86);"/>
    <g transform="matrix(1,0,0,1,-156.114,-63.5847)">
        <path d="M456.243,782.116C456.243,782.116 457.73,750.958 488.214,754.579" style="fill:rgb(63,61,86);fill-rule:nonzero;"/>
    </g>
    <circle cx="291.516" cy="673.623" r="15.257" style="fill:url(#_Linear4);"/>
    <rect x="289.033" y="699.315" width="4.307" height="30.147" style="fill:rgb(63,61,86);"/>
    <g transform="matrix(1,0,0,1,-156.114,-63.5847)">
        <path d="M229.504,787.439C229.504,787.439 230.991,756.28 261.475,759.902" style="fill:rgb(63,61,86);fill-rule:nonzero;"/>
    </g>
    <circle cx="64.776" cy="678.946" r="15.257" style="fill:url(#_Linear5);"/>
    <rect x="62.294" y="704.638" width="4.307" height="30.147" style="fill:rgb(63,61,86);"/>
    <circle cx="442.277" cy="503.482" r="166.228" style="fill:rgb(63,61,86);"/>
    <g transform="matrix(1,0,0,1,-156.114,-63.5847)">
        <path d="M493.74,580.41C502.092,570.411 514.47,564.622 527.499,564.622C540.528,564.622 552.906,570.411 561.259,580.41C570.918,571.189 576.39,558.401 576.39,545.047C576.39,518.226 554.32,496.156 527.499,496.156C500.679,496.156 478.609,518.226 478.609,545.047C478.609,558.401 484.08,571.189 493.74,580.41Z" style="fill:white;fill-rule:nonzero;"/>
    </g>
    <g transform="matrix(1,0,0,1,-156.114,-63.5847)">
        <path d="M625.745,580.41C634.097,570.411 646.475,564.622 659.504,564.622C672.533,564.622 684.911,570.411 693.264,580.41C702.923,571.189 708.395,558.401 708.395,545.047C708.395,518.226 686.325,496.156 659.504,496.156C632.683,496.156 610.613,518.226 610.613,545.047C610.613,558.401 616.085,571.189 625.745,580.41Z" style="fill:white;fill-rule:nonzero;"/>
    </g>
    <circle cx="354.707" cy="464.814" r="16.818" style="fill:rgb(63,61,86);"/>
    <circle cx="486.707" cy="464.814" r="16.818" style="fill:rgb(63,61,86);"/>
    <circle cx="322.495" cy="545.039" r="19.556" style="fill:rgb(255,101,132);"/>
    <circle cx="547.392" cy="545.039" r="19.556" style="fill:rgb(255,101,132);"/>
    <path d="M434.943,505.926L420.276,569.484L444.721,545.039L434.943,505.926Z" style="fill:rgb(255,101,132);fill-rule:nonzero;"/>
    <path d="M510.307,750.38L493.655,736.404L494.043,750.38L488.871,750.38L488.458,735.602L465.975,750.38L456.563,750.38L488.29,729.526L487.061,685.737L486.143,652.666L491.302,652.524L492.233,685.737L493.461,729.487L518.348,750.38L510.307,750.38Z" style="fill:rgb(63,61,86);fill-rule:nonzero;"/>
    <path d="M432.076,750.38L415.424,736.404L415.812,750.38L410.654,750.38L410.24,735.602L387.757,750.38L378.345,750.38L410.059,729.526L408.831,685.737L407.913,652.666L413.084,652.524L414.015,685.737L415.23,729.487L440.118,750.38L432.076,750.38Z" style="fill:rgb(63,61,86);fill-rule:nonzero;"/>
    <g transform="matrix(1,0,0,1,-156.114,-63.5847)">
        <path d="M600.835,388.616C596.274,388.616 592.25,392.159 589.56,397.601C587.189,389.418 582.208,383.727 576.39,383.727C575.995,383.766 575.602,383.832 575.216,383.924C572.979,375.187 567.782,369.059 561.723,369.059C553.622,369.059 547.056,380.004 547.056,393.505C547.056,407.006 553.622,417.95 561.723,417.95C562.118,417.911 562.51,417.845 562.897,417.753C565.133,426.49 570.331,432.617 576.39,432.617C580.951,432.617 584.975,429.074 587.665,423.632C590.036,431.815 595.018,437.506 600.835,437.506C608.936,437.506 615.502,426.562 615.502,413.061C615.502,399.56 608.936,388.616 600.835,388.616Z" style="fill:rgb(63,61,86);fill-rule:nonzero;"/>
    </g>
    <g transform="matrix(-1,-7.65714e-16,7.65714e-16,-1,679.724,1074.31)">
        <path d="M393.474,507.833C420.294,507.833 442.364,529.903 442.364,556.724L442.364,581.169C442.364,607.99 420.294,630.06 393.474,630.06L393.474,507.833Z" style="fill:url(#_Linear6);fill-rule:nonzero;"/>
    </g>
    <path d="M598.303,444.248C598.303,444.248 598.303,444.248 598.304,444.248C625.124,444.248 647.194,466.318 647.194,493.139L647.194,517.584C647.194,544.405 625.124,566.475 598.304,566.475L598.304,444.248L598.303,444.248Z" style="fill:url(#_Linear7);fill-rule:nonzero;"/>
    <g transform="matrix(1,0,0,1,-156.114,-63.5847)">
        <path d="M780.037,560.565L772.28,560.565C772.28,462.188 692.244,382.151 593.866,382.151C495.488,382.151 415.452,462.188 415.452,560.565L407.695,560.565C407.695,457.91 491.211,374.394 593.866,374.394C696.521,374.394 780.037,457.91 780.037,560.565Z" style="fill:url(#_Linear8);fill-rule:nonzero;"/>
    </g>
    <g transform="matrix(1,0,0,1,-156.114,-63.5847)">
        <path d="M327.661,411.058L327.663,411.055L324.018,409.537L308.642,403.037L303.13,400.707L302.707,401.775L295.303,420.469L316.14,429.288L316.249,429.387L314.845,432.698C314.653,433.001 314.489,433.321 314.355,433.654C313.372,436.137 315.23,438.608 316.986,439.303C318.742,439.999 320.963,438.549 321.947,436.066C322.917,433.616 321.969,430.504 320.257,429.752L320.259,429.749L316.614,428.231L304.148,423.385L311.271,405.4L310.215,404.982L303.089,422.974L301.548,422.374L308.701,404.312L308.89,404.392L323.544,410.594L323.653,410.693L322.249,414.004C322.057,414.307 321.893,414.627 321.759,414.96C320.776,417.443 322.633,419.914 324.39,420.609C326.146,421.305 328.367,419.855 329.35,417.372C330.321,414.922 329.372,411.81 327.661,411.058Z" style="fill:rgb(63,61,86);fill-rule:nonzero;"/>
    </g>
    <g transform="matrix(1,0,0,1,-156.114,-63.5847)">
        <path d="M399.781,456.952C392.217,452.627 393.731,443.137 393.731,443.137C393.54,436.972 388.447,437.844 388.447,437.844L386.593,438.268C385.732,437.868 384.783,437.693 383.836,437.758L381.016,438.232C387.438,439.741 386.91,445.113 386.91,445.113L387.81,451.394L370.984,444.606L372.916,440.051C373.183,439.63 373.41,439.186 373.596,438.724C374.962,435.274 372.382,431.843 369.943,430.877C367.504,429.911 364.419,431.925 363.053,435.374C361.705,438.776 363.022,443.099 365.399,444.143L365.397,444.147L370.459,446.255L370.496,446.135L399.781,456.952ZM391.237,445.916L391.776,451.928C389.872,449.256 388.976,445.992 389.25,442.721C389.206,441.558 388.813,440.434 388.124,439.496C390.282,440.879 391.488,443.365 391.237,445.916L391.237,445.916Z" style="fill:rgb(63,61,86);fill-rule:nonzero;"/>
    </g>
    <g transform="matrix(1,0,0,1,-156.114,-63.5847)">
        <path d="M271.433,368.041L271.435,368.037L266.373,365.929L245.219,357.705L250.558,352.955C252.715,350.079 256.813,349.408 259.775,351.445L258.118,348.982C258.118,348.982 255.003,344.859 250.643,349.222C250.643,349.222 245.248,357.175 236.774,355.148L265.714,367.397L265.866,367.534L263.916,372.133C263.649,372.553 263.421,372.997 263.236,373.46C261.87,376.909 264.45,380.34 266.889,381.306C269.328,382.272 272.413,380.259 273.779,376.81C275.127,373.407 273.81,369.085 271.433,368.041Z" style="fill:rgb(63,61,86);fill-rule:nonzero;"/>
    </g>
    <g transform="matrix(1,0,0,1,-156.114,-63.5847)">
        <path d="M348.88,341.126L346.929,345.724C346.663,346.145 346.435,346.589 346.249,347.051C344.883,350.501 347.463,353.932 349.902,354.898C352.341,355.864 355.426,353.851 356.792,350.401C358.14,346.999 356.823,342.677 354.446,341.632L354.448,341.628L349.387,339.52L332.072,332.789L341.965,307.81L340.499,307.229L330.601,332.218L328.46,331.386L338.396,306.299L338.658,306.41L359.011,315.024L359.163,315.162L357.213,319.76C356.946,320.181 356.718,320.625 356.532,321.087C355.166,324.537 357.746,327.968 360.185,328.934C362.625,329.9 365.71,327.887 367.076,324.437C368.423,321.035 367.106,316.712 364.729,315.668L364.731,315.664L359.67,313.556L338.985,304.812L338.984,304.812L338.313,304.528L330.658,301.292L319.788,328.739L348.728,340.988L348.88,341.126Z" style="fill:rgb(63,61,86);fill-rule:nonzero;"/>
    </g>
    <g transform="matrix(1,0,0,1,-156.114,-63.5847)">
        <path d="M257.167,200.556L257.171,200.549L248.458,196.921L212.042,182.765L221.233,174.587C221.233,174.587 227.346,166.104 237.099,171.988L234.247,167.749C234.247,167.749 228.885,160.65 221.379,168.161C221.379,168.161 212.092,181.852 197.505,178.362L247.324,199.448L247.585,199.685L244.228,207.6C243.769,208.325 243.376,209.089 243.057,209.885C240.705,215.823 245.147,221.729 249.345,223.392C253.544,225.055 258.855,221.59 261.207,215.652C263.526,209.795 261.259,202.354 257.167,200.556Z" style="fill:rgb(63,61,86);fill-rule:nonzero;"/>
    </g>
    <g transform="matrix(1,0,0,1,-156.114,-63.5847)">
        <path d="M283.907,319.47C265.823,309.13 269.441,286.44 269.441,286.44C268.986,271.699 256.808,273.786 256.808,273.786L252.375,274.797C250.316,273.842 248.049,273.422 245.784,273.578L239.042,274.713C254.395,278.32 253.134,291.164 253.134,291.164L255.284,306.181L215.055,289.952L219.674,279.061C220.313,278.055 220.857,276.993 221.301,275.888C224.568,267.641 218.399,259.437 212.567,257.128C206.735,254.818 199.359,259.631 196.093,267.878C192.871,276.013 196.02,286.348 201.703,288.844L201.698,288.854L213.8,293.894L213.89,293.609L283.907,319.47ZM263.478,293.084L264.773,307.508C257.177,297.425 258.73,285.446 258.73,285.446C258.623,282.664 257.684,279.977 256.036,277.734C264.761,282.956 263.478,293.084 263.478,293.084L263.478,293.084Z" style="fill:rgb(63,61,86);fill-rule:nonzero;"/>
    </g>
    <defs>
        <linearGradient id="_Linear1" x1="0" y1="0" x2="1" y2="0" gradientUnits="userSpaceOnUse" gradientTransform="matrix(422,-407,407,422,234,785)"><stop offset="0" style="stop-color:rgb(126,53,89);stop-opacity:1"/><stop offset="0.4" style="stop-color:rgb(175,100,85);stop-opacity:1"/><stop offset="1" style="stop-color:rgb(250,171,78);stop-opacity:1"/></linearGradient>
        <linearGradient id="_Linear2" x1="0" y1="0" x2="1" y2="0" gradientUnits="userSpaceOnUse" gradientTransform="matrix(422,-407,407,422,234,785)"><stop offset="0" style="stop-color:rgb(126,53,89);stop-opacity:1"/><stop offset="0.4" style="stop-color:rgb(175,100,85);stop-opacity:1"/><stop offset="1" style="stop-color:rgb(250,171,78);stop-opacity:1"/></linearGradient>
        <linearGradient id="_Linear3" x1="0" y1="0" x2="1" y2="0" gradientUnits="userSpaceOnUse" gradientTransform="matrix(422,-407,407,422,234,785)"><stop offset="0" style="stop-color:rgb(126,53,89);stop-opacity:1"/><stop offset="0.4" style="stop-color:rgb(175,100,85);stop-opacity:1"/><stop offset="1" style="stop-color:rgb(250,171,78);stop-opacity:1"/></linearGradient>
        <linearGradient id="_Linear4" x1="0" y1="0" x2="1" y2="0" gradientUnits="userSpaceOnUse" gradientTransform="matrix(422,-407,407,422,234,785)"><stop offset="0" style="stop-color:rgb(126,53,89);stop-opacity:1"/><stop offset="0.4" style="stop-color:rgb(175,100,85);stop-opacity:1"/><stop offset="1" style="stop-color:rgb(250,171,78);stop-opacity:1"/></linearGradient>
        <linearGradient id="_Linear5" x1="0" y1="0" x2="1" y2="0" gradientUnits="userSpaceOnUse" gradientTransform="matrix(422,-407,407,422,234,785)"><stop offset="0" style="stop-color:rgb(126,53,89);stop-opacity:1"/><stop offset="0.4" style="stop-color:rgb(175,100,85);stop-opacity:1"/><stop offset="1" style="stop-color:rgb(250,171,78);stop-opacity:1"/></linearGradient>
        <linearGradient id="_Linear6" x1="0" y1="0" x2="1" y2="0" gradientUnits="userSpaceOnUse" gradientTransform="matrix(-422,407,-407,-422,445.724,289.308)"><stop offset="0" style="stop-color:rgb(126,53,89);stop-opacity:1"/><stop offset="0.4" style="stop-color:rgb(175,100,85);stop-opacity:1"/><stop offset="1" style="stop-color:rgb(250,171,78);stop-opacity:1"/></linearGradient>
        <linearGradient id="_Linear7" x1="0" y1="0" x2="1" y2="0" gradientUnits="userSpaceOnUse" gradientTransform="matrix(422,-407,407,422,234,785)"><stop offset="0" style="stop-color:rgb(126,53,89);stop-opacity:1"/><stop offset="0.4" style="stop-color:rgb(175,100,85);stop-opacity:1"/><stop offset="1" style="stop-color:rgb(250,171,78);stop-opacity:1"/></linearGradient>
        <linearGradient id="_Linear8" x1="0" y1="0" x2="1" y2="0" gradientUnits="userSpaceOnUse" gradientTransform="matrix(422,-407,407,422,390.114,848.585)"><stop offset="0" style="stop-color:rgb(126,53,89);stop-opacity:1"/><stop offset="0.4" style="stop-color:rgb(175,100,85);stop-opacity:1"/><stop offset="1" style="stop-color:rgb(250,171,78);stop-opacity:1"/></linearGradient>
    </defs>
</svg>
