<?xml version="1.0" encoding="UTF-8" standalone="no"?>
<!DOCTYPE svg PUBLIC "-//W3C//DTD SVG 1.1//EN" "http://www.w3.org/Graphics/SVG/1.1/DTD/svg11.dtd">
<svg width="100%" height="100%" viewBox="0 0 865 683" version="1.1" xmlns="http://www.w3.org/2000/svg" xmlns:xlink="http://www.w3.org/1999/xlink" xml:space="preserve" xmlns:serif="http://www.serif.com/" style="fill-rule:evenodd;clip-rule:evenodd;stroke-linejoin:round;stroke-miterlimit:2;">
    <g transform="matrix(1,0,0,1,-173.493,-103.871)">
        <path d="M695.636,404.871L497.503,404.871C486.149,404.858 476.81,395.519 476.797,384.165L476.797,125.577C476.81,114.223 486.149,104.884 497.503,104.871L695.636,104.871C706.99,104.884 716.329,114.223 716.342,125.577L716.342,384.165C716.329,395.519 706.99,404.858 695.636,404.871Z" style="fill:rgb(240,240,240);fill-rule:nonzero;"/>
    </g>
    <g transform="matrix(1,0,0,1,-173.493,-103.871)">
        <path d="M695.636,405.871L497.503,405.871C485.6,405.857 475.81,396.067 475.797,384.165L475.797,125.577C475.811,113.675 485.6,103.885 497.503,103.871L695.636,103.871C707.538,103.885 717.328,113.675 717.342,125.577L717.342,384.165C717.328,396.067 707.538,405.857 695.636,405.871ZM497.503,105.871C486.697,105.883 477.809,114.771 477.797,125.577L477.797,384.165C477.809,394.97 486.697,403.859 497.503,403.871L695.636,403.871C706.442,403.859 715.33,394.971 715.342,384.165L715.342,125.577C715.33,114.771 706.442,105.883 695.636,105.871L497.503,105.871Z" style="fill:url(#_Linear1);fill-rule:nonzero;"/>
    </g>
    <g transform="matrix(1,0,0,1,-173.493,-103.871)">
        <path d="M1017.52,404.871L819.384,404.871C808.03,404.858 798.691,395.519 798.679,384.165L798.679,125.577C798.691,114.223 808.03,104.884 819.384,104.871L1017.52,104.871C1028.87,104.884 1038.21,114.223 1038.22,125.577L1038.22,384.165C1038.21,395.519 1028.87,404.858 1017.52,404.871Z" style="fill:rgb(240,240,240);fill-rule:nonzero;"/>
    </g>
    <circle cx="419.571" cy="297.192" r="35.811" style="fill:url(#_Linear2);"/>
    <g transform="matrix(1,0,0,1,-173.493,-103.871)">
        <path d="M588.178,419.701C586.925,419.701 585.743,419.11 584.992,418.108L575.222,405.081C574.705,404.392 574.425,403.553 574.425,402.691C574.425,400.506 576.224,398.708 578.409,398.708C579.662,398.708 580.844,399.299 581.596,400.301L587.987,408.823L604.404,384.199C605.143,383.097 606.385,382.435 607.711,382.435C609.897,382.435 611.695,384.233 611.695,386.419C611.695,387.201 611.465,387.966 611.033,388.618L591.493,417.927C590.776,419.002 589.58,419.664 588.289,419.7C588.252,419.701 588.215,419.701 588.178,419.701Z" style="fill:rgb(240,240,240);fill-rule:nonzero;"/>
    </g>
    <g transform="matrix(1,0,0,1,-173.493,-103.871)">
        <path d="M561.993,543.162L181.993,543.162C177.332,543.157 173.498,539.323 173.493,534.662L173.493,190.662C173.498,186.001 177.332,182.167 181.993,182.162L561.993,182.162C566.654,182.167 570.488,186.001 570.493,190.662L570.493,534.662C570.488,539.323 566.654,543.157 561.993,543.162Z" style="fill:rgb(63,61,86);fill-rule:nonzero;"/>
    </g>
    <g transform="matrix(1,0,0,1,-173.493,-103.871)">
        <path d="M553.993,535.162L189.993,535.162C185.332,535.157 181.498,531.323 181.493,526.662L181.493,198.662C181.498,194.001 185.332,190.167 189.993,190.162L553.993,190.162C558.654,190.167 562.488,194.001 562.493,198.662L562.493,526.662C562.488,531.323 558.654,535.157 553.993,535.162Z" style="fill:white;fill-rule:nonzero;"/>
    </g>
    <g transform="matrix(1,0,0,1,-173.493,-103.871)">
        <path d="M208.487,225.796C251.324,225.051 294.166,224.944 337.012,225.475C379.853,226.009 422.679,227.184 465.49,228.999C489.513,230.018 513.527,231.239 537.531,232.661C539.459,232.775 539.453,229.774 537.531,229.661C494.762,227.13 451.962,225.236 409.131,223.98C366.305,222.726 323.468,222.114 280.618,222.142C256.573,222.158 232.529,222.376 208.487,222.796C206.558,222.83 206.552,225.83 208.487,225.796L208.487,225.796Z" style="fill:rgb(63,61,86);fill-rule:nonzero;"/>
    </g>
    <g transform="matrix(1,0,0,1,-173.493,-103.871)">
        <path d="M507.022,206.985L525.754,205.591C527.667,205.449 527.683,202.448 525.754,202.591L507.022,203.985C505.109,204.128 505.093,207.129 507.022,206.985Z" style="fill:rgb(63,61,86);fill-rule:nonzero;"/>
    </g>
    <g transform="matrix(1,0,0,1,-173.493,-103.871)">
        <path d="M507.022,224.985L525.754,223.591C527.667,223.449 527.683,220.448 525.754,220.591L507.022,221.985C505.109,222.128 505.093,225.129 507.022,224.985Z" style="fill:rgb(63,61,86);fill-rule:nonzero;"/>
    </g>
    <g transform="matrix(1,0,0,1,-173.493,-103.871)">
        <path d="M505.613,216.765L532.245,219.185C534.167,219.359 534.155,216.358 532.245,216.185L505.613,213.765C503.691,213.59 503.703,216.592 505.613,216.765Z" style="fill:rgb(63,61,86);fill-rule:nonzero;"/>
    </g>
    <g transform="matrix(1,0,0,1,-173.493,-103.871)">
        <path d="M219.572,202.951C216.915,202.934 214.492,204.516 213.439,206.956C212.256,209.355 212.82,212.269 214.814,214.052C216.671,215.632 219.216,216.149 221.543,215.419C223.938,214.583 225.556,212.314 225.566,209.776C225.673,206.962 223.997,204.367 221.387,203.307C220.594,203.092 219.764,203.564 219.542,204.355C219.347,205.146 219.81,205.963 220.59,206.2C220.851,206.301 220.351,206.072 220.595,206.205C220.695,206.259 220.798,206.309 220.896,206.367C220.98,206.417 221.06,206.471 221.142,206.524C221.422,206.707 221.005,206.39 221.184,206.554C221.339,206.697 221.493,206.836 221.634,206.993C221.687,207.053 221.896,207.218 221.734,207.102C221.61,207.014 221.686,207.035 221.734,207.106C221.77,207.16 221.809,207.212 221.845,207.266C221.962,207.443 222.068,207.627 222.163,207.817C222.185,207.86 222.205,207.905 222.228,207.949C222.27,208.031 222.331,208.052 222.232,207.95C222.137,207.852 222.198,207.859 222.231,207.953C222.253,208.015 222.278,208.076 222.299,208.138C222.37,208.34 222.429,208.546 222.476,208.755C222.498,208.852 222.516,208.949 222.535,209.046C222.602,209.391 222.525,208.832 222.541,209.088C222.555,209.301 222.57,209.513 222.567,209.727C222.565,209.825 222.561,209.923 222.554,210.021C222.55,210.07 222.545,210.119 222.542,210.168C222.526,210.403 222.526,210.082 222.559,210.06C222.49,210.26 222.445,210.467 222.423,210.677C222.396,210.77 222.364,210.861 222.334,210.953C222.23,211.275 222.432,210.778 222.321,210.998C222.23,211.187 222.127,211.371 222.015,211.548C221.966,211.622 221.782,211.79 221.932,211.673C222.096,211.546 221.847,211.764 221.793,211.82C221.725,211.892 221.654,211.962 221.581,212.029C221.534,212.075 221.484,212.118 221.432,212.158C221.422,212.154 221.682,211.985 221.542,212.074C221.364,212.188 221.195,212.309 221.007,212.408C220.986,212.42 220.745,212.531 220.746,212.535C220.736,212.495 221.055,212.423 220.836,212.493C220.79,212.508 220.745,212.526 220.699,212.542C220.5,212.609 220.296,212.663 220.09,212.704C220.043,212.713 219.993,212.718 219.946,212.73C219.791,212.77 220.094,212.707 220.103,212.712C219.989,212.707 219.874,212.717 219.762,212.742C219.549,212.754 219.336,212.754 219.123,212.742C219.074,212.739 219.025,212.734 218.975,212.732C218.861,212.725 218.777,212.643 218.929,212.732C219.047,212.801 219.037,212.751 218.933,212.731C218.884,212.722 218.835,212.715 218.787,212.706C218.576,212.666 218.368,212.615 218.163,212.553C218.053,212.519 217.944,212.48 217.836,212.442C217.788,212.428 217.742,212.411 217.698,212.389C217.697,212.377 217.978,212.523 217.83,212.443C217.642,212.342 217.448,212.258 217.266,212.147C217.168,212.088 217.074,212.024 216.979,211.961C216.937,211.936 216.898,211.908 216.86,211.876C216.864,211.864 217.093,212.076 216.973,211.962C216.82,211.816 216.657,211.686 216.513,211.532C216.48,211.497 216.449,211.46 216.416,211.424L216.384,211.388C216.303,211.288 216.301,211.289 216.38,211.389C216.459,211.413 216.456,211.5 216.38,211.386C216.353,211.346 216.325,211.307 216.298,211.266C216.176,211.093 216.072,210.907 215.988,210.713C215.995,210.707 216.118,211.074 216.024,210.797C216.006,210.745 215.986,210.693 215.969,210.641C215.935,210.537 215.904,210.432 215.878,210.326C215.852,210.22 215.839,210.112 215.813,210.007C215.768,209.83 215.838,210.146 215.83,210.139C215.805,210.114 215.816,209.961 215.814,209.924C215.802,209.689 215.829,209.46 215.833,209.226C215.836,209.045 215.818,209.368 215.814,209.358C215.815,209.304 215.825,209.25 215.843,209.199C215.87,209.075 215.895,208.952 215.928,208.83C215.967,208.69 216.01,208.552 216.06,208.416C216.078,208.365 216.101,208.315 216.118,208.263C216.181,208.075 215.993,208.491 216.097,208.321C216.24,208.087 216.346,207.834 216.498,207.604C216.533,207.549 216.752,207.244 216.636,207.398C216.52,207.551 216.754,207.261 216.799,207.212C216.983,207.007 217.199,206.838 217.39,206.642C217.502,206.526 217.311,206.699 217.3,206.708C217.359,206.665 217.416,206.622 217.476,206.58C217.58,206.509 217.687,206.441 217.796,206.377C217.919,206.305 218.058,206.251 218.178,206.175C218.319,206.085 218.07,206.214 218.065,206.217C218.13,206.185 218.197,206.159 218.266,206.14C218.383,206.099 218.888,205.881 218.994,205.949C218.989,205.946 218.61,205.98 218.916,205.96C218.989,205.956 219.061,205.949 219.133,205.946C219.28,205.939 219.426,205.943 219.572,205.951C220.393,205.945 221.067,205.272 221.072,204.451C221.055,203.635 220.388,202.968 219.572,202.951Z" style="fill:rgb(63,61,86);fill-rule:nonzero;"/>
    </g>
    <g transform="matrix(1,0,0,1,-173.493,-103.871)">
        <path d="M240.572,202.951C237.915,202.934 235.492,204.516 234.439,206.956C233.256,209.355 233.82,212.269 235.814,214.052C237.671,215.632 240.216,216.149 242.543,215.419C244.938,214.583 246.556,212.314 246.566,209.776C246.673,206.962 244.997,204.367 242.387,203.307C241.594,203.092 240.764,203.564 240.542,204.355C240.347,205.146 240.81,205.963 241.59,206.2C241.851,206.301 241.351,206.072 241.595,206.205C241.695,206.259 241.798,206.309 241.896,206.367C241.98,206.417 242.06,206.471 242.142,206.524C242.422,206.707 242.005,206.39 242.184,206.554C242.339,206.697 242.493,206.836 242.634,206.993C242.687,207.053 242.896,207.218 242.734,207.102C242.61,207.014 242.686,207.035 242.734,207.106C242.77,207.16 242.809,207.212 242.845,207.266C242.962,207.443 243.068,207.627 243.163,207.817C243.185,207.86 243.205,207.905 243.228,207.949C243.27,208.031 243.331,208.052 243.232,207.95C243.137,207.852 243.198,207.859 243.231,207.953C243.253,208.015 243.278,208.076 243.299,208.138C243.37,208.34 243.429,208.546 243.476,208.755C243.498,208.852 243.516,208.949 243.535,209.046C243.602,209.391 243.525,208.832 243.541,209.088C243.555,209.301 243.57,209.513 243.567,209.727C243.565,209.825 243.561,209.923 243.554,210.021C243.55,210.07 243.545,210.119 243.542,210.168C243.526,210.403 243.526,210.082 243.559,210.06C243.49,210.26 243.445,210.467 243.423,210.677C243.396,210.77 243.364,210.861 243.334,210.953C243.23,211.275 243.432,210.778 243.321,210.998C243.23,211.187 243.127,211.371 243.015,211.548C242.966,211.622 242.782,211.79 242.932,211.673C243.096,211.546 242.847,211.764 242.793,211.82C242.725,211.892 242.654,211.962 242.581,212.029C242.534,212.075 242.484,212.118 242.432,212.158C242.422,212.154 242.682,211.985 242.542,212.074C242.364,212.188 242.195,212.309 242.007,212.408C241.986,212.42 241.745,212.531 241.746,212.535C241.736,212.495 242.055,212.423 241.836,212.493C241.79,212.508 241.745,212.526 241.699,212.542C241.5,212.609 241.296,212.663 241.09,212.704C241.043,212.713 240.993,212.718 240.946,212.73C240.791,212.77 241.094,212.707 241.103,212.712C240.989,212.707 240.874,212.717 240.762,212.742C240.549,212.754 240.336,212.754 240.123,212.742C240.074,212.739 240.025,212.734 239.975,212.732C239.861,212.725 239.777,212.643 239.929,212.732C240.047,212.801 240.037,212.751 239.933,212.731C239.884,212.722 239.835,212.715 239.787,212.706C239.576,212.666 239.368,212.615 239.163,212.553C239.053,212.519 238.944,212.48 238.836,212.442C238.788,212.428 238.742,212.411 238.698,212.389C238.697,212.377 238.978,212.523 238.83,212.443C238.642,212.342 238.448,212.258 238.266,212.147C238.168,212.088 238.074,212.024 237.979,211.961C237.937,211.936 237.898,211.908 237.86,211.876C237.864,211.864 238.093,212.076 237.973,211.962C237.82,211.816 237.657,211.686 237.513,211.532C237.48,211.497 237.449,211.46 237.416,211.424L237.384,211.388C237.303,211.288 237.301,211.289 237.38,211.389C237.459,211.413 237.456,211.5 237.38,211.386C237.353,211.346 237.325,211.307 237.298,211.266C237.176,211.093 237.072,210.907 236.988,210.713C236.995,210.707 237.118,211.074 237.024,210.797C237.006,210.745 236.986,210.693 236.969,210.641C236.935,210.537 236.904,210.432 236.878,210.326C236.852,210.22 236.839,210.112 236.813,210.007C236.768,209.83 236.838,210.146 236.83,210.139C236.805,210.114 236.816,209.961 236.814,209.924C236.802,209.689 236.829,209.46 236.833,209.226C236.836,209.045 236.818,209.368 236.814,209.358C236.815,209.304 236.825,209.25 236.843,209.199C236.87,209.075 236.895,208.952 236.928,208.83C236.967,208.69 237.01,208.552 237.06,208.416C237.078,208.365 237.101,208.315 237.118,208.263C237.181,208.075 236.993,208.491 237.097,208.321C237.24,208.087 237.346,207.834 237.498,207.604C237.533,207.549 237.752,207.244 237.636,207.398C237.52,207.551 237.754,207.261 237.799,207.212C237.983,207.007 238.199,206.838 238.39,206.642C238.502,206.526 238.311,206.699 238.3,206.708C238.359,206.665 238.416,206.622 238.476,206.58C238.58,206.509 238.687,206.441 238.796,206.377C238.919,206.305 239.058,206.251 239.178,206.175C239.319,206.085 239.07,206.214 239.065,206.217C239.13,206.185 239.197,206.159 239.266,206.14C239.383,206.099 239.888,205.881 239.994,205.949C239.989,205.946 239.61,205.98 239.916,205.96C239.989,205.956 240.061,205.949 240.133,205.946C240.28,205.939 240.426,205.943 240.572,205.951C241.393,205.945 242.067,205.272 242.072,204.451C242.055,203.635 241.388,202.968 240.572,202.951Z" style="fill:rgb(63,61,86);fill-rule:nonzero;"/>
    </g>
    <g transform="matrix(1,0,0,1,-173.493,-103.871)">
        <path d="M261.572,202.951C258.915,202.934 256.492,204.516 255.439,206.956C254.256,209.355 254.82,212.269 256.814,214.052C258.671,215.632 261.216,216.149 263.543,215.419C265.938,214.583 267.556,212.314 267.566,209.776C267.673,206.962 265.997,204.367 263.387,203.307C262.594,203.092 261.764,203.564 261.542,204.355C261.347,205.146 261.81,205.963 262.59,206.2C262.851,206.301 262.351,206.072 262.595,206.205C262.695,206.259 262.798,206.309 262.896,206.367C262.98,206.417 263.06,206.471 263.142,206.524C263.422,206.707 263.005,206.39 263.184,206.554C263.339,206.697 263.493,206.836 263.634,206.993C263.687,207.053 263.896,207.218 263.734,207.102C263.61,207.014 263.686,207.035 263.734,207.106C263.77,207.16 263.809,207.212 263.845,207.266C263.962,207.443 264.068,207.627 264.163,207.817C264.185,207.86 264.205,207.905 264.228,207.949C264.27,208.031 264.331,208.052 264.232,207.95C264.137,207.852 264.197,207.859 264.231,207.953C264.253,208.015 264.278,208.076 264.299,208.138C264.37,208.34 264.429,208.546 264.476,208.755C264.498,208.852 264.516,208.949 264.535,209.046C264.602,209.391 264.525,208.832 264.541,209.088C264.555,209.301 264.57,209.513 264.567,209.727C264.565,209.825 264.561,209.923 264.554,210.021C264.55,210.07 264.545,210.119 264.542,210.168C264.526,210.403 264.526,210.082 264.559,210.06C264.49,210.26 264.445,210.467 264.423,210.677C264.396,210.77 264.364,210.861 264.334,210.953C264.23,211.275 264.432,210.778 264.321,210.998C264.23,211.187 264.127,211.371 264.015,211.548C263.966,211.622 263.782,211.79 263.932,211.673C264.096,211.546 263.847,211.764 263.793,211.82C263.725,211.892 263.654,211.962 263.581,212.029C263.534,212.075 263.484,212.118 263.432,212.158C263.422,212.154 263.682,211.985 263.542,212.074C263.364,212.188 263.195,212.309 263.007,212.408C262.986,212.42 262.745,212.531 262.746,212.535C262.736,212.495 263.055,212.423 262.836,212.493C262.79,212.508 262.745,212.526 262.699,212.542C262.5,212.609 262.296,212.663 262.09,212.704C262.042,212.713 261.993,212.718 261.946,212.73C261.791,212.77 262.094,212.707 262.103,212.712C261.989,212.707 261.874,212.717 261.762,212.742C261.549,212.754 261.336,212.754 261.123,212.742C261.074,212.739 261.025,212.734 260.975,212.732C260.861,212.725 260.777,212.643 260.929,212.732C261.047,212.801 261.037,212.751 260.933,212.731C260.884,212.722 260.835,212.715 260.787,212.706C260.576,212.666 260.368,212.615 260.163,212.553C260.052,212.519 259.944,212.48 259.835,212.442C259.788,212.428 259.742,212.411 259.697,212.389C259.697,212.377 259.978,212.523 259.83,212.443C259.642,212.342 259.448,212.258 259.265,212.147C259.168,212.088 259.074,212.024 258.979,211.961C258.937,211.936 258.898,211.908 258.86,211.876C258.864,211.864 259.093,212.076 258.973,211.962C258.82,211.816 258.657,211.686 258.513,211.532C258.48,211.497 258.449,211.46 258.416,211.424L258.384,211.388C258.303,211.288 258.301,211.289 258.38,211.389C258.459,211.413 258.456,211.5 258.38,211.386C258.353,211.346 258.325,211.307 258.298,211.266C258.176,211.093 258.072,210.907 257.988,210.713C257.995,210.707 258.118,211.074 258.024,210.797C258.006,210.745 257.986,210.693 257.969,210.641C257.934,210.537 257.904,210.432 257.878,210.326C257.852,210.22 257.839,210.112 257.813,210.007C257.768,209.83 257.838,210.146 257.83,210.139C257.805,210.114 257.816,209.961 257.814,209.924C257.802,209.689 257.829,209.46 257.833,209.226C257.836,209.045 257.818,209.368 257.814,209.358C257.815,209.304 257.825,209.25 257.843,209.199C257.87,209.075 257.895,208.952 257.928,208.83C257.967,208.69 258.01,208.552 258.06,208.416C258.078,208.365 258.101,208.315 258.118,208.263C258.181,208.075 257.993,208.491 258.097,208.321C258.24,208.087 258.346,207.834 258.497,207.604C258.533,207.549 258.752,207.244 258.636,207.398C258.52,207.551 258.754,207.261 258.799,207.212C258.983,207.007 259.199,206.838 259.39,206.642C259.502,206.526 259.311,206.699 259.3,206.708C259.359,206.665 259.416,206.622 259.476,206.58C259.58,206.509 259.687,206.441 259.796,206.377C259.919,206.305 260.058,206.251 260.178,206.175C260.319,206.085 260.07,206.214 260.065,206.217C260.13,206.185 260.197,206.159 260.266,206.14C260.383,206.099 260.888,205.881 260.994,205.949C260.989,205.946 260.61,205.98 260.916,205.96C260.989,205.956 261.061,205.949 261.133,205.946C261.28,205.939 261.426,205.943 261.572,205.951C262.393,205.945 263.067,205.272 263.072,204.451C263.055,203.635 262.388,202.968 261.572,202.951Z" style="fill:rgb(63,61,86);fill-rule:nonzero;"/>
    </g>
    <g transform="matrix(1,0,0,1,-173.493,-103.871)">
        <path d="M217.746,281.733L220.421,384.142C220.59,390.603 219.677,399.416 226.231,403.2C228.965,404.779 232.234,405.125 235.332,405.211C239.445,405.325 243.571,405.241 247.686,405.245L298.936,405.3C305.669,405.307 313.065,405.111 317.89,399.687C321.917,395.16 323.058,388.884 323.462,383.028C323.995,375.299 323.739,367.474 323.808,359.729L324.038,333.996L324.268,308.262C324.338,300.444 324.708,292.563 324.365,284.75C324.103,278.789 323.096,272.423 319.099,267.739C314.546,262.402 307.347,261.682 300.781,261.472C283.8,260.928 266.816,260.469 249.833,259.968C245.927,259.853 242.008,259.644 238.099,259.695C234.623,259.628 231.16,260.158 227.863,261.263C222.373,263.319 218.083,268.25 218.274,274.366C218.299,276.955 219.429,279.415 221.377,281.121C222.842,282.361 224.975,280.249 223.498,279C219.496,275.614 221.434,269.27 224.933,266.265C230.002,261.912 237.949,262.618 244.13,262.8L292.238,264.219C295.969,264.329 299.71,264.366 303.437,264.586C306.763,264.781 310.238,265.214 313.215,266.815C318.364,269.585 320.373,275.269 321.05,280.766C321.901,287.683 321.388,294.819 321.326,301.766L321.107,326.251L320.674,374.72C320.621,380.615 320.712,386.7 318.729,392.337C317.876,394.951 316.315,397.279 314.219,399.06C311.587,400.97 308.441,402.046 305.19,402.147C301.539,402.441 297.845,402.299 294.186,402.295L281.686,402.281L257.686,402.256L245.186,402.242C241.533,402.239 237.854,402.367 234.206,402.166C231.406,402.012 228.282,401.528 226.219,399.445C223.908,397.112 223.694,393.509 223.588,390.416C222.483,358.196 221.901,325.95 221.059,293.722L220.746,281.733C220.696,279.806 217.695,279.798 217.746,281.733L217.746,281.733Z" style="fill:rgb(63,61,86);fill-rule:nonzero;"/>
    </g>
    <g transform="matrix(1,0,0,1,-173.493,-103.871)">
        <path d="M407.746,281.733L410.421,384.142C410.59,390.603 409.677,399.416 416.231,403.2C418.965,404.779 422.234,405.125 425.332,405.211C429.445,405.325 433.571,405.241 437.686,405.245L488.936,405.3C495.669,405.307 503.065,405.111 507.89,399.687C511.917,395.16 513.058,388.884 513.462,383.028C513.995,375.299 513.739,367.474 513.808,359.729L514.038,333.996L514.268,308.262C514.338,300.444 514.708,292.563 514.365,284.75C514.103,278.789 513.096,272.423 509.099,267.739C504.546,262.402 497.347,261.682 490.781,261.472C473.8,260.928 456.816,260.469 439.833,259.968C435.927,259.853 432.008,259.644 428.099,259.695C424.623,259.628 421.16,260.158 417.863,261.263C412.373,263.319 408.083,268.25 408.274,274.366C408.299,276.955 409.429,279.415 411.377,281.121C412.842,282.361 414.975,280.249 413.498,279C409.496,275.614 411.434,269.27 414.933,266.265C420.002,261.912 427.949,262.618 434.13,262.8L482.238,264.219C485.969,264.329 489.71,264.366 493.437,264.586C496.763,264.781 500.238,265.214 503.215,266.815C508.364,269.585 510.373,275.269 511.05,280.766C511.901,287.683 511.388,294.819 511.326,301.766L511.107,326.251L510.674,374.72C510.621,380.615 510.712,386.7 508.729,392.337C507.876,394.951 506.315,397.279 504.219,399.06C501.587,400.97 498.441,402.046 495.19,402.147C491.539,402.441 487.846,402.299 484.186,402.295L471.686,402.281L447.686,402.256L435.186,402.242C431.533,402.239 427.854,402.367 424.206,402.166C421.406,402.012 418.282,401.528 416.219,399.445C413.908,397.112 413.694,393.509 413.588,390.416C412.483,358.196 411.901,325.95 411.059,293.722L410.746,281.733C410.696,279.806 407.695,279.798 407.746,281.733L407.746,281.733Z" style="fill:rgb(63,61,86);fill-rule:nonzero;"/>
    </g>
    <g transform="matrix(1,0,0,1,-173.493,-103.871)">
        <path d="M269.529,416.385C267.399,414.335 264.345,413.54 261.485,414.293C258.655,415.069 256.317,417.076 255.122,419.756C252.287,425.792 254.827,432.828 258.743,437.757C262.382,442.338 268.294,445.356 274.054,442.952C279.421,440.652 282.741,435.147 282.272,429.327C281.546,422.624 276.099,417.196 269.703,415.559C267.832,415.08 267.034,417.973 268.906,418.452C273.415,419.544 277.102,422.804 278.74,427.146C280.188,431.43 278.721,436.19 275.112,438.914C266.172,445.779 255.947,432.654 256.949,424.066C257.166,421.5 258.567,419.176 260.734,417.786C262.868,416.53 265.591,416.824 267.408,418.506C267.686,418.766 268.052,418.911 268.432,418.911C269.256,418.911 269.933,418.233 269.933,417.41C269.933,417.029 269.789,416.663 269.529,416.385L269.529,416.385Z" style="fill:rgb(63,61,86);fill-rule:nonzero;"/>
    </g>
    <g transform="matrix(1,0,0,1,-173.493,-103.871)">
        <path d="M452.805,312.27C449.304,311.066 445.241,309.871 441.618,311.282C438.201,312.614 436.319,315.874 435.948,319.412C435.536,323.358 437.213,327.121 438.992,330.537C441.131,334.646 443.337,338.722 445.51,342.813L453.029,356.963C453.305,357.407 453.791,357.679 454.314,357.679C455.129,357.679 455.804,357.02 455.825,356.206C455.4,351.461 456.153,346.685 458.017,342.301C459.94,337.871 463.082,334.129 465.315,329.868C467.372,325.946 468.742,321.446 467.653,317.026C466.772,313.45 464.172,309.972 460.425,309.139C456.53,308.154 452.456,310.166 450.872,313.859C450.164,315.655 453.064,316.435 453.765,314.656C454.763,312.123 458.256,311.346 460.584,312.316C463.617,313.579 465.056,317.204 465.052,320.285C465.047,324.498 462.889,328.347 460.699,331.807C458.488,335.302 456.163,338.682 454.693,342.577C453.071,346.926 452.433,351.581 452.825,356.206L455.62,355.449C450.738,346.261 445.587,337.165 440.978,327.837C439.205,324.25 437.611,319.412 440.328,315.834C443.114,312.165 448.432,313.933 452.008,315.163C453.837,315.792 454.623,312.895 452.805,312.27L452.805,312.27Z" style="fill:rgb(63,61,86);fill-rule:nonzero;"/>
    </g>
    <g transform="matrix(1,0,0,1,-173.493,-103.871)">
        <path d="M261.868,424.766L266.285,433.334C266.561,433.782 267.05,434.055 267.576,434.055C268.243,434.055 268.835,433.615 269.027,432.976C270.178,427.045 272.935,421.543 276.998,417.071C278.298,415.648 276.182,413.52 274.876,414.95C270.444,419.786 267.42,425.745 266.134,432.178L268.876,431.82L264.458,423.252C263.573,421.535 260.984,423.051 261.868,424.766L261.868,424.766Z" style="fill:rgb(63,61,86);fill-rule:nonzero;"/>
    </g>
    <g transform="matrix(1,0,0,1,-173.493,-103.871)">
        <path d="M311.975,385.213L277.071,416.041C276.884,416.207 276.643,416.298 276.393,416.298C275.83,416.298 275.368,415.835 275.368,415.273C275.368,415.017 275.464,414.769 275.637,414.58L308.158,379.073L311.975,385.213Z" style="fill:rgb(63,61,86);fill-rule:nonzero;"/>
    </g>
    <path d="M185.013,656.522L198.731,656.522L205.26,603.608L185.013,603.608L185.013,656.522Z" style="fill:rgb(255,182,182);fill-rule:nonzero;"/>
    <g transform="matrix(1,0,0,1,-173.493,-103.871)">
        <path d="M351.265,784.162L361.103,784.162L362.859,774.874L367.357,784.162L393.45,784.162C396.668,784.162 399.315,781.514 399.315,778.297C399.315,776.371 398.367,774.564 396.783,773.47L375.946,759.079L375.946,749.689L354.029,750.997L351.265,784.162Z" style="fill:rgb(47,46,65);fill-rule:nonzero;"/>
    </g>
    <path d="M302.519,656.522L316.237,656.522L322.766,603.608L302.519,603.608L302.519,656.522Z" style="fill:rgb(255,182,182);fill-rule:nonzero;"/>
    <g transform="matrix(1,0,0,1,-173.493,-103.871)">
        <path d="M468.771,784.162L478.609,784.162L480.365,774.874L484.863,784.162L510.956,784.162C514.174,784.162 516.821,781.514 516.821,778.297C516.821,776.371 515.873,774.564 514.288,773.47L493.451,759.079L493.451,749.689L471.535,750.997L468.771,784.162Z" style="fill:rgb(47,46,65);fill-rule:nonzero;"/>
    </g>
    <g transform="matrix(1,0,0,1,-173.493,-103.871)">
        <path d="M436.363,479.917L366.787,472.186C366.787,472.186 335.864,512.385 347.46,547.173L347.46,585.912L355.964,737.347L377.223,738.507L383.408,669.704L389.206,642.26L394.089,537.702L418.969,567.66L421.288,579.256L429.018,584.667L443.32,604.319L472.697,724.978L498.585,725.365C498.585,725.365 484.679,600.128 483.133,600.128C481.587,600.128 442.934,515.864 442.934,515.864L442.934,511.405L441.387,502.722C441.387,502.722 445.253,499.63 443.707,498.084C442.161,496.538 440.614,491.899 440.614,491.899L436.363,479.917Z" style="fill:rgb(47,46,65);fill-rule:nonzero;"/>
    </g>
    <g transform="matrix(1,0,0,1,-173.493,-103.871)">
        <path d="M411.238,372.074L425.153,387.536L444.48,394.493L433.657,457.884L437.247,476.113L442.547,496.151C422.123,507.449 397.862,491.846 375.574,484.916L353.645,494.605L354.804,467.934L355.399,400.736C355.49,390.467 363.963,382.069 374.232,382.069C374.714,382.069 375.196,382.087 375.677,382.124L390.365,371.301L411.238,372.074Z" style="fill:url(#_Linear3);fill-rule:nonzero;"/>
    </g>
    <g transform="matrix(1,0,0,1,-173.493,-103.871)">
        <path d="M285.006,400.431C285.391,404.454 288.81,407.562 292.852,407.562C293.567,407.562 294.28,407.465 294.969,407.273L310.923,430.296L316.346,416.789L300.365,396.996C299.252,393.831 296.244,391.7 292.889,391.7C288.542,391.7 284.964,395.278 284.964,399.625C284.964,399.895 284.978,400.164 285.006,400.431Z" style="fill:rgb(255,184,184);fill-rule:nonzero;"/>
    </g>
    <g transform="matrix(1,0,0,1,-173.493,-103.871)">
        <path d="M368.536,382.454C368.536,382.454 347.771,381.534 350.096,422.801L341.263,440.928L323.495,424.347L323.415,419.068L308.389,402.273L296.328,415.606L304.356,427.881L305.904,434.736L310.793,437.723L323.551,457.228L329.453,463.037C329.453,463.037 336.939,470.497 345.407,469.373C347.666,469.079 349.865,468.433 351.923,467.456C355.952,465.539 359.931,462.101 363.277,456.281C370.289,444.262 376.576,431.833 382.103,419.063L368.536,382.454Z" style="fill:url(#_Linear4);fill-rule:nonzero;"/>
    </g>
    <g transform="matrix(1,0,0,1,-173.493,-103.871)">
        <path d="M459.44,335.866C459.238,336.571 459.136,337.301 459.136,338.034C459.136,342.056 462.214,345.465 466.214,345.875L472.649,373.136L482.635,362.546L474.993,338.282C474.996,338.187 474.998,338.092 474.998,337.997C474.998,333.649 471.421,330.072 467.073,330.072C463.528,330.072 460.394,332.451 459.44,335.866L459.44,335.866Z" style="fill:rgb(255,184,184);fill-rule:nonzero;"/>
    </g>
    <g transform="matrix(1,0,0,1,-173.493,-103.871)">
        <path d="M415.248,390.819C415.248,390.819 426.228,373.17 458.953,398.416L478.9,401.378L475.266,377.348L470.958,374.297L465.599,352.409L483.415,349.997L489.001,363.559L493.781,368.71L493.48,374.432L502.358,395.982L503.813,404.134C503.813,404.134 505.735,414.527 500.021,420.876C498.501,422.574 496.725,424.022 494.756,425.168C490.897,427.407 485.811,428.746 479.119,428.216C465.241,427.205 451.435,425.365 437.776,422.705L415.248,390.819Z" style="fill:url(#_Linear5);fill-rule:nonzero;"/>
    </g>
    <g transform="matrix(0.877456,-0.479657,0.479657,0.877456,-288.477,130.327)">
        <circle cx="400.854" cy="342.132" r="26.778" style="fill:rgb(255,182,182);"/>
    </g>
    <g transform="matrix(1,0,0,1,-173.493,-103.871)">
        <path d="M436.087,332.893C436.007,332.923 435.937,332.953 435.857,332.983C435.704,333.05 435.547,333.107 435.387,333.153C434.364,333.525 433.299,333.767 432.217,333.873C431.755,333.922 431.291,333.945 430.827,333.943C430.231,333.943 429.636,333.903 429.047,333.823C428.39,333.741 427.742,333.607 427.107,333.423C426.805,333.341 426.508,333.245 426.217,333.133C422.193,331.692 419.072,328.442 417.797,324.363L417.797,324.353C417.729,324.156 417.673,323.956 417.627,323.753C417.332,322.627 417.184,321.467 417.187,320.303L417.187,320.283C417.186,317.445 418.078,314.677 419.737,312.373C420.737,310.963 421.888,310.73 421.247,309.113C419.2,303.955 427.637,299.765 432.607,302.043C432.786,302.026 432.966,302.02 433.147,302.023C436.497,302.023 437.727,306.973 439.717,309.763L439.659,309.782C438.627,310.14 437.932,311.118 437.932,312.21C437.932,313.309 438.637,314.293 439.679,314.645C441.008,315.081 442.35,315.467 443.707,315.803C448.17,321.101 442.999,336.555 436.087,332.893Z" style="fill:rgb(47,46,65);fill-rule:nonzero;"/>
    </g>
    <g transform="matrix(1,0,0,1,-173.493,-103.871)">
        <path d="M433.587,347.063C432.097,352.693 429.357,358.183 424.827,361.833C420.287,365.483 398.957,374.103 397.177,366.673C398.367,371.863 397.637,373.843 395.697,375.693C395.367,375.243 395.017,374.813 394.657,374.393C393.331,372.857 391.738,371.573 389.957,370.603C389.902,373.736 390.12,376.868 390.607,379.963C389.807,380.697 389.046,381.471 388.327,382.283C384.907,372.003 377.384,359.682 382.877,350.343C385.056,346.637 383.248,346.124 381.327,345.693C377.972,344.941 376.157,331.163 375.367,327.813C374.387,323.613 374.007,318.783 376.617,315.343C379.227,311.903 385.807,311.773 387.127,315.883L389.907,312.123C393.507,304.253 403.007,305.853 411.597,306.893C420.187,307.923 427.757,313.983 431.607,321.733C435.447,329.483 435.796,338.693 433.587,347.063Z" style="fill:rgb(47,46,65);fill-rule:nonzero;"/>
    </g>
    <g transform="matrix(1,0,0,1,-173.493,-103.871)">
        <path d="M420.132,311.038C419.735,320.73 425.189,329.768 433.949,333.935C435.693,334.73 437.219,332.145 435.463,331.344C427.633,327.708 422.747,319.663 423.132,311.038C423.237,309.108 420.236,309.114 420.132,311.038Z" style="fill:rgb(255,101,132);fill-rule:nonzero;"/>
    </g>
    <g transform="matrix(1,0,0,1,-173.493,-103.871)">
        <path d="M302.39,766.137C302.35,766.139 302.31,766.14 302.27,766.14C300.841,766.14 299.665,764.964 299.665,763.534C299.665,762.808 299.968,762.114 300.502,761.621L300.68,760.911C300.657,760.854 300.633,760.798 300.609,760.741C298.211,755.021 282.903,770.966 282.242,776.342C281.95,778.718 282.073,781.127 282.605,783.461C277.647,772.646 275.072,760.89 275.056,748.992C275.055,746.006 275.22,743.023 275.552,740.056C275.827,737.623 276.208,735.208 276.695,732.81C279.352,719.801 285.058,707.605 293.343,697.229C298.082,697.493 302.235,696.771 302.636,687.588C302.707,685.954 303.919,684.54 304.185,682.931C303.733,682.99 303.273,683.027 302.821,683.057C302.68,683.064 302.532,683.071 302.391,683.079L302.338,683.081C302.299,683.083 302.26,683.084 302.222,683.084C300.806,683.084 299.64,681.919 299.64,680.502C299.64,679.91 299.844,679.335 300.217,678.875C300.413,678.635 300.608,678.395 300.804,678.155C301.1,677.784 301.404,677.421 301.701,677.05C301.735,677.014 301.768,676.977 301.798,676.938C302.139,676.516 302.48,676.1 302.821,675.678C302.198,674.711 301.361,673.902 300.374,673.312C296.955,671.31 292.238,672.697 289.769,675.789C287.292,678.881 286.825,683.22 287.685,687.083C288.531,690.371 289.93,693.491 291.823,696.309C291.638,696.546 291.445,696.776 291.259,697.013C287.87,701.371 284.916,706.051 282.44,710.985C283.141,705.513 274.574,685.75 271.261,681.564C267.281,676.535 259.12,678.73 258.419,685.104C258.412,685.165 258.406,685.227 258.399,685.289C258.891,685.566 259.373,685.861 259.844,686.173C260.825,686.828 261.415,687.932 261.415,689.112C261.415,690.848 260.136,692.34 258.419,692.605L258.347,692.616C251.76,702.021 272.877,726.5 278.163,721.004C275.675,728.055 274.114,735.399 273.52,742.851C273.184,747.248 273.204,751.665 273.58,756.059L273.558,755.904C272.383,746.334 252.235,732.105 246.352,733.291C242.962,733.973 239.624,733.818 240.138,737.237C240.147,737.292 240.155,737.346 240.164,737.401C241.077,737.773 241.966,738.201 242.826,738.684C243.318,738.961 243.8,739.256 244.271,739.568C245.252,740.223 245.842,741.327 245.842,742.506C245.842,744.243 244.562,745.735 242.846,746L242.774,746.011C242.722,746.018 242.677,746.026 242.626,746.033C239.627,756.35 261.863,773 275.382,767.702L275.389,767.702C276.729,773.524 278.67,779.19 281.181,784.611L301.872,784.611C301.946,784.381 302.013,784.143 302.079,783.914C300.164,784.034 298.241,783.919 296.354,783.572C297.889,781.689 299.424,779.79 300.959,777.907C300.994,777.871 301.026,777.834 301.056,777.795C301.835,776.831 302.621,775.875 303.399,774.911L303.4,774.909C303.441,771.954 303.102,769.006 302.391,766.138L302.39,766.137ZM278.697,719.528L278.708,719.514L278.697,719.543L278.697,719.528ZM274.114,760.843L273.936,760.442C273.943,760.153 273.943,759.864 273.936,759.567C273.936,759.485 273.921,759.404 273.921,759.322C273.988,759.834 274.047,760.346 274.121,760.857L274.114,760.843Z" style="fill:url(#_Linear6);fill-rule:nonzero;"/>
    </g>
    <rect x="66.754" y="680.242" width="292.118" height="2" style="fill:rgb(204,204,204);"/>
    <g transform="matrix(1,0,0,1,-173.493,-103.871)">
        <path d="M918.391,239.166L918.367,239.188C915.988,236.768 912.734,235.404 909.341,235.404C902.396,235.404 896.682,241.118 896.682,248.062C896.682,250.956 897.675,253.764 899.493,256.016L899.469,256.037L916.34,274.96L935.262,258.089C937.963,255.685 939.511,252.236 939.511,248.62C939.511,241.666 933.789,235.944 926.835,235.944C923.721,235.944 920.714,237.092 918.391,239.166Z" style="fill:url(#_Linear7);fill-rule:nonzero;"/>
    </g>
    <defs>
        <linearGradient id="_Linear1" x1="0" y1="0" x2="1" y2="0" gradientUnits="userSpaceOnUse" gradientTransform="matrix(681,-595.951,595.951,681,276.493,786.113)"><stop offset="0" style="stop-color:rgb(126,53,89);stop-opacity:1"/><stop offset="0.4" style="stop-color:rgb(175,100,85);stop-opacity:1"/><stop offset="1" style="stop-color:rgb(250,171,78);stop-opacity:1"/></linearGradient>
        <linearGradient id="_Linear2" x1="0" y1="0" x2="1" y2="0" gradientUnits="userSpaceOnUse" gradientTransform="matrix(681,-595.951,595.951,681,103,682.242)"><stop offset="0" style="stop-color:rgb(126,53,89);stop-opacity:1"/><stop offset="0.4" style="stop-color:rgb(175,100,85);stop-opacity:1"/><stop offset="1" style="stop-color:rgb(250,171,78);stop-opacity:1"/></linearGradient>
        <linearGradient id="_Linear3" x1="0" y1="0" x2="1" y2="0" gradientUnits="userSpaceOnUse" gradientTransform="matrix(681,-595.951,595.951,681,276.493,786.113)"><stop offset="0" style="stop-color:rgb(126,53,89);stop-opacity:1"/><stop offset="0.4" style="stop-color:rgb(175,100,85);stop-opacity:1"/><stop offset="1" style="stop-color:rgb(250,171,78);stop-opacity:1"/></linearGradient>
        <linearGradient id="_Linear4" x1="0" y1="0" x2="1" y2="0" gradientUnits="userSpaceOnUse" gradientTransform="matrix(681,-595.951,595.951,681,276.493,786.113)"><stop offset="0" style="stop-color:rgb(126,53,89);stop-opacity:1"/><stop offset="0.4" style="stop-color:rgb(175,100,85);stop-opacity:1"/><stop offset="1" style="stop-color:rgb(250,171,78);stop-opacity:1"/></linearGradient>
        <linearGradient id="_Linear5" x1="0" y1="0" x2="1" y2="0" gradientUnits="userSpaceOnUse" gradientTransform="matrix(681,-595.951,595.951,681,276.493,786.113)"><stop offset="0" style="stop-color:rgb(126,53,89);stop-opacity:1"/><stop offset="0.4" style="stop-color:rgb(175,100,85);stop-opacity:1"/><stop offset="1" style="stop-color:rgb(250,171,78);stop-opacity:1"/></linearGradient>
        <linearGradient id="_Linear6" x1="0" y1="0" x2="1" y2="0" gradientUnits="userSpaceOnUse" gradientTransform="matrix(681,-595.951,595.951,681,276.493,786.113)"><stop offset="0" style="stop-color:rgb(126,53,89);stop-opacity:1"/><stop offset="0.4" style="stop-color:rgb(175,100,85);stop-opacity:1"/><stop offset="1" style="stop-color:rgb(250,171,78);stop-opacity:1"/></linearGradient>
        <linearGradient id="_Linear7" x1="0" y1="0" x2="1" y2="0" gradientUnits="userSpaceOnUse" gradientTransform="matrix(681,-595.951,595.951,681,276.493,786.113)"><stop offset="0" style="stop-color:rgb(126,53,89);stop-opacity:1"/><stop offset="0.4" style="stop-color:rgb(175,100,85);stop-opacity:1"/><stop offset="1" style="stop-color:rgb(250,171,78);stop-opacity:1"/></linearGradient>
    </defs>
</svg>
