<?xml version="1.0" encoding="UTF-8" standalone="no"?>
<!DOCTYPE svg PUBLIC "-//W3C//DTD SVG 1.1//EN" "http://www.w3.org/Graphics/SVG/1.1/DTD/svg11.dtd">
<svg width="100%" height="100%" viewBox="0 0 138 120" version="1.1" xmlns="http://www.w3.org/2000/svg" xmlns:xlink="http://www.w3.org/1999/xlink" xml:space="preserve" xmlns:serif="http://www.serif.com/" style="fill-rule:evenodd;clip-rule:evenodd;stroke-linejoin:round;stroke-miterlimit:2;">
    <g transform="matrix(1,0,0,1,-1444,-100)">
        <g id="ArtBoard3" transform="matrix(0.992806,0,0,0.952088,11.3813,10.5037)">
            <rect x="1443" y="94" width="139" height="125.23" style="fill:none;"/>
            <g transform="matrix(0.855775,0,0,0.892374,547.013,-177.74)">
                <path d="M1102.96,345.954L1064.74,350.502C1060.85,350.964 1057.59,353.644 1056.38,357.366C1055.17,361.088 1056.24,365.174 1059.11,367.832L1087.35,393.975L1079.87,431.726C1079.11,435.565 1080.65,439.497 1083.81,441.797C1086.98,444.097 1091.19,444.347 1094.61,442.437L1128.2,423.653L1161.79,442.437C1165.21,444.347 1169.42,444.097 1172.59,441.797C1175.76,439.497 1177.3,435.565 1176.54,431.726L1169.05,393.975L1197.3,367.832C1200.17,365.174 1201.23,361.088 1200.02,357.366C1198.81,353.644 1195.55,350.964 1191.66,350.502L1153.45,345.954L1137.31,311.013C1135.67,307.46 1132.12,305.185 1128.2,305.185C1124.29,305.185 1120.73,307.46 1119.09,311.013L1102.96,345.954ZM1124.37,313.451C1125.06,311.957 1126.56,311 1128.2,311C1129.85,311 1131.34,311.957 1132.03,313.451C1132.03,313.451 1145.19,341.945 1148.69,349.515C1149.21,350.652 1150.29,351.434 1151.53,351.582C1159.81,352.567 1190.98,356.276 1190.98,356.276C1192.61,356.471 1193.98,357.598 1194.49,359.163C1195,360.728 1194.55,362.447 1193.35,363.565C1193.35,363.565 1170.31,384.884 1164.19,390.548C1163.27,391.398 1162.86,392.664 1163.11,393.892C1164.73,402.071 1170.83,432.857 1170.83,432.857C1171.15,434.472 1170.5,436.125 1169.17,437.092C1167.84,438.06 1166.07,438.165 1164.63,437.362C1164.63,437.362 1137.24,422.044 1129.96,417.974C1128.87,417.363 1127.54,417.363 1126.44,417.974C1119.17,422.044 1091.77,437.362 1091.77,437.362C1090.34,438.165 1088.56,438.06 1087.23,437.092C1085.9,436.125 1085.25,434.472 1085.57,432.857C1085.57,432.857 1091.68,402.071 1093.3,393.892C1093.54,392.664 1093.13,391.398 1092.21,390.548C1086.09,384.884 1063.06,363.565 1063.06,363.565C1061.85,362.447 1061.4,360.728 1061.91,359.163C1062.42,357.598 1063.79,356.471 1065.43,356.276C1065.43,356.276 1096.59,352.567 1104.87,351.582C1106.12,351.434 1107.19,350.652 1107.72,349.515C1111.21,341.945 1124.37,313.451 1124.37,313.451Z" style="fill:url(#_Linear1);"/>
            </g>
        </g>
    </g>
    <defs>
        <linearGradient id="_Linear1" x1="0" y1="0" x2="1" y2="0" gradientUnits="userSpaceOnUse" gradientTransform="matrix(101,-94.2501,94.2501,101,1083.2,437.899)"><stop offset="0" style="stop-color:rgb(234,161,34);stop-opacity:1"/><stop offset="1" style="stop-color:rgb(140,198,63);stop-opacity:1"/></linearGradient>
    </defs>
</svg>
