<?xml version="1.0" encoding="UTF-8" standalone="no"?>
<!DOCTYPE svg PUBLIC "-//W3C//DTD SVG 1.1//EN" "http://www.w3.org/Graphics/SVG/1.1/DTD/svg11.dtd">
<svg width="100%" height="100%" viewBox="0 0 683 496" version="1.1" xmlns="http://www.w3.org/2000/svg" xmlns:xlink="http://www.w3.org/1999/xlink" xml:space="preserve" xmlns:serif="http://www.serif.com/" style="fill-rule:evenodd;clip-rule:evenodd;stroke-linecap:round;stroke-miterlimit:3;">
    <g transform="matrix(1,0,0,1,-1986.95,-863.531)">
        <path d="M2050.52,1181L2142,1065L2231,1092L2319.45,1015L2409.1,1200L2498.74,1177L2588.38,1079" style="fill:none;stroke:rgb(192,182,183);stroke-width:4.07px;"/>
        <g transform="matrix(0.968649,0,0,0.968649,63.9987,30.4139)">
            <path d="M2050.82,979.559L2143.36,1174.81L2235.91,1016.42L2328.45,1155.93L2421,1016.42L2513.54,1098.69L2606.09,1193.69" style="fill:none;stroke:rgb(149,75,87);stroke-width:4.2px;"/>
        </g>
        <g id="ArtBoard2" transform="matrix(1.17556,0,0,0.852281,787.882,849.042)">
            <rect x="1020" y="17" width="581" height="581" style="fill:none;"/>
            <g transform="matrix(0.82399,0,0,1.13654,-636.89,-1120.77)">
                <circle cx="2076.44" cy="1120.56" r="9.441" style="fill:url(#_Linear1);"/>
            </g>
            <g transform="matrix(0.82399,0,0,1.13654,-560.634,-898.854)">
                <circle cx="2076.44" cy="1120.56" r="9.441" style="fill:url(#_Linear2);"/>
            </g>
            <g transform="matrix(0.82399,0,0,1.13654,-484.378,-1078.87)">
                <circle cx="2076.44" cy="1120.56" r="9.441" style="fill:url(#_Linear3);"/>
            </g>
            <g transform="matrix(0.82399,0,0,1.13654,-408.122,-920.313)">
                <circle cx="2076.44" cy="1120.56" r="9.441" style="fill:url(#_Linear4);"/>
            </g>
            <g transform="matrix(0.82399,0,0,1.13654,-331.866,-1078.87)">
                <circle cx="2076.44" cy="1120.56" r="9.441" style="fill:url(#_Linear5);"/>
            </g>
            <g transform="matrix(0.82399,0,0,1.13654,-255.611,-985.366)">
                <circle cx="2076.44" cy="1120.56" r="9.441" style="fill:url(#_Linear6);"/>
            </g>
            <g transform="matrix(0.82399,0,0,1.13654,-179.355,-877.395)">
                <circle cx="2076.44" cy="1120.56" r="9.441" style="fill:url(#_Linear7);"/>
            </g>
            <g transform="matrix(1.38345,0,0,1.94715,-1797.31,-1951.63)">
                <text x="2072.72px" y="1298.02px" style="font-family:'Comfortaa-Medium', 'Comfortaa';font-weight:500;font-size:17.451px;">1</text>
            </g>
            <g transform="matrix(1.38345,0,0,1.94715,-1722.85,-1951.63)">
                <text x="2072.72px" y="1298.02px" style="font-family:'Comfortaa-Medium', 'Comfortaa';font-weight:500;font-size:17.451px;">2</text>
            </g>
            <g transform="matrix(1.38345,0,0,1.94715,-1647.13,-1951.63)">
                <text x="2072.72px" y="1298.02px" style="font-family:'Comfortaa-Medium', 'Comfortaa';font-weight:500;font-size:17.451px;">3</text>
            </g>
            <g transform="matrix(1.38345,0,0,1.94715,-1572.18,-1951.63)">
                <text x="2072.72px" y="1298.02px" style="font-family:'Comfortaa-Medium', 'Comfortaa';font-weight:500;font-size:17.451px;">4</text>
            </g>
            <g transform="matrix(1.38345,0,0,1.94715,-1496.1,-1951.63)">
                <text x="2072.72px" y="1298.02px" style="font-family:'Comfortaa-Medium', 'Comfortaa';font-weight:500;font-size:17.451px;">5</text>
            </g>
            <g transform="matrix(1.38345,0,0,1.94715,-1419.38,-1951.63)">
                <text x="2072.72px" y="1298.02px" style="font-family:'Comfortaa-Medium', 'Comfortaa';font-weight:500;font-size:17.451px;">6</text>
            </g>
            <g transform="matrix(1.38345,0,0,1.94715,-1342.75,-1951.63)">
                <text x="2072.72px" y="1298.02px" style="font-family:'Comfortaa-Medium', 'Comfortaa';font-weight:500;font-size:17.451px;">7</text>
            </g>
            <g transform="matrix(1.97528,0,0,2.72452,-3225.12,-2494.17)">
                <path d="M2183.14,949.408C2182.22,949.408 2181.35,949.228 2180.55,948.867C2179.74,948.507 2179.04,948.007 2178.43,947.367C2177.82,946.727 2177.34,945.985 2177.01,945.142C2176.67,944.298 2176.5,943.388 2176.5,942.411C2176.5,941.445 2176.67,940.541 2177.01,939.697C2177.34,938.854 2177.81,938.115 2178.42,937.481C2179.02,936.847 2179.73,936.347 2180.53,935.98C2181.33,935.614 2182.2,935.431 2183.14,935.431C2183.97,935.431 2184.72,935.55 2185.38,935.788C2186.04,936.027 2186.68,936.414 2187.31,936.949C2187.41,937.03 2187.48,937.12 2187.51,937.219C2187.54,937.318 2187.54,937.414 2187.51,937.507C2187.48,937.6 2187.44,937.682 2187.38,937.751C2187.36,937.879 2187.29,937.981 2187.18,938.057C2187.08,938.132 2186.95,938.17 2186.8,938.17C2186.65,938.17 2186.5,938.112 2186.35,937.996C2185.92,937.6 2185.45,937.306 2184.95,937.115C2184.45,936.923 2183.85,936.827 2183.14,936.827C2182.42,936.827 2181.74,936.975 2181.11,937.272C2180.48,937.568 2179.92,937.972 2179.45,938.484C2178.97,938.996 2178.59,939.59 2178.32,940.264C2178.06,940.939 2177.92,941.655 2177.92,942.411C2177.92,943.19 2178.06,943.917 2178.32,944.592C2178.59,945.267 2178.97,945.86 2179.45,946.372C2179.92,946.884 2180.48,947.285 2181.11,947.576C2181.74,947.867 2182.42,948.012 2183.14,948.012C2183.74,948.012 2184.32,947.908 2184.87,947.698C2185.41,947.489 2185.94,947.192 2186.44,946.808C2186.6,946.68 2186.76,946.628 2186.93,946.651C2187.09,946.675 2187.23,946.747 2187.35,946.869C2187.47,946.992 2187.53,947.157 2187.53,947.367C2187.53,947.471 2187.52,947.564 2187.48,947.646C2187.45,947.727 2187.4,947.815 2187.33,947.908C2186.74,948.431 2186.08,948.812 2185.37,949.051C2184.66,949.289 2183.91,949.408 2183.14,949.408Z" style="fill-rule:nonzero;"/>
                <path d="M2196.49,949.408C2195.5,949.408 2194.59,949.234 2193.76,948.885C2192.93,948.536 2192.2,948.05 2191.6,947.428C2190.99,946.805 2190.51,946.067 2190.18,945.212C2189.85,944.357 2189.69,943.423 2189.69,942.411C2189.69,941.399 2189.85,940.468 2190.18,939.619C2190.51,938.769 2190.99,938.034 2191.6,937.411C2192.2,936.789 2192.93,936.303 2193.76,935.954C2194.59,935.605 2195.5,935.431 2196.49,935.431C2197.49,935.431 2198.4,935.605 2199.22,935.954C2200.05,936.303 2200.77,936.789 2201.39,937.411C2202,938.034 2202.47,938.769 2202.8,939.619C2203.14,940.468 2203.3,941.399 2203.3,942.411C2203.3,943.423 2203.14,944.357 2202.8,945.212C2202.47,946.067 2202,946.805 2201.39,947.428C2200.77,948.05 2200.05,948.536 2199.22,948.885C2198.4,949.234 2197.49,949.408 2196.49,949.408ZM2196.49,948.012C2197.27,948.012 2197.99,947.87 2198.64,947.585C2199.3,947.3 2199.87,946.904 2200.35,946.398C2200.84,945.892 2201.21,945.299 2201.47,944.618C2201.73,943.938 2201.87,943.202 2201.87,942.411C2201.87,941.62 2201.73,940.884 2201.47,940.203C2201.21,939.523 2200.84,938.929 2200.35,938.423C2199.87,937.917 2199.3,937.525 2198.64,937.245C2197.99,936.966 2197.27,936.827 2196.49,936.827C2195.72,936.827 2195,936.966 2194.34,937.245C2193.68,937.525 2193.11,937.917 2192.63,938.423C2192.15,938.929 2191.78,939.523 2191.51,940.203C2191.24,940.884 2191.11,941.62 2191.11,942.411C2191.11,943.202 2191.24,943.938 2191.51,944.618C2191.78,945.299 2192.15,945.892 2192.63,946.398C2193.11,946.904 2193.68,947.3 2194.34,947.585C2195,947.87 2195.72,948.012 2196.49,948.012Z" style="fill-rule:nonzero;"/>
                <path d="M2206.81,949.234C2206.6,949.234 2206.43,949.161 2206.28,949.016C2206.14,948.87 2206.07,948.693 2206.07,948.484L2206.07,936.355C2206.07,936.134 2206.14,935.954 2206.28,935.814C2206.43,935.675 2206.6,935.605 2206.81,935.605C2207.1,935.605 2207.32,935.733 2207.46,935.989L2213.1,947.454L2212.54,947.454L2218.06,935.989C2218.21,935.733 2218.43,935.605 2218.71,935.605C2218.91,935.605 2219.09,935.675 2219.22,935.814C2219.36,935.954 2219.43,936.134 2219.43,936.355L2219.43,948.484C2219.43,948.693 2219.36,948.87 2219.22,949.016C2219.09,949.161 2218.91,949.234 2218.71,949.234C2218.49,949.234 2218.31,949.161 2218.17,949.016C2218.03,948.87 2217.96,948.693 2217.96,948.484L2217.96,938.345L2218.26,938.327L2213.39,948.484C2213.25,948.728 2213.04,948.85 2212.76,948.85C2212.45,948.85 2212.22,948.699 2212.07,948.396L2207.2,938.432L2207.54,938.345L2207.54,948.484C2207.54,948.693 2207.47,948.87 2207.33,949.016C2207.19,949.161 2207.01,949.234 2206.81,949.234Z" style="fill-rule:nonzero;"/>
                <path d="M2223.58,949.234C2223.37,949.234 2223.19,949.164 2223.05,949.025C2222.92,948.885 2222.85,948.705 2222.85,948.484L2222.85,936.355C2222.85,936.134 2222.92,935.954 2223.05,935.814C2223.19,935.675 2223.37,935.605 2223.58,935.605C2223.8,935.605 2223.98,935.675 2224.11,935.814C2224.25,935.954 2224.32,936.134 2224.32,936.355L2224.32,948.484C2224.32,948.705 2224.25,948.885 2224.11,949.025C2223.98,949.164 2223.8,949.234 2223.58,949.234Z" style="fill-rule:nonzero;"/>
                <path d="M2228.47,949.234C2228.26,949.234 2228.08,949.164 2227.95,949.025C2227.81,948.885 2227.74,948.705 2227.74,948.484L2227.74,936.355C2227.74,936.134 2227.81,935.954 2227.95,935.814C2228.08,935.675 2228.26,935.605 2228.47,935.605C2228.7,935.605 2228.89,935.698 2229.04,935.884L2236.99,946.581L2236.99,936.355C2236.99,936.134 2237.06,935.954 2237.2,935.814C2237.33,935.675 2237.51,935.605 2237.73,935.605C2237.93,935.605 2238.11,935.675 2238.25,935.814C2238.39,935.954 2238.46,936.134 2238.46,936.355L2238.46,948.484C2238.46,948.705 2238.39,948.885 2238.25,949.025C2238.11,949.164 2237.93,949.234 2237.73,949.234C2237.62,949.234 2237.52,949.214 2237.42,949.173C2237.32,949.132 2237.23,949.065 2237.16,948.972L2229.21,938.275L2229.21,948.484C2229.21,948.705 2229.14,948.885 2229,949.025C2228.85,949.164 2228.68,949.234 2228.47,949.234Z" style="fill-rule:nonzero;"/>
                <path d="M2247.89,949.408C2246.96,949.408 2246.1,949.228 2245.29,948.867C2244.49,948.507 2243.78,948.007 2243.17,947.367C2242.56,946.727 2242.09,945.985 2241.75,945.142C2241.42,944.298 2241.25,943.388 2241.25,942.411C2241.25,941.445 2241.42,940.541 2241.75,939.697C2242.09,938.854 2242.56,938.115 2243.16,937.481C2243.77,936.847 2244.47,936.347 2245.28,935.98C2246.08,935.614 2246.95,935.431 2247.89,935.431C2248.72,935.431 2249.46,935.55 2250.12,935.788C2250.79,936.027 2251.43,936.414 2252.06,936.949C2252.16,937.03 2252.23,937.12 2252.25,937.219C2252.28,937.318 2252.28,937.414 2252.25,937.507C2252.23,937.6 2252.18,937.682 2252.13,937.751C2252.1,937.879 2252.04,937.981 2251.93,938.057C2251.82,938.132 2251.69,938.17 2251.54,938.17C2251.38,938.17 2251.24,938.112 2251.1,937.996C2250.67,937.6 2250.2,937.306 2249.7,937.115C2249.2,936.923 2248.59,936.827 2247.89,936.827C2247.17,936.827 2246.49,936.975 2245.86,937.272C2245.23,937.568 2244.67,937.972 2244.19,938.484C2243.71,938.996 2243.34,939.59 2243.07,940.264C2242.8,940.939 2242.67,941.655 2242.67,942.411C2242.67,943.19 2242.8,943.917 2243.07,944.592C2243.34,945.267 2243.71,945.86 2244.19,946.372C2244.67,946.884 2245.23,947.285 2245.86,947.576C2246.49,947.867 2247.17,948.012 2247.89,948.012C2248.49,948.012 2249.07,947.908 2249.61,947.698C2250.16,947.489 2250.68,947.192 2251.19,946.808C2251.35,946.68 2251.51,946.628 2251.67,946.651C2251.84,946.675 2251.98,946.747 2252.1,946.869C2252.22,946.992 2252.28,947.157 2252.28,947.367C2252.28,947.471 2252.27,947.564 2252.24,947.646C2252.21,947.727 2252.16,947.815 2252.08,947.908C2251.48,948.443 2250.83,948.827 2250.12,949.059C2249.4,949.292 2248.66,949.408 2247.89,949.408ZM2252.28,947.367L2250.86,947.07L2250.86,943.667L2248.28,943.667C2248.07,943.667 2247.9,943.606 2247.76,943.484C2247.61,943.362 2247.54,943.202 2247.54,943.004C2247.54,942.818 2247.61,942.661 2247.76,942.533C2247.9,942.405 2248.07,942.341 2248.28,942.341L2251.56,942.341C2251.77,942.341 2251.94,942.411 2252.08,942.55C2252.21,942.69 2252.28,942.87 2252.28,943.091L2252.28,947.367Z" style="fill-rule:nonzero;"/>
                <path d="M2264.22,949.408C2263.49,949.408 2262.81,949.298 2262.17,949.077C2261.54,948.856 2260.99,948.545 2260.52,948.143C2260.06,947.742 2259.71,947.274 2259.48,946.739C2259.38,946.541 2259.37,946.355 2259.47,946.18C2259.57,946.006 2259.73,945.889 2259.96,945.831C2260.13,945.785 2260.3,945.805 2260.47,945.892C2260.64,945.979 2260.77,946.116 2260.85,946.302C2261.02,946.628 2261.27,946.922 2261.59,947.183C2261.92,947.445 2262.3,947.649 2262.76,947.794C2263.2,947.94 2263.69,948.012 2264.22,948.012C2264.81,948.012 2265.34,947.914 2265.81,947.716C2266.28,947.518 2266.64,947.233 2266.92,946.861C2267.19,946.488 2267.33,946.035 2267.33,945.5C2267.33,944.825 2267.08,944.234 2266.58,943.728C2266.08,943.222 2265.28,942.905 2264.18,942.777C2262.83,942.614 2261.76,942.19 2260.99,941.503C2260.22,940.817 2259.84,939.968 2259.84,938.956C2259.84,938.234 2260.03,937.609 2260.42,937.08C2260.81,936.55 2261.34,936.143 2262.01,935.858C2262.68,935.573 2263.45,935.431 2264.3,935.431C2264.95,935.431 2265.53,935.532 2266.05,935.736C2266.56,935.94 2267.01,936.21 2267.39,936.547C2267.77,936.885 2268.09,937.263 2268.34,937.682C2268.47,937.891 2268.52,938.092 2268.48,938.284C2268.44,938.476 2268.34,938.624 2268.17,938.729C2267.99,938.822 2267.79,938.836 2267.6,938.772C2267.39,938.708 2267.24,938.583 2267.14,938.397C2266.97,938.118 2266.76,937.859 2266.5,937.621C2266.24,937.382 2265.93,937.193 2265.57,937.053C2265.2,936.914 2264.77,936.838 2264.27,936.827C2263.39,936.827 2262.67,937.013 2262.11,937.385C2261.55,937.757 2261.28,938.31 2261.28,939.043C2261.28,939.415 2261.38,939.767 2261.58,940.099C2261.77,940.43 2262.11,940.712 2262.58,940.945C2263.06,941.178 2263.7,941.352 2264.53,941.468C2265.94,941.655 2267,942.091 2267.71,942.777C2268.41,943.464 2268.77,944.365 2268.77,945.482C2268.77,946.122 2268.65,946.686 2268.41,947.175C2268.18,947.663 2267.85,948.073 2267.43,948.405C2267.01,948.737 2266.52,948.987 2265.97,949.155C2265.42,949.324 2264.83,949.408 2264.22,949.408Z" style="fill-rule:nonzero;"/>
                <path d="M2277.71,949.408C2276.72,949.408 2275.81,949.234 2274.97,948.885C2274.14,948.536 2273.42,948.05 2272.81,947.428C2272.2,946.805 2271.73,946.067 2271.4,945.212C2271.07,944.357 2270.9,943.423 2270.9,942.411C2270.9,941.399 2271.07,940.468 2271.4,939.619C2271.73,938.769 2272.2,938.034 2272.81,937.411C2273.42,936.789 2274.14,936.303 2274.97,935.954C2275.81,935.605 2276.72,935.431 2277.71,935.431C2278.7,935.431 2279.61,935.605 2280.44,935.954C2281.26,936.303 2281.99,936.789 2282.6,937.411C2283.22,938.034 2283.69,938.769 2284.02,939.619C2284.35,940.468 2284.52,941.399 2284.52,942.411C2284.52,943.423 2284.35,944.357 2284.02,945.212C2283.69,946.067 2283.22,946.805 2282.6,947.428C2281.99,948.05 2281.26,948.536 2280.44,948.885C2279.61,949.234 2278.7,949.408 2277.71,949.408ZM2277.71,948.012C2278.49,948.012 2279.2,947.87 2279.86,947.585C2280.51,947.3 2281.08,946.904 2281.57,946.398C2282.05,945.892 2282.42,945.299 2282.69,944.618C2282.95,943.938 2283.08,943.202 2283.08,942.411C2283.08,941.62 2282.95,940.884 2282.69,940.203C2282.42,939.523 2282.05,938.929 2281.57,938.423C2281.08,937.917 2280.51,937.525 2279.86,937.245C2279.2,936.966 2278.49,936.827 2277.71,936.827C2276.93,936.827 2276.22,936.966 2275.55,937.245C2274.89,937.525 2274.32,937.917 2273.85,938.423C2273.37,938.929 2272.99,939.523 2272.72,940.203C2272.46,940.884 2272.32,941.62 2272.32,942.411C2272.32,943.202 2272.46,943.938 2272.72,944.618C2272.99,945.299 2273.37,945.892 2273.85,946.398C2274.32,946.904 2274.89,947.3 2275.55,947.585C2276.22,947.87 2276.93,948.012 2277.71,948.012Z" style="fill-rule:nonzero;"/>
                <path d="M2293.11,949.408C2292.12,949.408 2291.21,949.234 2290.38,948.885C2289.54,948.536 2288.82,948.05 2288.21,947.428C2287.6,946.805 2287.13,946.067 2286.8,945.212C2286.47,944.357 2286.3,943.423 2286.3,942.411C2286.3,941.399 2286.47,940.468 2286.8,939.619C2287.13,938.769 2287.6,938.034 2288.21,937.411C2288.82,936.789 2289.54,936.303 2290.38,935.954C2291.21,935.605 2292.12,935.431 2293.11,935.431C2294.1,935.431 2295.01,935.605 2295.84,935.954C2296.67,936.303 2297.39,936.789 2298,937.411C2298.62,938.034 2299.09,938.769 2299.42,939.619C2299.75,940.468 2299.92,941.399 2299.92,942.411C2299.92,943.423 2299.75,944.357 2299.42,945.212C2299.09,946.067 2298.62,946.805 2298,947.428C2297.39,948.05 2296.67,948.536 2295.84,948.885C2295.01,949.234 2294.1,949.408 2293.11,949.408ZM2293.11,948.012C2293.89,948.012 2294.6,947.87 2295.26,947.585C2295.91,947.3 2296.48,946.904 2296.97,946.398C2297.45,945.892 2297.83,945.299 2298.09,944.618C2298.35,943.938 2298.48,943.202 2298.48,942.411C2298.48,941.62 2298.35,940.884 2298.09,940.203C2297.83,939.523 2297.45,938.929 2296.97,938.423C2296.48,937.917 2295.91,937.525 2295.26,937.245C2294.6,936.966 2293.89,936.827 2293.11,936.827C2292.34,936.827 2291.62,936.966 2290.96,937.245C2290.3,937.525 2289.73,937.917 2289.25,938.423C2288.77,938.929 2288.39,939.523 2288.13,940.203C2287.86,940.884 2287.72,941.62 2287.72,942.411C2287.72,943.202 2287.86,943.938 2288.13,944.618C2288.39,945.299 2288.77,945.892 2289.25,946.398C2289.73,946.904 2290.3,947.3 2290.96,947.585C2291.62,947.87 2292.34,948.012 2293.11,948.012Z" style="fill-rule:nonzero;"/>
                <path d="M2303.42,949.234C2303.21,949.234 2303.03,949.164 2302.89,949.025C2302.76,948.885 2302.69,948.705 2302.69,948.484L2302.69,936.355C2302.69,936.134 2302.76,935.954 2302.89,935.814C2303.03,935.675 2303.21,935.605 2303.42,935.605C2303.65,935.605 2303.84,935.698 2303.99,935.884L2311.94,946.581L2311.94,936.355C2311.94,936.134 2312.01,935.954 2312.15,935.814C2312.28,935.675 2312.46,935.605 2312.68,935.605C2312.88,935.605 2313.05,935.675 2313.2,935.814C2313.34,935.954 2313.41,936.134 2313.41,936.355L2313.41,948.484C2313.41,948.705 2313.34,948.885 2313.2,949.025C2313.05,949.164 2312.88,949.234 2312.68,949.234C2312.57,949.234 2312.47,949.214 2312.37,949.173C2312.26,949.132 2312.18,949.065 2312.11,948.972L2304.16,938.275L2304.16,948.484C2304.16,948.705 2304.09,948.885 2303.95,949.025C2303.8,949.164 2303.63,949.234 2303.42,949.234Z" style="fill-rule:nonzero;"/>
            </g>
        </g>
    </g>
    <defs>
        <linearGradient id="_Linear1" x1="0" y1="0" x2="1" y2="0" gradientUnits="userSpaceOnUse" gradientTransform="matrix(30.6597,3.0646,-3.0646,30.6597,2051.5,1121.85)"><stop offset="0" style="stop-color:rgb(126,53,89);stop-opacity:1"/><stop offset="0.4" style="stop-color:rgb(175,100,85);stop-opacity:1"/><stop offset="1" style="stop-color:rgb(250,171,78);stop-opacity:1"/></linearGradient>
        <linearGradient id="_Linear2" x1="0" y1="0" x2="1" y2="0" gradientUnits="userSpaceOnUse" gradientTransform="matrix(30.6597,3.0646,-3.0646,30.6597,2051.5,1121.85)"><stop offset="0" style="stop-color:rgb(126,53,89);stop-opacity:1"/><stop offset="0.4" style="stop-color:rgb(175,100,85);stop-opacity:1"/><stop offset="1" style="stop-color:rgb(250,171,78);stop-opacity:1"/></linearGradient>
        <linearGradient id="_Linear3" x1="0" y1="0" x2="1" y2="0" gradientUnits="userSpaceOnUse" gradientTransform="matrix(30.6597,3.0646,-3.0646,30.6597,2051.5,1121.85)"><stop offset="0" style="stop-color:rgb(126,53,89);stop-opacity:1"/><stop offset="0.4" style="stop-color:rgb(175,100,85);stop-opacity:1"/><stop offset="1" style="stop-color:rgb(250,171,78);stop-opacity:1"/></linearGradient>
        <linearGradient id="_Linear4" x1="0" y1="0" x2="1" y2="0" gradientUnits="userSpaceOnUse" gradientTransform="matrix(30.6597,3.0646,-3.0646,30.6597,2051.5,1121.85)"><stop offset="0" style="stop-color:rgb(126,53,89);stop-opacity:1"/><stop offset="0.4" style="stop-color:rgb(175,100,85);stop-opacity:1"/><stop offset="1" style="stop-color:rgb(250,171,78);stop-opacity:1"/></linearGradient>
        <linearGradient id="_Linear5" x1="0" y1="0" x2="1" y2="0" gradientUnits="userSpaceOnUse" gradientTransform="matrix(30.6597,3.0646,-3.0646,30.6597,2051.5,1121.85)"><stop offset="0" style="stop-color:rgb(126,53,89);stop-opacity:1"/><stop offset="0.4" style="stop-color:rgb(175,100,85);stop-opacity:1"/><stop offset="1" style="stop-color:rgb(250,171,78);stop-opacity:1"/></linearGradient>
        <linearGradient id="_Linear6" x1="0" y1="0" x2="1" y2="0" gradientUnits="userSpaceOnUse" gradientTransform="matrix(30.6597,3.0646,-3.0646,30.6597,2051.5,1121.85)"><stop offset="0" style="stop-color:rgb(126,53,89);stop-opacity:1"/><stop offset="0.4" style="stop-color:rgb(175,100,85);stop-opacity:1"/><stop offset="1" style="stop-color:rgb(250,171,78);stop-opacity:1"/></linearGradient>
        <linearGradient id="_Linear7" x1="0" y1="0" x2="1" y2="0" gradientUnits="userSpaceOnUse" gradientTransform="matrix(30.6597,3.0646,-3.0646,30.6597,2051.5,1121.85)"><stop offset="0" style="stop-color:rgb(126,53,89);stop-opacity:1"/><stop offset="0.4" style="stop-color:rgb(175,100,85);stop-opacity:1"/><stop offset="1" style="stop-color:rgb(250,171,78);stop-opacity:1"/></linearGradient>
    </defs>
</svg>
